<?xml version="1.0" encoding="utf-8" standalone="no"?>
<!DOCTYPE svg PUBLIC "-//W3C//DTD SVG 1.1//EN"
  "http://www.w3.org/Graphics/SVG/1.1/DTD/svg11.dtd">
<svg xmlns:xlink="http://www.w3.org/1999/xlink" width="720pt" height="648pt" viewBox="0 0 720 648" xmlns="http://www.w3.org/2000/svg" version="1.1">
 <metadata>
  <rdf:RDF xmlns:dc="http://purl.org/dc/elements/1.1/" xmlns:cc="http://creativecommons.org/ns#" xmlns:rdf="http://www.w3.org/1999/02/22-rdf-syntax-ns#">
   <cc:Work>
    <dc:type rdf:resource="http://purl.org/dc/dcmitype/StillImage"/>
    <dc:date>2023-10-24T08:46:05.447361</dc:date>
    <dc:format>image/svg+xml</dc:format>
    <dc:creator>
     <cc:Agent>
      <dc:title>Matplotlib v3.7.2, https://matplotlib.org/</dc:title>
     </cc:Agent>
    </dc:creator>
   </cc:Work>
  </rdf:RDF>
 </metadata>
 <defs>
  <style type="text/css">*{stroke-linejoin: round; stroke-linecap: butt}</style>
 </defs>
 <g id="figure_1">
  <g id="patch_1">
   <path d="M 0 648 
L 720 648 
L 720 0 
L 0 0 
z
" style="fill: #ffffff"/>
  </g>
  <g id="axes_1">
   <g id="patch_2">
    <path d="M 97.4 265.84 
L 635.29 265.84 
L 635.29 29.52 
L 97.4 29.52 
z
" style="fill: #ffffff"/>
   </g>
   <g id="matplotlib.axis_1">
    <g id="xtick_1">
     <g id="line2d_1">
      <defs>
       <path id="mf8cbe08a5f" d="M 0 0 
L 0 3.5 
" style="stroke: #000000; stroke-width: 0.8"/>
      </defs>
      <g>
       <use xlink:href="#mf8cbe08a5f" x="116.610357" y="265.84" style="stroke: #000000; stroke-width: 0.8"/>
      </g>
     </g>
     <g id="text_1">
      <!-- 0.00 -->
      <g transform="translate(94.344732 288.036875) scale(0.2 -0.2)">
       <defs>
        <path id="DejaVuSans-30" d="M 2034 4250 
Q 1547 4250 1301 3770 
Q 1056 3291 1056 2328 
Q 1056 1369 1301 889 
Q 1547 409 2034 409 
Q 2525 409 2770 889 
Q 3016 1369 3016 2328 
Q 3016 3291 2770 3770 
Q 2525 4250 2034 4250 
z
M 2034 4750 
Q 2819 4750 3233 4129 
Q 3647 3509 3647 2328 
Q 3647 1150 3233 529 
Q 2819 -91 2034 -91 
Q 1250 -91 836 529 
Q 422 1150 422 2328 
Q 422 3509 836 4129 
Q 1250 4750 2034 4750 
z
" transform="scale(0.015625)"/>
        <path id="DejaVuSans-2e" d="M 684 794 
L 1344 794 
L 1344 0 
L 684 0 
L 684 794 
z
" transform="scale(0.015625)"/>
       </defs>
       <use xlink:href="#DejaVuSans-30"/>
       <use xlink:href="#DejaVuSans-2e" x="63.623047"/>
       <use xlink:href="#DejaVuSans-30" x="95.410156"/>
       <use xlink:href="#DejaVuSans-30" x="159.033203"/>
      </g>
     </g>
    </g>
    <g id="xtick_2">
     <g id="line2d_2">
      <g>
       <use xlink:href="#mf8cbe08a5f" x="193.451786" y="265.84" style="stroke: #000000; stroke-width: 0.8"/>
      </g>
     </g>
     <g id="text_2">
      <!-- 0.02 -->
      <g transform="translate(171.186161 288.036875) scale(0.2 -0.2)">
       <defs>
        <path id="DejaVuSans-32" d="M 1228 531 
L 3431 531 
L 3431 0 
L 469 0 
L 469 531 
Q 828 903 1448 1529 
Q 2069 2156 2228 2338 
Q 2531 2678 2651 2914 
Q 2772 3150 2772 3378 
Q 2772 3750 2511 3984 
Q 2250 4219 1831 4219 
Q 1534 4219 1204 4116 
Q 875 4013 500 3803 
L 500 4441 
Q 881 4594 1212 4672 
Q 1544 4750 1819 4750 
Q 2544 4750 2975 4387 
Q 3406 4025 3406 3419 
Q 3406 3131 3298 2873 
Q 3191 2616 2906 2266 
Q 2828 2175 2409 1742 
Q 1991 1309 1228 531 
z
" transform="scale(0.015625)"/>
       </defs>
       <use xlink:href="#DejaVuSans-30"/>
       <use xlink:href="#DejaVuSans-2e" x="63.623047"/>
       <use xlink:href="#DejaVuSans-30" x="95.410156"/>
       <use xlink:href="#DejaVuSans-32" x="159.033203"/>
      </g>
     </g>
    </g>
    <g id="xtick_3">
     <g id="line2d_3">
      <g>
       <use xlink:href="#mf8cbe08a5f" x="270.293214" y="265.84" style="stroke: #000000; stroke-width: 0.8"/>
      </g>
     </g>
     <g id="text_3">
      <!-- 0.04 -->
      <g transform="translate(248.027589 288.036875) scale(0.2 -0.2)">
       <defs>
        <path id="DejaVuSans-34" d="M 2419 4116 
L 825 1625 
L 2419 1625 
L 2419 4116 
z
M 2253 4666 
L 3047 4666 
L 3047 1625 
L 3713 1625 
L 3713 1100 
L 3047 1100 
L 3047 0 
L 2419 0 
L 2419 1100 
L 313 1100 
L 313 1709 
L 2253 4666 
z
" transform="scale(0.015625)"/>
       </defs>
       <use xlink:href="#DejaVuSans-30"/>
       <use xlink:href="#DejaVuSans-2e" x="63.623047"/>
       <use xlink:href="#DejaVuSans-30" x="95.410156"/>
       <use xlink:href="#DejaVuSans-34" x="159.033203"/>
      </g>
     </g>
    </g>
    <g id="xtick_4">
     <g id="line2d_4">
      <g>
       <use xlink:href="#mf8cbe08a5f" x="347.134643" y="265.84" style="stroke: #000000; stroke-width: 0.8"/>
      </g>
     </g>
     <g id="text_4">
      <!-- 0.06 -->
      <g transform="translate(324.869018 288.036875) scale(0.2 -0.2)">
       <defs>
        <path id="DejaVuSans-36" d="M 2113 2584 
Q 1688 2584 1439 2293 
Q 1191 2003 1191 1497 
Q 1191 994 1439 701 
Q 1688 409 2113 409 
Q 2538 409 2786 701 
Q 3034 994 3034 1497 
Q 3034 2003 2786 2293 
Q 2538 2584 2113 2584 
z
M 3366 4563 
L 3366 3988 
Q 3128 4100 2886 4159 
Q 2644 4219 2406 4219 
Q 1781 4219 1451 3797 
Q 1122 3375 1075 2522 
Q 1259 2794 1537 2939 
Q 1816 3084 2150 3084 
Q 2853 3084 3261 2657 
Q 3669 2231 3669 1497 
Q 3669 778 3244 343 
Q 2819 -91 2113 -91 
Q 1303 -91 875 529 
Q 447 1150 447 2328 
Q 447 3434 972 4092 
Q 1497 4750 2381 4750 
Q 2619 4750 2861 4703 
Q 3103 4656 3366 4563 
z
" transform="scale(0.015625)"/>
       </defs>
       <use xlink:href="#DejaVuSans-30"/>
       <use xlink:href="#DejaVuSans-2e" x="63.623047"/>
       <use xlink:href="#DejaVuSans-30" x="95.410156"/>
       <use xlink:href="#DejaVuSans-36" x="159.033203"/>
      </g>
     </g>
    </g>
    <g id="xtick_5">
     <g id="line2d_5">
      <g>
       <use xlink:href="#mf8cbe08a5f" x="423.976071" y="265.84" style="stroke: #000000; stroke-width: 0.8"/>
      </g>
     </g>
     <g id="text_5">
      <!-- 0.08 -->
      <g transform="translate(401.710446 288.036875) scale(0.2 -0.2)">
       <defs>
        <path id="DejaVuSans-38" d="M 2034 2216 
Q 1584 2216 1326 1975 
Q 1069 1734 1069 1313 
Q 1069 891 1326 650 
Q 1584 409 2034 409 
Q 2484 409 2743 651 
Q 3003 894 3003 1313 
Q 3003 1734 2745 1975 
Q 2488 2216 2034 2216 
z
M 1403 2484 
Q 997 2584 770 2862 
Q 544 3141 544 3541 
Q 544 4100 942 4425 
Q 1341 4750 2034 4750 
Q 2731 4750 3128 4425 
Q 3525 4100 3525 3541 
Q 3525 3141 3298 2862 
Q 3072 2584 2669 2484 
Q 3125 2378 3379 2068 
Q 3634 1759 3634 1313 
Q 3634 634 3220 271 
Q 2806 -91 2034 -91 
Q 1263 -91 848 271 
Q 434 634 434 1313 
Q 434 1759 690 2068 
Q 947 2378 1403 2484 
z
M 1172 3481 
Q 1172 3119 1398 2916 
Q 1625 2713 2034 2713 
Q 2441 2713 2670 2916 
Q 2900 3119 2900 3481 
Q 2900 3844 2670 4047 
Q 2441 4250 2034 4250 
Q 1625 4250 1398 4047 
Q 1172 3844 1172 3481 
z
" transform="scale(0.015625)"/>
       </defs>
       <use xlink:href="#DejaVuSans-30"/>
       <use xlink:href="#DejaVuSans-2e" x="63.623047"/>
       <use xlink:href="#DejaVuSans-30" x="95.410156"/>
       <use xlink:href="#DejaVuSans-38" x="159.033203"/>
      </g>
     </g>
    </g>
    <g id="xtick_6">
     <g id="line2d_6">
      <g>
       <use xlink:href="#mf8cbe08a5f" x="500.8175" y="265.84" style="stroke: #000000; stroke-width: 0.8"/>
      </g>
     </g>
     <g id="text_6">
      <!-- 0.10 -->
      <g transform="translate(478.551875 288.036875) scale(0.2 -0.2)">
       <defs>
        <path id="DejaVuSans-31" d="M 794 531 
L 1825 531 
L 1825 4091 
L 703 3866 
L 703 4441 
L 1819 4666 
L 2450 4666 
L 2450 531 
L 3481 531 
L 3481 0 
L 794 0 
L 794 531 
z
" transform="scale(0.015625)"/>
       </defs>
       <use xlink:href="#DejaVuSans-30"/>
       <use xlink:href="#DejaVuSans-2e" x="63.623047"/>
       <use xlink:href="#DejaVuSans-31" x="95.410156"/>
       <use xlink:href="#DejaVuSans-30" x="159.033203"/>
      </g>
     </g>
    </g>
    <g id="xtick_7">
     <g id="line2d_7">
      <g>
       <use xlink:href="#mf8cbe08a5f" x="577.658929" y="265.84" style="stroke: #000000; stroke-width: 0.8"/>
      </g>
     </g>
     <g id="text_7">
      <!-- 0.12 -->
      <g transform="translate(555.393304 288.036875) scale(0.2 -0.2)">
       <use xlink:href="#DejaVuSans-30"/>
       <use xlink:href="#DejaVuSans-2e" x="63.623047"/>
       <use xlink:href="#DejaVuSans-31" x="95.410156"/>
       <use xlink:href="#DejaVuSans-32" x="159.033203"/>
      </g>
     </g>
    </g>
    <g id="text_8">
     <!-- Axial strain [-] -->
     <g transform="translate(295.649688 311.393125) scale(0.2 -0.2)">
      <defs>
       <path id="DejaVuSans-41" d="M 2188 4044 
L 1331 1722 
L 3047 1722 
L 2188 4044 
z
M 1831 4666 
L 2547 4666 
L 4325 0 
L 3669 0 
L 3244 1197 
L 1141 1197 
L 716 0 
L 50 0 
L 1831 4666 
z
" transform="scale(0.015625)"/>
       <path id="DejaVuSans-78" d="M 3513 3500 
L 2247 1797 
L 3578 0 
L 2900 0 
L 1881 1375 
L 863 0 
L 184 0 
L 1544 1831 
L 300 3500 
L 978 3500 
L 1906 2253 
L 2834 3500 
L 3513 3500 
z
" transform="scale(0.015625)"/>
       <path id="DejaVuSans-69" d="M 603 3500 
L 1178 3500 
L 1178 0 
L 603 0 
L 603 3500 
z
M 603 4863 
L 1178 4863 
L 1178 4134 
L 603 4134 
L 603 4863 
z
" transform="scale(0.015625)"/>
       <path id="DejaVuSans-61" d="M 2194 1759 
Q 1497 1759 1228 1600 
Q 959 1441 959 1056 
Q 959 750 1161 570 
Q 1363 391 1709 391 
Q 2188 391 2477 730 
Q 2766 1069 2766 1631 
L 2766 1759 
L 2194 1759 
z
M 3341 1997 
L 3341 0 
L 2766 0 
L 2766 531 
Q 2569 213 2275 61 
Q 1981 -91 1556 -91 
Q 1019 -91 701 211 
Q 384 513 384 1019 
Q 384 1609 779 1909 
Q 1175 2209 1959 2209 
L 2766 2209 
L 2766 2266 
Q 2766 2663 2505 2880 
Q 2244 3097 1772 3097 
Q 1472 3097 1187 3025 
Q 903 2953 641 2809 
L 641 3341 
Q 956 3463 1253 3523 
Q 1550 3584 1831 3584 
Q 2591 3584 2966 3190 
Q 3341 2797 3341 1997 
z
" transform="scale(0.015625)"/>
       <path id="DejaVuSans-6c" d="M 603 4863 
L 1178 4863 
L 1178 0 
L 603 0 
L 603 4863 
z
" transform="scale(0.015625)"/>
       <path id="DejaVuSans-20" transform="scale(0.015625)"/>
       <path id="DejaVuSans-73" d="M 2834 3397 
L 2834 2853 
Q 2591 2978 2328 3040 
Q 2066 3103 1784 3103 
Q 1356 3103 1142 2972 
Q 928 2841 928 2578 
Q 928 2378 1081 2264 
Q 1234 2150 1697 2047 
L 1894 2003 
Q 2506 1872 2764 1633 
Q 3022 1394 3022 966 
Q 3022 478 2636 193 
Q 2250 -91 1575 -91 
Q 1294 -91 989 -36 
Q 684 19 347 128 
L 347 722 
Q 666 556 975 473 
Q 1284 391 1588 391 
Q 1994 391 2212 530 
Q 2431 669 2431 922 
Q 2431 1156 2273 1281 
Q 2116 1406 1581 1522 
L 1381 1569 
Q 847 1681 609 1914 
Q 372 2147 372 2553 
Q 372 3047 722 3315 
Q 1072 3584 1716 3584 
Q 2034 3584 2315 3537 
Q 2597 3491 2834 3397 
z
" transform="scale(0.015625)"/>
       <path id="DejaVuSans-74" d="M 1172 4494 
L 1172 3500 
L 2356 3500 
L 2356 3053 
L 1172 3053 
L 1172 1153 
Q 1172 725 1289 603 
Q 1406 481 1766 481 
L 2356 481 
L 2356 0 
L 1766 0 
Q 1100 0 847 248 
Q 594 497 594 1153 
L 594 3053 
L 172 3053 
L 172 3500 
L 594 3500 
L 594 4494 
L 1172 4494 
z
" transform="scale(0.015625)"/>
       <path id="DejaVuSans-72" d="M 2631 2963 
Q 2534 3019 2420 3045 
Q 2306 3072 2169 3072 
Q 1681 3072 1420 2755 
Q 1159 2438 1159 1844 
L 1159 0 
L 581 0 
L 581 3500 
L 1159 3500 
L 1159 2956 
Q 1341 3275 1631 3429 
Q 1922 3584 2338 3584 
Q 2397 3584 2469 3576 
Q 2541 3569 2628 3553 
L 2631 2963 
z
" transform="scale(0.015625)"/>
       <path id="DejaVuSans-6e" d="M 3513 2113 
L 3513 0 
L 2938 0 
L 2938 2094 
Q 2938 2591 2744 2837 
Q 2550 3084 2163 3084 
Q 1697 3084 1428 2787 
Q 1159 2491 1159 1978 
L 1159 0 
L 581 0 
L 581 3500 
L 1159 3500 
L 1159 2956 
Q 1366 3272 1645 3428 
Q 1925 3584 2291 3584 
Q 2894 3584 3203 3211 
Q 3513 2838 3513 2113 
z
" transform="scale(0.015625)"/>
       <path id="DejaVuSans-5b" d="M 550 4863 
L 1875 4863 
L 1875 4416 
L 1125 4416 
L 1125 -397 
L 1875 -397 
L 1875 -844 
L 550 -844 
L 550 4863 
z
" transform="scale(0.015625)"/>
       <path id="DejaVuSans-2d" d="M 313 2009 
L 1997 2009 
L 1997 1497 
L 313 1497 
L 313 2009 
z
" transform="scale(0.015625)"/>
       <path id="DejaVuSans-5d" d="M 1947 4863 
L 1947 -844 
L 622 -844 
L 622 -397 
L 1369 -397 
L 1369 4416 
L 622 4416 
L 622 4863 
L 1947 4863 
z
" transform="scale(0.015625)"/>
      </defs>
      <use xlink:href="#DejaVuSans-41"/>
      <use xlink:href="#DejaVuSans-78" x="68.408203"/>
      <use xlink:href="#DejaVuSans-69" x="127.587891"/>
      <use xlink:href="#DejaVuSans-61" x="155.371094"/>
      <use xlink:href="#DejaVuSans-6c" x="216.650391"/>
      <use xlink:href="#DejaVuSans-20" x="244.433594"/>
      <use xlink:href="#DejaVuSans-73" x="276.220703"/>
      <use xlink:href="#DejaVuSans-74" x="328.320312"/>
      <use xlink:href="#DejaVuSans-72" x="367.529297"/>
      <use xlink:href="#DejaVuSans-61" x="408.642578"/>
      <use xlink:href="#DejaVuSans-69" x="469.921875"/>
      <use xlink:href="#DejaVuSans-6e" x="497.705078"/>
      <use xlink:href="#DejaVuSans-20" x="561.083984"/>
      <use xlink:href="#DejaVuSans-5b" x="592.871094"/>
      <use xlink:href="#DejaVuSans-2d" x="631.884766"/>
      <use xlink:href="#DejaVuSans-5d" x="667.96875"/>
     </g>
    </g>
   </g>
   <g id="matplotlib.axis_2">
    <g id="ytick_1">
     <g id="line2d_8">
      <defs>
       <path id="medde6faf83" d="M 0 0 
L -3.5 0 
" style="stroke: #000000; stroke-width: 0.8"/>
      </defs>
      <g>
       <use xlink:href="#medde6faf83" x="97.4" y="265.84" style="stroke: #000000; stroke-width: 0.8"/>
      </g>
     </g>
     <g id="text_9">
      <!-- 0.0 -->
      <g transform="translate(58.59375 273.438437) scale(0.2 -0.2)">
       <use xlink:href="#DejaVuSans-30"/>
       <use xlink:href="#DejaVuSans-2e" x="63.623047"/>
       <use xlink:href="#DejaVuSans-30" x="95.410156"/>
      </g>
     </g>
    </g>
    <g id="ytick_2">
     <g id="line2d_9">
      <g>
       <use xlink:href="#medde6faf83" x="97.4" y="206.76" style="stroke: #000000; stroke-width: 0.8"/>
      </g>
     </g>
     <g id="text_10">
      <!-- 0.5 -->
      <g transform="translate(58.59375 214.358437) scale(0.2 -0.2)">
       <defs>
        <path id="DejaVuSans-35" d="M 691 4666 
L 3169 4666 
L 3169 4134 
L 1269 4134 
L 1269 2991 
Q 1406 3038 1543 3061 
Q 1681 3084 1819 3084 
Q 2600 3084 3056 2656 
Q 3513 2228 3513 1497 
Q 3513 744 3044 326 
Q 2575 -91 1722 -91 
Q 1428 -91 1123 -41 
Q 819 9 494 109 
L 494 744 
Q 775 591 1075 516 
Q 1375 441 1709 441 
Q 2250 441 2565 725 
Q 2881 1009 2881 1497 
Q 2881 1984 2565 2268 
Q 2250 2553 1709 2553 
Q 1456 2553 1204 2497 
Q 953 2441 691 2322 
L 691 4666 
z
" transform="scale(0.015625)"/>
       </defs>
       <use xlink:href="#DejaVuSans-30"/>
       <use xlink:href="#DejaVuSans-2e" x="63.623047"/>
       <use xlink:href="#DejaVuSans-35" x="95.410156"/>
      </g>
     </g>
    </g>
    <g id="ytick_3">
     <g id="line2d_10">
      <g>
       <use xlink:href="#medde6faf83" x="97.4" y="147.68" style="stroke: #000000; stroke-width: 0.8"/>
      </g>
     </g>
     <g id="text_11">
      <!-- 1.0 -->
      <g transform="translate(58.59375 155.278437) scale(0.2 -0.2)">
       <use xlink:href="#DejaVuSans-31"/>
       <use xlink:href="#DejaVuSans-2e" x="63.623047"/>
       <use xlink:href="#DejaVuSans-30" x="95.410156"/>
      </g>
     </g>
    </g>
    <g id="ytick_4">
     <g id="line2d_11">
      <g>
       <use xlink:href="#medde6faf83" x="97.4" y="88.6" style="stroke: #000000; stroke-width: 0.8"/>
      </g>
     </g>
     <g id="text_12">
      <!-- 1.5 -->
      <g transform="translate(58.59375 96.198437) scale(0.2 -0.2)">
       <use xlink:href="#DejaVuSans-31"/>
       <use xlink:href="#DejaVuSans-2e" x="63.623047"/>
       <use xlink:href="#DejaVuSans-35" x="95.410156"/>
      </g>
     </g>
    </g>
    <g id="ytick_5">
     <g id="line2d_12">
      <g>
       <use xlink:href="#medde6faf83" x="97.4" y="29.52" style="stroke: #000000; stroke-width: 0.8"/>
      </g>
     </g>
     <g id="text_13">
      <!-- 2.0 -->
      <g transform="translate(58.59375 37.118438) scale(0.2 -0.2)">
       <use xlink:href="#DejaVuSans-32"/>
       <use xlink:href="#DejaVuSans-2e" x="63.623047"/>
       <use xlink:href="#DejaVuSans-30" x="95.410156"/>
      </g>
     </g>
    </g>
    <g id="text_14">
     <!-- Stress ratio [-] -->
     <g transform="translate(50.434375 219.23) rotate(-90) scale(0.2 -0.2)">
      <defs>
       <path id="DejaVuSans-53" d="M 3425 4513 
L 3425 3897 
Q 3066 4069 2747 4153 
Q 2428 4238 2131 4238 
Q 1616 4238 1336 4038 
Q 1056 3838 1056 3469 
Q 1056 3159 1242 3001 
Q 1428 2844 1947 2747 
L 2328 2669 
Q 3034 2534 3370 2195 
Q 3706 1856 3706 1288 
Q 3706 609 3251 259 
Q 2797 -91 1919 -91 
Q 1588 -91 1214 -16 
Q 841 59 441 206 
L 441 856 
Q 825 641 1194 531 
Q 1563 422 1919 422 
Q 2459 422 2753 634 
Q 3047 847 3047 1241 
Q 3047 1584 2836 1778 
Q 2625 1972 2144 2069 
L 1759 2144 
Q 1053 2284 737 2584 
Q 422 2884 422 3419 
Q 422 4038 858 4394 
Q 1294 4750 2059 4750 
Q 2388 4750 2728 4690 
Q 3069 4631 3425 4513 
z
" transform="scale(0.015625)"/>
       <path id="DejaVuSans-65" d="M 3597 1894 
L 3597 1613 
L 953 1613 
Q 991 1019 1311 708 
Q 1631 397 2203 397 
Q 2534 397 2845 478 
Q 3156 559 3463 722 
L 3463 178 
Q 3153 47 2828 -22 
Q 2503 -91 2169 -91 
Q 1331 -91 842 396 
Q 353 884 353 1716 
Q 353 2575 817 3079 
Q 1281 3584 2069 3584 
Q 2775 3584 3186 3129 
Q 3597 2675 3597 1894 
z
M 3022 2063 
Q 3016 2534 2758 2815 
Q 2500 3097 2075 3097 
Q 1594 3097 1305 2825 
Q 1016 2553 972 2059 
L 3022 2063 
z
" transform="scale(0.015625)"/>
       <path id="DejaVuSans-6f" d="M 1959 3097 
Q 1497 3097 1228 2736 
Q 959 2375 959 1747 
Q 959 1119 1226 758 
Q 1494 397 1959 397 
Q 2419 397 2687 759 
Q 2956 1122 2956 1747 
Q 2956 2369 2687 2733 
Q 2419 3097 1959 3097 
z
M 1959 3584 
Q 2709 3584 3137 3096 
Q 3566 2609 3566 1747 
Q 3566 888 3137 398 
Q 2709 -91 1959 -91 
Q 1206 -91 779 398 
Q 353 888 353 1747 
Q 353 2609 779 3096 
Q 1206 3584 1959 3584 
z
" transform="scale(0.015625)"/>
      </defs>
      <use xlink:href="#DejaVuSans-53"/>
      <use xlink:href="#DejaVuSans-74" x="63.476562"/>
      <use xlink:href="#DejaVuSans-72" x="102.685547"/>
      <use xlink:href="#DejaVuSans-65" x="141.548828"/>
      <use xlink:href="#DejaVuSans-73" x="203.072266"/>
      <use xlink:href="#DejaVuSans-73" x="255.171875"/>
      <use xlink:href="#DejaVuSans-20" x="307.271484"/>
      <use xlink:href="#DejaVuSans-72" x="339.058594"/>
      <use xlink:href="#DejaVuSans-61" x="380.171875"/>
      <use xlink:href="#DejaVuSans-74" x="441.451172"/>
      <use xlink:href="#DejaVuSans-69" x="480.660156"/>
      <use xlink:href="#DejaVuSans-6f" x="508.443359"/>
      <use xlink:href="#DejaVuSans-20" x="569.625"/>
      <use xlink:href="#DejaVuSans-5b" x="601.412109"/>
      <use xlink:href="#DejaVuSans-2d" x="640.425781"/>
      <use xlink:href="#DejaVuSans-5d" x="676.509766"/>
     </g>
    </g>
   </g>
   <g id="line2d_13">
    <path d="M 116.610357 256.070085 
L 116.617222 255.109915 
L 116.639156 253.341294 
L 116.64803 253.489472 
L 116.673313 252.14585 
L 116.679006 252.213931 
L 116.728567 242.129314 
L 116.767746 241.660722 
L 116.792862 238.136543 
L 116.772435 242.990075 
L 116.766909 238.163977 
L 116.768416 237.458374 
L 116.741794 236.787905 
L 116.810945 230.108585 
L 116.811447 230.265303 
L 116.792192 230.051875 
L 116.787504 229.86806 
L 116.713163 231.124452 
L 116.709312 231.47369 
L 116.845771 224.779366 
L 116.870384 223.753217 
L 116.880431 223.966872 
L 116.925805 222.170091 
L 116.848618 222.257934 
L 116.950921 222.051228 
L 116.863687 222.115176 
L 116.940205 222.390351 
L 116.846776 223.066139 
L 116.857492 222.936449 
L 116.851297 223.180181 
L 116.893658 221.262633 
L 116.988092 216.439768 
L 117.526564 204.892961 
L 118.451309 192.140856 
L 119.330344 183.946114 
L 119.62319 183.060344 
L 119.726834 183.0255 
L 119.838177 184.087193 
L 119.936461 183.904628 
L 120.38301 182.448007 
L 120.586786 182.234011 
L 120.673693 182.344603 
L 120.884162 181.549135 
L 121.316126 179.414566 
L 121.442722 179.4467 
L 123.903339 170.653354 
L 124.016027 170.580898 
L 124.140779 170.133219 
L 124.252276 170.445018 
L 124.364118 170.234401 
L 124.780522 168.638092 
L 124.996523 168.265133 
L 125.217558 167.818861 
L 125.469021 166.683181 
L 125.563114 166.550875 
L 125.716681 165.697039 
L 125.822645 166.250551 
L 125.913895 166.118342 
L 126.000149 165.499488 
L 126.115181 165.526319 
L 126.379054 164.761541 
L 126.712738 163.926159 
L 127.55177 161.84019 
L 127.631301 161.88165 
L 128.136456 160.535954 
L 128.236235 160.426428 
L 128.502452 159.53671 
L 128.596736 159.515346 
L 128.783423 158.630719 
L 128.899453 158.976683 
L 129.328075 157.453421 
L 129.425202 158.436218 
L 129.653575 157.450032 
L 129.958136 156.949475 
L 130.064792 156.526429 
L 130.192541 156.678654 
L 130.407351 155.829631 
L 131.961354 152.160862 
L 132.095788 151.632189 
L 132.211165 151.670145 
L 132.42513 151.33452 
L 132.675633 150.888856 
L 132.788283 151.406646 
L 132.97616 151.082881 
L 133.058188 151.116444 
L 133.350723 149.914517 
L 133.467753 149.782039 
L 133.648753 148.997626 
L 133.988315 148.257022 
L 134.2125 148.164195 
L 134.56916 147.07759 
L 134.783278 146.67647 
L 135.013533 146.223749 
L 135.299499 146.090202 
L 135.711369 145.550947 
L 135.901936 145.564946 
L 135.987998 145.947903 
L 136.207649 144.964663 
L 136.404748 145.123855 
L 136.48643 144.488023 
L 136.603306 144.471082 
L 137.346401 142.768659 
L 137.661489 142.56287 
L 137.760461 146.359546 
L 137.825584 144.649535 
L 137.941307 144.475703 
L 137.942306 145.081682 
L 138.007429 143.661603 
L 138.199802 140.992806 
L 138.300272 141.715529 
L 138.5419 140.195253 
L 138.805082 141.083188 
L 138.952771 140.511586 
L 139.102957 140.428995 
L 139.188175 140.867877 
L 139.582832 140.333529 
L 139.666705 139.950582 
L 139.836678 140.091946 
L 140.062707 139.190156 
L 140.36892 138.989635 
L 140.487486 138.524302 
L 140.570859 138.971541 
L 140.776986 138.732682 
L 140.878763 139.268455 
L 140.977735 138.685543 
L 141.085735 138.763563 
L 141.261049 137.701381 
L 141.398173 137.723256 
L 141.637918 137.258255 
L 141.741231 137.172826 
L 141.835516 137.678188 
L 142.130702 137.235162 
L 142.221452 137.445109 
L 142.300291 136.971797 
L 142.404795 137.091413 
L 142.508109 136.93395 
L 142.617262 136.389746 
L 142.71923 136.494085 
L 143.05376 135.637426 
L 143.327353 135.43762 
L 143.525412 135.592871 
L 144.750726 133.193955 
L 145.133665 132.775001 
L 145.850595 131.064177 
L 145.951066 130.965873 
L 146.168066 130.456856 
L 146.970098 129.52675 
L 147.588095 127.78619 
L 147.70597 127.77499 
L 147.95194 127.317293 
L 148.077998 127.169447 
L 148.400156 126.113248 
L 148.658496 126.406388 
L 148.770531 126.301721 
L 148.864124 126.46062 
L 149.049965 125.886495 
L 149.2559 125.563214 
L 149.450463 126.862538 
L 149.893492 124.791035 
L 150.113527 124.390693 
L 150.211308 124.915573 
L 150.473683 124.256712 
L 150.570926 124.781917 
L 150.800989 124.198784 
L 151.303801 122.597658 
L 151.385368 122.83965 
L 151.497518 122.718487 
L 151.798429 121.915169 
L 151.934054 121.925752 
L 152.169958 121.6693 
L 152.257864 121.832351 
L 152.464145 121.643363 
L 152.533456 131.548351 
L 152.56961 131.070755 
L 152.462647 130.727004 
L 152.486736 131.059673 
L 152.593738 130.652178 
L 152.59005 131.022951 
L 152.544022 129.742216 
L 152.523236 131.034899 
L 152.484047 135.321192 
L 152.169266 144.711656 
L 151.975395 150.605354 
L 150.942301 184.209874 
L 150.928584 183.510632 
L 150.93527 182.156625 
L 150.883056 183.987132 
L 150.945182 182.170795 
L 150.975957 180.756956 
L 150.852396 180.966604 
L 150.828806 181.086038 
L 150.840025 180.610872 
L 150.832648 180.781815 
L 150.837335 178.906015 
L 150.92893 181.882504 
L 150.97296 180.384118 
L 150.934271 178.936525 
L 150.876524 180.340196 
L 150.850552 180.786631 
L 150.894083 179.618377 
L 150.890932 178.585735 
L 150.908644 176.584202 
L 150.833301 180.619129 
L 150.860618 177.291973 
L 151.68893 147.406626 
L 151.944735 139.902904 
L 152.118704 135.261585 
L 152.707771 123.369017 
L 153.017173 120.508915 
L 153.353546 118.958769 
L 153.416864 126.85976 
L 153.423549 132.225042 
L 153.497701 128.103245 
L 153.982455 118.356933 
L 154.27695 116.670834 
L 154.383606 116.416416 
L 154.489608 116.573645 
L 154.581856 116.387399 
L 154.68298 116.441945 
L 154.879386 116.151964 
L 154.9827 116.329765 
L 155.086013 116.175539 
L 155.173228 116.587817 
L 155.406826 116.152552 
L 155.520551 116.256155 
L 155.61084 116.79968 
L 155.749539 116.953404 
L 155.867106 116.415986 
L 156.254387 116.896337 
L 156.568668 117.029916 
L 156.665104 116.934721 
L 156.801882 117.118598 
L 156.952876 116.713242 
L 157.137679 116.686857 
L 157.486923 115.861262 
L 157.589123 115.916421 
L 158.636855 113.518147 
L 158.750965 113.572673 
L 158.847401 113.591552 
L 159.048341 114.200548 
L 159.141704 115.712471 
L 159.626957 113.641325 
L 159.800235 113.731845 
L 160.039596 113.10149 
L 160.134111 113.278863 
L 160.680453 113.191304 
L 161.13766 113.003818 
L 161.264064 112.311397 
L 161.379326 112.303687 
L 161.614461 112.041772 
L 161.734333 112.107931 
L 162.042468 111.688246 
L 162.150046 111.797504 
L 162.244176 111.463107 
L 162.410538 112.102876 
L 163.368366 110.286824 
L 163.453276 110.420993 
L 163.625785 109.976196 
L 163.834794 110.662351 
L 164.159833 109.966868 
L 164.580924 108.615178 
L 164.716549 108.68373 
L 164.807606 108.379135 
L 164.935547 108.550601 
L 165.228313 108.299512 
L 165.420033 108.14202 
L 165.836513 107.409709 
L 165.954081 107.357396 
L 166.212268 106.576782 
L 166.542686 106.890815 
L 167.185849 105.857253 
L 167.323011 105.815535 
L 167.528946 105.515946 
L 167.644592 105.540715 
L 167.775222 105.323298 
L 167.877037 105.449022 
L 168.232045 105.00115 
L 168.346923 105.046742 
L 168.553242 104.619227 
L 168.740351 104.276725 
L 168.841013 104.433731 
L 169.067311 103.821158 
L 169.169894 103.965091 
L 169.45805 103.688319 
L 169.7439 103.34516 
L 169.967508 102.938735 
L 170.175749 102.88076 
L 170.369773 103.338767 
L 170.772038 102.508725 
L 170.875006 102.617098 
L 171.168156 102.133638 
L 171.508179 101.691512 
L 171.727945 101.36957 
L 171.847434 101.636982 
L 171.93388 101.597246 
L 172.114458 101.166705 
L 172.225109 101.305308 
L 172.325772 100.902048 
L 172.423745 100.944684 
L 172.885562 99.992216 
L 173.068828 100.23644 
L 173.2836 100.112487 
L 173.515277 99.547624 
L 173.607487 99.526968 
L 173.718523 99.808313 
L 174.073146 99.165568 
L 174.201087 99.000834 
L 174.325186 98.64262 
L 174.446979 98.994838 
L 174.679041 98.988377 
L 174.863076 98.509826 
L 175.588075 97.675466 
L 175.721394 97.301145 
L 175.945771 97.552992 
L 176.074865 97.257078 
L 176.194353 97.579151 
L 176.305005 97.319374 
L 176.620439 97.441962 
L 176.985436 97.197556 
L 177.177924 97.011564 
L 177.539847 96.321296 
L 177.753082 96.77049 
L 177.94557 96.462395 
L 178.160726 97.364829 
L 178.543396 96.39035 
L 178.856909 96.917479 
L 179.205769 95.803346 
L 179.320263 95.650043 
L 179.505451 95.978502 
L 179.609187 96.034529 
L 179.925389 95.165307 
L 180.047183 95.371984 
L 180.231986 94.859496 
L 180.371838 94.658149 
L 180.474037 94.268985 
L 180.623109 95.771571 
L 180.824818 95.403452 
L 180.943922 94.963 
L 181.016922 94.997829 
L 181.635879 93.587186 
L 181.73731 94.720406 
L 181.823372 94.378018 
L 181.957845 94.388984 
L 182.292489 93.472528 
L 182.495735 93.484047 
L 182.670933 93.352506 
L 182.865726 94.00879 
L 182.960625 93.844534 
L 183.533863 92.324486 
L 183.885796 92.047941 
L 184.188936 91.478469 
L 184.377197 91.191306 
L 184.57468 91.242108 
L 184.689942 90.791798 
L 184.892035 90.790642 
L 185.082217 90.3665 
L 185.190564 90.412221 
L 185.49985 90.282668 
L 185.605892 90.298279 
L 185.8295 89.974242 
L 186.028135 89.974466 
L 186.159918 89.577755 
L 186.25597 89.632107 
L 186.448842 89.371329 
L 187.853503 87.927439 
L 188.079417 88.913428 
L 188.204285 88.716703 
L 188.399846 89.829288 
L 188.512419 89.656755 
L 188.670328 88.714351 
L 189.142134 87.828731 
L 189.308496 88.512239 
L 189.716908 87.728296 
L 189.949738 87.14981 
L 190.207541 86.953614 
L 190.619411 86.439766 
L 190.72161 86.516369 
L 190.901803 86.042117 
L 191.690964 85.178232 
L 192.011009 85.034024 
L 192.629198 84.442208 
L 192.76175 84.565972 
L 192.851654 84.473039 
L 192.990353 84.169379 
L 193.218572 84.44906 
L 193.603163 84.399718 
L 193.905534 83.666467 
L 194.042696 83.692249 
L 194.346604 83.237463 
L 194.435356 83.341277 
L 194.535634 83.307635 
L 194.727353 82.835644 
L 194.824942 83.077012 
L 194.897557 83.003129 
L 195.013972 82.935836 
L 195.116555 83.013233 
L 195.217986 82.905493 
L 195.325948 82.407734 
L 195.476173 82.321321 
L 195.602193 82.524259 
L 195.69325 82.290701 
L 195.793528 82.480665 
L 196.158525 81.853054 
L 196.263414 81.86698 
L 196.466275 81.601069 
L 196.557716 81.657515 
L 196.74713 81.332363 
L 196.851251 81.349908 
L 196.975734 81.050258 
L 197.198958 81.14653 
L 197.790253 80.491556 
L 197.928183 80.606021 
L 198.021545 80.490229 
L 198.255528 80.698767 
L 198.357727 80.476089 
L 198.470299 80.504271 
L 198.680845 80.084485 
L 198.790344 79.953826 
L 198.878712 80.05309 
L 199.08772 79.681238 
L 199.215661 79.712364 
L 199.318245 79.524174 
L 199.434275 79.555252 
L 199.542622 79.755416 
L 199.728194 79.565188 
L 199.84845 79.511435 
L 200.138143 80.124171 
L 200.360214 79.866792 
L 200.616096 79.216419 
L 200.751337 79.537539 
L 201.017593 79.287015 
L 201.20816 79.587158 
L 201.296527 79.472625 
L 201.400647 79.290642 
L 201.50131 79.501017 
L 201.737213 78.845431 
L 202.147546 78.317992 
L 202.234377 78.344547 
L 202.330044 78.256707 
L 202.535595 78.740349 
L 202.640868 78.557723 
L 202.740378 78.710952 
L 203.395835 77.786027 
L 203.514171 77.924438 
L 203.613296 77.69289 
L 203.709348 77.785224 
L 203.7981 77.526251 
L 203.913362 77.557053 
L 204.091634 77.273572 
L 204.189991 77.226502 
L 204.289501 77.034616 
L 204.407068 77.067686 
L 204.631829 76.67573 
L 204.702908 76.77171 
L 204.939579 76.493658 
L 205.15243 76.543418 
L 205.335697 76.308377 
L 205.424449 76.542258 
L 205.688015 75.985528 
L 206.117174 75.702924 
L 206.245115 75.745537 
L 206.672354 75.376892 
L 206.791074 75.472999 
L 206.895194 75.303933 
L 207.099208 75.401362 
L 207.312058 75.058234 
L 207.506083 74.961855 
L 207.971742 74.699048 
L 208.062031 74.82885 
L 208.177677 74.547145 
L 208.38707 74.613503 
L 208.509632 74.272043 
L 208.626815 74.500812 
L 208.868866 75.029202 
L 208.96146 75.09566 
L 209.060201 75.332918 
L 209.335677 74.860108 
L 209.427887 75.277805 
L 209.51395 75.23501 
L 209.941956 74.227872 
L 210.16787 74.204952 
L 210.3569 74.045721 
L 210.537862 74.06592 
L 210.64544 74.128042 
L 210.847917 73.911871 
L 211.20715 73.681522 
L 211.693557 73.846883 
L 212.25642 73.169886 
L 212.35593 73.332778 
L 212.737832 72.666501 
L 212.838494 72.919785 
L 212.942614 73.660904 
L 213.602298 73.14834 
L 213.902748 72.666838 
L 214.130198 72.437691 
L 214.252376 72.362142 
L 214.47099 72.468344 
L 215.288199 71.884685 
L 215.400003 71.577881 
L 215.526791 71.8231 
L 216.213369 71.173803 
L 216.513819 71.160083 
L 216.584898 71.208185 
L 216.972179 70.827858 
L 217.141614 70.841041 
L 217.258797 70.775338 
L 217.367912 70.578214 
L 217.477411 70.654427 
L 217.583452 70.420609 
L 217.715235 70.471139 
L 217.830882 70.643029 
L 217.968044 70.375537 
L 218.163989 70.40427 
L 218.445229 70.428475 
L 218.533981 69.938791 
L 218.670374 69.932248 
L 218.876693 70.122547 
L 218.987729 69.9316 
L 219.084934 70.116991 
L 219.212875 69.925857 
L 219.3047 70.005478 
L 219.832217 69.67625 
L 220.16494 69.577531 
L 220.450406 69.736192 
L 220.759693 69.380424 
L 221.049001 69.534823 
L 221.536559 69.100451 
L 221.690627 69.234498 
L 222.072144 68.794168 
L 222.250801 68.981491 
L 222.466341 69.031449 
L 222.590824 76.919272 
L 222.592361 76.876781 
" clip-path="url(#p2a0180b079)" style="fill: none; stroke: #000000; stroke-width: 3; stroke-linecap: square"/>
   </g>
   <g id="patch_3">
    <path d="M 97.4 265.84 
L 97.4 29.52 
" style="fill: none; stroke: #000000; stroke-width: 0.8; stroke-linejoin: miter; stroke-linecap: square"/>
   </g>
   <g id="patch_4">
    <path d="M 635.29 265.84 
L 635.29 29.52 
" style="fill: none; stroke: #000000; stroke-width: 0.8; stroke-linejoin: miter; stroke-linecap: square"/>
   </g>
   <g id="patch_5">
    <path d="M 97.4 265.84 
L 635.29 265.84 
" style="fill: none; stroke: #000000; stroke-width: 0.8; stroke-linejoin: miter; stroke-linecap: square"/>
   </g>
   <g id="patch_6">
    <path d="M 97.4 29.52 
L 635.29 29.52 
" style="fill: none; stroke: #000000; stroke-width: 0.8; stroke-linejoin: miter; stroke-linecap: square"/>
   </g>
  </g>
  <g id="axes_2">
   <g id="patch_7">
    <path d="M 97.4 575.08 
L 635.29 575.08 
L 635.29 338.76 
L 97.4 338.76 
z
" style="fill: #ffffff"/>
   </g>
   <g id="matplotlib.axis_3">
    <g id="xtick_8">
     <g id="line2d_14">
      <g>
       <use xlink:href="#mf8cbe08a5f" x="116.610357" y="575.08" style="stroke: #000000; stroke-width: 0.8"/>
      </g>
     </g>
     <g id="text_15">
      <!-- 0.00 -->
      <g transform="translate(94.344732 597.276875) scale(0.2 -0.2)">
       <use xlink:href="#DejaVuSans-30"/>
       <use xlink:href="#DejaVuSans-2e" x="63.623047"/>
       <use xlink:href="#DejaVuSans-30" x="95.410156"/>
       <use xlink:href="#DejaVuSans-30" x="159.033203"/>
      </g>
     </g>
    </g>
    <g id="xtick_9">
     <g id="line2d_15">
      <g>
       <use xlink:href="#mf8cbe08a5f" x="193.451786" y="575.08" style="stroke: #000000; stroke-width: 0.8"/>
      </g>
     </g>
     <g id="text_16">
      <!-- 0.02 -->
      <g transform="translate(171.186161 597.276875) scale(0.2 -0.2)">
       <use xlink:href="#DejaVuSans-30"/>
       <use xlink:href="#DejaVuSans-2e" x="63.623047"/>
       <use xlink:href="#DejaVuSans-30" x="95.410156"/>
       <use xlink:href="#DejaVuSans-32" x="159.033203"/>
      </g>
     </g>
    </g>
    <g id="xtick_10">
     <g id="line2d_16">
      <g>
       <use xlink:href="#mf8cbe08a5f" x="270.293214" y="575.08" style="stroke: #000000; stroke-width: 0.8"/>
      </g>
     </g>
     <g id="text_17">
      <!-- 0.04 -->
      <g transform="translate(248.027589 597.276875) scale(0.2 -0.2)">
       <use xlink:href="#DejaVuSans-30"/>
       <use xlink:href="#DejaVuSans-2e" x="63.623047"/>
       <use xlink:href="#DejaVuSans-30" x="95.410156"/>
       <use xlink:href="#DejaVuSans-34" x="159.033203"/>
      </g>
     </g>
    </g>
    <g id="xtick_11">
     <g id="line2d_17">
      <g>
       <use xlink:href="#mf8cbe08a5f" x="347.134643" y="575.08" style="stroke: #000000; stroke-width: 0.8"/>
      </g>
     </g>
     <g id="text_18">
      <!-- 0.06 -->
      <g transform="translate(324.869018 597.276875) scale(0.2 -0.2)">
       <use xlink:href="#DejaVuSans-30"/>
       <use xlink:href="#DejaVuSans-2e" x="63.623047"/>
       <use xlink:href="#DejaVuSans-30" x="95.410156"/>
       <use xlink:href="#DejaVuSans-36" x="159.033203"/>
      </g>
     </g>
    </g>
    <g id="xtick_12">
     <g id="line2d_18">
      <g>
       <use xlink:href="#mf8cbe08a5f" x="423.976071" y="575.08" style="stroke: #000000; stroke-width: 0.8"/>
      </g>
     </g>
     <g id="text_19">
      <!-- 0.08 -->
      <g transform="translate(401.710446 597.276875) scale(0.2 -0.2)">
       <use xlink:href="#DejaVuSans-30"/>
       <use xlink:href="#DejaVuSans-2e" x="63.623047"/>
       <use xlink:href="#DejaVuSans-30" x="95.410156"/>
       <use xlink:href="#DejaVuSans-38" x="159.033203"/>
      </g>
     </g>
    </g>
    <g id="xtick_13">
     <g id="line2d_19">
      <g>
       <use xlink:href="#mf8cbe08a5f" x="500.8175" y="575.08" style="stroke: #000000; stroke-width: 0.8"/>
      </g>
     </g>
     <g id="text_20">
      <!-- 0.10 -->
      <g transform="translate(478.551875 597.276875) scale(0.2 -0.2)">
       <use xlink:href="#DejaVuSans-30"/>
       <use xlink:href="#DejaVuSans-2e" x="63.623047"/>
       <use xlink:href="#DejaVuSans-31" x="95.410156"/>
       <use xlink:href="#DejaVuSans-30" x="159.033203"/>
      </g>
     </g>
    </g>
    <g id="xtick_14">
     <g id="line2d_20">
      <g>
       <use xlink:href="#mf8cbe08a5f" x="577.658929" y="575.08" style="stroke: #000000; stroke-width: 0.8"/>
      </g>
     </g>
     <g id="text_21">
      <!-- 0.12 -->
      <g transform="translate(555.393304 597.276875) scale(0.2 -0.2)">
       <use xlink:href="#DejaVuSans-30"/>
       <use xlink:href="#DejaVuSans-2e" x="63.623047"/>
       <use xlink:href="#DejaVuSans-31" x="95.410156"/>
       <use xlink:href="#DejaVuSans-32" x="159.033203"/>
      </g>
     </g>
    </g>
    <g id="text_22">
     <!-- Axial strain [-] -->
     <g transform="translate(295.649688 620.633125) scale(0.2 -0.2)">
      <use xlink:href="#DejaVuSans-41"/>
      <use xlink:href="#DejaVuSans-78" x="68.408203"/>
      <use xlink:href="#DejaVuSans-69" x="127.587891"/>
      <use xlink:href="#DejaVuSans-61" x="155.371094"/>
      <use xlink:href="#DejaVuSans-6c" x="216.650391"/>
      <use xlink:href="#DejaVuSans-20" x="244.433594"/>
      <use xlink:href="#DejaVuSans-73" x="276.220703"/>
      <use xlink:href="#DejaVuSans-74" x="328.320312"/>
      <use xlink:href="#DejaVuSans-72" x="367.529297"/>
      <use xlink:href="#DejaVuSans-61" x="408.642578"/>
      <use xlink:href="#DejaVuSans-69" x="469.921875"/>
      <use xlink:href="#DejaVuSans-6e" x="497.705078"/>
      <use xlink:href="#DejaVuSans-20" x="561.083984"/>
      <use xlink:href="#DejaVuSans-5b" x="592.871094"/>
      <use xlink:href="#DejaVuSans-2d" x="631.884766"/>
      <use xlink:href="#DejaVuSans-5d" x="667.96875"/>
     </g>
    </g>
   </g>
   <g id="matplotlib.axis_4">
    <g id="ytick_6">
     <g id="line2d_21">
      <g>
       <use xlink:href="#medde6faf83" x="97.4" y="544.255652" style="stroke: #000000; stroke-width: 0.8"/>
      </g>
     </g>
     <g id="text_23">
      <!-- 0.67 -->
      <g transform="translate(45.86875 551.85409) scale(0.2 -0.2)">
       <defs>
        <path id="DejaVuSans-37" d="M 525 4666 
L 3525 4666 
L 3525 4397 
L 1831 0 
L 1172 0 
L 2766 4134 
L 525 4134 
L 525 4666 
z
" transform="scale(0.015625)"/>
       </defs>
       <use xlink:href="#DejaVuSans-30"/>
       <use xlink:href="#DejaVuSans-2e" x="63.623047"/>
       <use xlink:href="#DejaVuSans-36" x="95.410156"/>
       <use xlink:href="#DejaVuSans-37" x="159.033203"/>
      </g>
     </g>
    </g>
    <g id="ytick_7">
     <g id="line2d_22">
      <g>
       <use xlink:href="#medde6faf83" x="97.4" y="482.606957" style="stroke: #000000; stroke-width: 0.8"/>
      </g>
     </g>
     <g id="text_24">
      <!-- 0.70 -->
      <g transform="translate(45.86875 490.205394) scale(0.2 -0.2)">
       <use xlink:href="#DejaVuSans-30"/>
       <use xlink:href="#DejaVuSans-2e" x="63.623047"/>
       <use xlink:href="#DejaVuSans-37" x="95.410156"/>
       <use xlink:href="#DejaVuSans-30" x="159.033203"/>
      </g>
     </g>
    </g>
    <g id="ytick_8">
     <g id="line2d_23">
      <g>
       <use xlink:href="#medde6faf83" x="97.4" y="420.958261" style="stroke: #000000; stroke-width: 0.8"/>
      </g>
     </g>
     <g id="text_25">
      <!-- 0.73 -->
      <g transform="translate(45.86875 428.556698) scale(0.2 -0.2)">
       <defs>
        <path id="DejaVuSans-33" d="M 2597 2516 
Q 3050 2419 3304 2112 
Q 3559 1806 3559 1356 
Q 3559 666 3084 287 
Q 2609 -91 1734 -91 
Q 1441 -91 1130 -33 
Q 819 25 488 141 
L 488 750 
Q 750 597 1062 519 
Q 1375 441 1716 441 
Q 2309 441 2620 675 
Q 2931 909 2931 1356 
Q 2931 1769 2642 2001 
Q 2353 2234 1838 2234 
L 1294 2234 
L 1294 2753 
L 1863 2753 
Q 2328 2753 2575 2939 
Q 2822 3125 2822 3475 
Q 2822 3834 2567 4026 
Q 2313 4219 1838 4219 
Q 1578 4219 1281 4162 
Q 984 4106 628 3988 
L 628 4550 
Q 988 4650 1302 4700 
Q 1616 4750 1894 4750 
Q 2613 4750 3031 4423 
Q 3450 4097 3450 3541 
Q 3450 3153 3228 2886 
Q 3006 2619 2597 2516 
z
" transform="scale(0.015625)"/>
       </defs>
       <use xlink:href="#DejaVuSans-30"/>
       <use xlink:href="#DejaVuSans-2e" x="63.623047"/>
       <use xlink:href="#DejaVuSans-37" x="95.410156"/>
       <use xlink:href="#DejaVuSans-33" x="159.033203"/>
      </g>
     </g>
    </g>
    <g id="ytick_9">
     <g id="line2d_24">
      <g>
       <use xlink:href="#medde6faf83" x="97.4" y="359.309565" style="stroke: #000000; stroke-width: 0.8"/>
      </g>
     </g>
     <g id="text_26">
      <!-- 0.76 -->
      <g transform="translate(45.86875 366.908003) scale(0.2 -0.2)">
       <use xlink:href="#DejaVuSans-30"/>
       <use xlink:href="#DejaVuSans-2e" x="63.623047"/>
       <use xlink:href="#DejaVuSans-37" x="95.410156"/>
       <use xlink:href="#DejaVuSans-36" x="159.033203"/>
      </g>
     </g>
    </g>
    <g id="text_27">
     <!-- Void ratio [-] -->
     <g transform="translate(37.709375 519.054375) rotate(-90) scale(0.2 -0.2)">
      <defs>
       <path id="DejaVuSans-56" d="M 1831 0 
L 50 4666 
L 709 4666 
L 2188 738 
L 3669 4666 
L 4325 4666 
L 2547 0 
L 1831 0 
z
" transform="scale(0.015625)"/>
       <path id="DejaVuSans-64" d="M 2906 2969 
L 2906 4863 
L 3481 4863 
L 3481 0 
L 2906 0 
L 2906 525 
Q 2725 213 2448 61 
Q 2172 -91 1784 -91 
Q 1150 -91 751 415 
Q 353 922 353 1747 
Q 353 2572 751 3078 
Q 1150 3584 1784 3584 
Q 2172 3584 2448 3432 
Q 2725 3281 2906 2969 
z
M 947 1747 
Q 947 1113 1208 752 
Q 1469 391 1925 391 
Q 2381 391 2643 752 
Q 2906 1113 2906 1747 
Q 2906 2381 2643 2742 
Q 2381 3103 1925 3103 
Q 1469 3103 1208 2742 
Q 947 2381 947 1747 
z
" transform="scale(0.015625)"/>
      </defs>
      <use xlink:href="#DejaVuSans-56"/>
      <use xlink:href="#DejaVuSans-6f" x="60.658203"/>
      <use xlink:href="#DejaVuSans-69" x="121.839844"/>
      <use xlink:href="#DejaVuSans-64" x="149.623047"/>
      <use xlink:href="#DejaVuSans-20" x="213.099609"/>
      <use xlink:href="#DejaVuSans-72" x="244.886719"/>
      <use xlink:href="#DejaVuSans-61" x="286"/>
      <use xlink:href="#DejaVuSans-74" x="347.279297"/>
      <use xlink:href="#DejaVuSans-69" x="386.488281"/>
      <use xlink:href="#DejaVuSans-6f" x="414.271484"/>
      <use xlink:href="#DejaVuSans-20" x="475.453125"/>
      <use xlink:href="#DejaVuSans-5b" x="507.240234"/>
      <use xlink:href="#DejaVuSans-2d" x="546.253906"/>
      <use xlink:href="#DejaVuSans-5d" x="582.337891"/>
     </g>
    </g>
   </g>
   <g id="line2d_25">
    <path d="M 116.610357 563.983235 
L 152.341621 566.860174 
L 150.804793 565.6272 
L 153.110036 565.421704 
L 222.267321 549.598539 
" clip-path="url(#p6b9a4a7b79)" style="fill: none; stroke: #000000; stroke-width: 3; stroke-linecap: square"/>
    <defs>
     <path id="m8eb6bf4df4" d="M 0 5 
C 1.326016 5 2.597899 4.473168 3.535534 3.535534 
C 4.473168 2.597899 5 1.326016 5 0 
C 5 -1.326016 4.473168 -2.597899 3.535534 -3.535534 
C 2.597899 -4.473168 1.326016 -5 0 -5 
C -1.326016 -5 -2.597899 -4.473168 -3.535534 -3.535534 
C -4.473168 -2.597899 -5 -1.326016 -5 0 
C -5 1.326016 -4.473168 2.597899 -3.535534 3.535534 
C -2.597899 4.473168 -1.326016 5 0 5 
z
" style="stroke: #000000"/>
    </defs>
    <g clip-path="url(#p6b9a4a7b79)">
     <use xlink:href="#m8eb6bf4df4" x="116.610357" y="563.983235" style="fill-opacity: 0; stroke: #000000"/>
     <use xlink:href="#m8eb6bf4df4" x="152.341621" y="566.860174" style="fill-opacity: 0; stroke: #000000"/>
     <use xlink:href="#m8eb6bf4df4" x="150.804793" y="565.6272" style="fill-opacity: 0; stroke: #000000"/>
     <use xlink:href="#m8eb6bf4df4" x="153.110036" y="565.421704" style="fill-opacity: 0; stroke: #000000"/>
     <use xlink:href="#m8eb6bf4df4" x="222.267321" y="549.598539" style="fill-opacity: 0; stroke: #000000"/>
    </g>
   </g>
   <g id="patch_8">
    <path d="M 97.4 575.08 
L 97.4 338.76 
" style="fill: none; stroke: #000000; stroke-width: 0.8; stroke-linejoin: miter; stroke-linecap: square"/>
   </g>
   <g id="patch_9">
    <path d="M 635.29 575.08 
L 635.29 338.76 
" style="fill: none; stroke: #000000; stroke-width: 0.8; stroke-linejoin: miter; stroke-linecap: square"/>
   </g>
   <g id="patch_10">
    <path d="M 97.4 575.08 
L 635.29 575.08 
" style="fill: none; stroke: #000000; stroke-width: 0.8; stroke-linejoin: miter; stroke-linecap: square"/>
   </g>
   <g id="patch_11">
    <path d="M 97.4 338.76 
L 635.29 338.76 
" style="fill: none; stroke: #000000; stroke-width: 0.8; stroke-linejoin: miter; stroke-linecap: square"/>
   </g>
  </g>
  <g id="axes_3">
   <g id="matplotlib.axis_5">
    <g id="ytick_10">
     <g id="line2d_26">
      <defs>
       <path id="m223fb84d1e" d="M 0 0 
L 3.5 0 
" style="stroke: #1f77b4; stroke-width: 0.8"/>
      </defs>
      <g>
       <use xlink:href="#m223fb84d1e" x="635.29" y="265.84" style="fill: #1f77b4; stroke: #1f77b4; stroke-width: 0.8"/>
      </g>
     </g>
     <g id="text_28">
      <!-- 0.0 -->
      <g style="fill: #1f77b4" transform="translate(642.29 273.438437) scale(0.2 -0.2)">
       <use xlink:href="#DejaVuSans-30"/>
       <use xlink:href="#DejaVuSans-2e" x="63.623047"/>
       <use xlink:href="#DejaVuSans-30" x="95.410156"/>
      </g>
     </g>
    </g>
    <g id="ytick_11">
     <g id="line2d_27">
      <g>
       <use xlink:href="#m223fb84d1e" x="635.29" y="211.513563" style="fill: #1f77b4; stroke: #1f77b4; stroke-width: 0.8"/>
      </g>
     </g>
     <g id="text_29">
      <!-- 0.2 -->
      <g style="fill: #1f77b4" transform="translate(642.29 219.112001) scale(0.2 -0.2)">
       <use xlink:href="#DejaVuSans-30"/>
       <use xlink:href="#DejaVuSans-2e" x="63.623047"/>
       <use xlink:href="#DejaVuSans-32" x="95.410156"/>
      </g>
     </g>
    </g>
    <g id="ytick_12">
     <g id="line2d_28">
      <g>
       <use xlink:href="#m223fb84d1e" x="635.29" y="157.187126" style="fill: #1f77b4; stroke: #1f77b4; stroke-width: 0.8"/>
      </g>
     </g>
     <g id="text_30">
      <!-- 0.4 -->
      <g style="fill: #1f77b4" transform="translate(642.29 164.785564) scale(0.2 -0.2)">
       <use xlink:href="#DejaVuSans-30"/>
       <use xlink:href="#DejaVuSans-2e" x="63.623047"/>
       <use xlink:href="#DejaVuSans-34" x="95.410156"/>
      </g>
     </g>
    </g>
    <g id="ytick_13">
     <g id="line2d_29">
      <g>
       <use xlink:href="#m223fb84d1e" x="635.29" y="102.86069" style="fill: #1f77b4; stroke: #1f77b4; stroke-width: 0.8"/>
      </g>
     </g>
     <g id="text_31">
      <!-- 0.6 -->
      <g style="fill: #1f77b4" transform="translate(642.29 110.459127) scale(0.2 -0.2)">
       <use xlink:href="#DejaVuSans-30"/>
       <use xlink:href="#DejaVuSans-2e" x="63.623047"/>
       <use xlink:href="#DejaVuSans-36" x="95.410156"/>
      </g>
     </g>
    </g>
    <g id="ytick_14">
     <g id="line2d_30">
      <g>
       <use xlink:href="#m223fb84d1e" x="635.29" y="48.534253" style="fill: #1f77b4; stroke: #1f77b4; stroke-width: 0.8"/>
      </g>
     </g>
     <g id="text_32">
      <!-- 0.8 -->
      <g style="fill: #1f77b4" transform="translate(642.29 56.13269) scale(0.2 -0.2)">
       <use xlink:href="#DejaVuSans-30"/>
       <use xlink:href="#DejaVuSans-2e" x="63.623047"/>
       <use xlink:href="#DejaVuSans-38" x="95.410156"/>
      </g>
     </g>
    </g>
    <g id="text_33">
     <!-- Fabric anisotropy [-] -->
     <g style="fill: #1f77b4" transform="translate(693.293125 247.914375) rotate(-90) scale(0.2 -0.2)">
      <defs>
       <path id="DejaVuSans-46" d="M 628 4666 
L 3309 4666 
L 3309 4134 
L 1259 4134 
L 1259 2759 
L 3109 2759 
L 3109 2228 
L 1259 2228 
L 1259 0 
L 628 0 
L 628 4666 
z
" transform="scale(0.015625)"/>
       <path id="DejaVuSans-62" d="M 3116 1747 
Q 3116 2381 2855 2742 
Q 2594 3103 2138 3103 
Q 1681 3103 1420 2742 
Q 1159 2381 1159 1747 
Q 1159 1113 1420 752 
Q 1681 391 2138 391 
Q 2594 391 2855 752 
Q 3116 1113 3116 1747 
z
M 1159 2969 
Q 1341 3281 1617 3432 
Q 1894 3584 2278 3584 
Q 2916 3584 3314 3078 
Q 3713 2572 3713 1747 
Q 3713 922 3314 415 
Q 2916 -91 2278 -91 
Q 1894 -91 1617 61 
Q 1341 213 1159 525 
L 1159 0 
L 581 0 
L 581 4863 
L 1159 4863 
L 1159 2969 
z
" transform="scale(0.015625)"/>
       <path id="DejaVuSans-63" d="M 3122 3366 
L 3122 2828 
Q 2878 2963 2633 3030 
Q 2388 3097 2138 3097 
Q 1578 3097 1268 2742 
Q 959 2388 959 1747 
Q 959 1106 1268 751 
Q 1578 397 2138 397 
Q 2388 397 2633 464 
Q 2878 531 3122 666 
L 3122 134 
Q 2881 22 2623 -34 
Q 2366 -91 2075 -91 
Q 1284 -91 818 406 
Q 353 903 353 1747 
Q 353 2603 823 3093 
Q 1294 3584 2113 3584 
Q 2378 3584 2631 3529 
Q 2884 3475 3122 3366 
z
" transform="scale(0.015625)"/>
       <path id="DejaVuSans-70" d="M 1159 525 
L 1159 -1331 
L 581 -1331 
L 581 3500 
L 1159 3500 
L 1159 2969 
Q 1341 3281 1617 3432 
Q 1894 3584 2278 3584 
Q 2916 3584 3314 3078 
Q 3713 2572 3713 1747 
Q 3713 922 3314 415 
Q 2916 -91 2278 -91 
Q 1894 -91 1617 61 
Q 1341 213 1159 525 
z
M 3116 1747 
Q 3116 2381 2855 2742 
Q 2594 3103 2138 3103 
Q 1681 3103 1420 2742 
Q 1159 2381 1159 1747 
Q 1159 1113 1420 752 
Q 1681 391 2138 391 
Q 2594 391 2855 752 
Q 3116 1113 3116 1747 
z
" transform="scale(0.015625)"/>
       <path id="DejaVuSans-79" d="M 2059 -325 
Q 1816 -950 1584 -1140 
Q 1353 -1331 966 -1331 
L 506 -1331 
L 506 -850 
L 844 -850 
Q 1081 -850 1212 -737 
Q 1344 -625 1503 -206 
L 1606 56 
L 191 3500 
L 800 3500 
L 1894 763 
L 2988 3500 
L 3597 3500 
L 2059 -325 
z
" transform="scale(0.015625)"/>
      </defs>
      <use xlink:href="#DejaVuSans-46"/>
      <use xlink:href="#DejaVuSans-61" x="48.394531"/>
      <use xlink:href="#DejaVuSans-62" x="109.673828"/>
      <use xlink:href="#DejaVuSans-72" x="173.150391"/>
      <use xlink:href="#DejaVuSans-69" x="214.263672"/>
      <use xlink:href="#DejaVuSans-63" x="242.046875"/>
      <use xlink:href="#DejaVuSans-20" x="297.027344"/>
      <use xlink:href="#DejaVuSans-61" x="328.814453"/>
      <use xlink:href="#DejaVuSans-6e" x="390.09375"/>
      <use xlink:href="#DejaVuSans-69" x="453.472656"/>
      <use xlink:href="#DejaVuSans-73" x="481.255859"/>
      <use xlink:href="#DejaVuSans-6f" x="533.355469"/>
      <use xlink:href="#DejaVuSans-74" x="594.537109"/>
      <use xlink:href="#DejaVuSans-72" x="633.746094"/>
      <use xlink:href="#DejaVuSans-6f" x="672.609375"/>
      <use xlink:href="#DejaVuSans-70" x="733.791016"/>
      <use xlink:href="#DejaVuSans-79" x="797.267578"/>
      <use xlink:href="#DejaVuSans-20" x="856.447266"/>
      <use xlink:href="#DejaVuSans-5b" x="888.234375"/>
      <use xlink:href="#DejaVuSans-2d" x="927.248047"/>
      <use xlink:href="#DejaVuSans-5d" x="963.332031"/>
     </g>
    </g>
   </g>
   <g id="line2d_31">
    <path d="M 116.610357 222.951886 
L 152.341621 200.056368 
L 150.804793 205.480276 
L 153.110036 203.691472 
L 222.267321 148.606184 
" clip-path="url(#p2a0180b079)" style="fill: none; stroke: #1f77b4; stroke-width: 3; stroke-linecap: square"/>
    <defs>
     <path id="m86504f7fa5" d="M -5 5 
L 5 -5 
M -5 -5 
L 5 5 
" style="stroke: #1f77b4"/>
    </defs>
    <g clip-path="url(#p2a0180b079)">
     <use xlink:href="#m86504f7fa5" x="116.610357" y="222.951886" style="fill-opacity: 0; stroke: #1f77b4"/>
     <use xlink:href="#m86504f7fa5" x="152.341621" y="200.056368" style="fill-opacity: 0; stroke: #1f77b4"/>
     <use xlink:href="#m86504f7fa5" x="150.804793" y="205.480276" style="fill-opacity: 0; stroke: #1f77b4"/>
     <use xlink:href="#m86504f7fa5" x="153.110036" y="203.691472" style="fill-opacity: 0; stroke: #1f77b4"/>
     <use xlink:href="#m86504f7fa5" x="222.267321" y="148.606184" style="fill-opacity: 0; stroke: #1f77b4"/>
    </g>
   </g>
   <g id="patch_12">
    <path d="M 97.4 265.84 
L 97.4 29.52 
" style="fill: none; stroke: #000000; stroke-width: 0.8; stroke-linejoin: miter; stroke-linecap: square"/>
   </g>
   <g id="patch_13">
    <path d="M 635.29 265.84 
L 635.29 29.52 
" style="fill: none; stroke: #000000; stroke-width: 0.8; stroke-linejoin: miter; stroke-linecap: square"/>
   </g>
   <g id="patch_14">
    <path d="M 97.4 265.84 
L 635.29 265.84 
" style="fill: none; stroke: #000000; stroke-width: 0.8; stroke-linejoin: miter; stroke-linecap: square"/>
   </g>
   <g id="patch_15">
    <path d="M 97.4 29.52 
L 635.29 29.52 
" style="fill: none; stroke: #000000; stroke-width: 0.8; stroke-linejoin: miter; stroke-linecap: square"/>
   </g>
  </g>
  <g id="axes_4">
   <g id="matplotlib.axis_6">
    <g id="ytick_15">
     <g id="line2d_32">
      <g>
       <use xlink:href="#m223fb84d1e" x="635.29" y="348.113966" style="fill: #1f77b4; stroke: #1f77b4; stroke-width: 0.8"/>
      </g>
     </g>
     <g id="text_34">
      <!-- 6.4 -->
      <g style="fill: #1f77b4" transform="translate(642.29 355.712403) scale(0.2 -0.2)">
       <use xlink:href="#DejaVuSans-36"/>
       <use xlink:href="#DejaVuSans-2e" x="63.623047"/>
       <use xlink:href="#DejaVuSans-34" x="95.410156"/>
      </g>
     </g>
    </g>
    <g id="ytick_16">
     <g id="line2d_33">
      <g>
       <use xlink:href="#m223fb84d1e" x="635.29" y="401.060941" style="fill: #1f77b4; stroke: #1f77b4; stroke-width: 0.8"/>
      </g>
     </g>
     <g id="text_35">
      <!-- 6.7 -->
      <g style="fill: #1f77b4" transform="translate(642.29 408.659379) scale(0.2 -0.2)">
       <use xlink:href="#DejaVuSans-36"/>
       <use xlink:href="#DejaVuSans-2e" x="63.623047"/>
       <use xlink:href="#DejaVuSans-37" x="95.410156"/>
      </g>
     </g>
    </g>
    <g id="ytick_17">
     <g id="line2d_34">
      <g>
       <use xlink:href="#m223fb84d1e" x="635.29" y="454.007916" style="fill: #1f77b4; stroke: #1f77b4; stroke-width: 0.8"/>
      </g>
     </g>
     <g id="text_36">
      <!-- 7.0 -->
      <g style="fill: #1f77b4" transform="translate(642.29 461.606354) scale(0.2 -0.2)">
       <use xlink:href="#DejaVuSans-37"/>
       <use xlink:href="#DejaVuSans-2e" x="63.623047"/>
       <use xlink:href="#DejaVuSans-30" x="95.410156"/>
      </g>
     </g>
    </g>
    <g id="ytick_18">
     <g id="line2d_35">
      <g>
       <use xlink:href="#m223fb84d1e" x="635.29" y="506.954892" style="fill: #1f77b4; stroke: #1f77b4; stroke-width: 0.8"/>
      </g>
     </g>
     <g id="text_37">
      <!-- 7.3 -->
      <g style="fill: #1f77b4" transform="translate(642.29 514.553329) scale(0.2 -0.2)">
       <use xlink:href="#DejaVuSans-37"/>
       <use xlink:href="#DejaVuSans-2e" x="63.623047"/>
       <use xlink:href="#DejaVuSans-33" x="95.410156"/>
      </g>
     </g>
    </g>
    <g id="ytick_19">
     <g id="line2d_36">
      <g>
       <use xlink:href="#m223fb84d1e" x="635.29" y="559.901867" style="fill: #1f77b4; stroke: #1f77b4; stroke-width: 0.8"/>
      </g>
     </g>
     <g id="text_38">
      <!-- 7.6 -->
      <g style="fill: #1f77b4" transform="translate(642.29 567.500305) scale(0.2 -0.2)">
       <use xlink:href="#DejaVuSans-37"/>
       <use xlink:href="#DejaVuSans-2e" x="63.623047"/>
       <use xlink:href="#DejaVuSans-36" x="95.410156"/>
      </g>
     </g>
    </g>
    <g id="text_39">
     <!-- Coordination number [-] -->
     <g style="fill: #1f77b4" transform="translate(693.293125 577.618438) rotate(-90) scale(0.2 -0.2)">
      <defs>
       <path id="DejaVuSans-43" d="M 4122 4306 
L 4122 3641 
Q 3803 3938 3442 4084 
Q 3081 4231 2675 4231 
Q 1875 4231 1450 3742 
Q 1025 3253 1025 2328 
Q 1025 1406 1450 917 
Q 1875 428 2675 428 
Q 3081 428 3442 575 
Q 3803 722 4122 1019 
L 4122 359 
Q 3791 134 3420 21 
Q 3050 -91 2638 -91 
Q 1578 -91 968 557 
Q 359 1206 359 2328 
Q 359 3453 968 4101 
Q 1578 4750 2638 4750 
Q 3056 4750 3426 4639 
Q 3797 4528 4122 4306 
z
" transform="scale(0.015625)"/>
       <path id="DejaVuSans-75" d="M 544 1381 
L 544 3500 
L 1119 3500 
L 1119 1403 
Q 1119 906 1312 657 
Q 1506 409 1894 409 
Q 2359 409 2629 706 
Q 2900 1003 2900 1516 
L 2900 3500 
L 3475 3500 
L 3475 0 
L 2900 0 
L 2900 538 
Q 2691 219 2414 64 
Q 2138 -91 1772 -91 
Q 1169 -91 856 284 
Q 544 659 544 1381 
z
M 1991 3584 
L 1991 3584 
z
" transform="scale(0.015625)"/>
       <path id="DejaVuSans-6d" d="M 3328 2828 
Q 3544 3216 3844 3400 
Q 4144 3584 4550 3584 
Q 5097 3584 5394 3201 
Q 5691 2819 5691 2113 
L 5691 0 
L 5113 0 
L 5113 2094 
Q 5113 2597 4934 2840 
Q 4756 3084 4391 3084 
Q 3944 3084 3684 2787 
Q 3425 2491 3425 1978 
L 3425 0 
L 2847 0 
L 2847 2094 
Q 2847 2600 2669 2842 
Q 2491 3084 2119 3084 
Q 1678 3084 1418 2786 
Q 1159 2488 1159 1978 
L 1159 0 
L 581 0 
L 581 3500 
L 1159 3500 
L 1159 2956 
Q 1356 3278 1631 3431 
Q 1906 3584 2284 3584 
Q 2666 3584 2933 3390 
Q 3200 3197 3328 2828 
z
" transform="scale(0.015625)"/>
      </defs>
      <use xlink:href="#DejaVuSans-43"/>
      <use xlink:href="#DejaVuSans-6f" x="69.824219"/>
      <use xlink:href="#DejaVuSans-6f" x="131.005859"/>
      <use xlink:href="#DejaVuSans-72" x="192.1875"/>
      <use xlink:href="#DejaVuSans-64" x="231.550781"/>
      <use xlink:href="#DejaVuSans-69" x="295.027344"/>
      <use xlink:href="#DejaVuSans-6e" x="322.810547"/>
      <use xlink:href="#DejaVuSans-61" x="386.189453"/>
      <use xlink:href="#DejaVuSans-74" x="447.46875"/>
      <use xlink:href="#DejaVuSans-69" x="486.677734"/>
      <use xlink:href="#DejaVuSans-6f" x="514.460938"/>
      <use xlink:href="#DejaVuSans-6e" x="575.642578"/>
      <use xlink:href="#DejaVuSans-20" x="639.021484"/>
      <use xlink:href="#DejaVuSans-6e" x="670.808594"/>
      <use xlink:href="#DejaVuSans-75" x="734.1875"/>
      <use xlink:href="#DejaVuSans-6d" x="797.566406"/>
      <use xlink:href="#DejaVuSans-62" x="894.978516"/>
      <use xlink:href="#DejaVuSans-65" x="958.455078"/>
      <use xlink:href="#DejaVuSans-72" x="1019.978516"/>
      <use xlink:href="#DejaVuSans-20" x="1061.091797"/>
      <use xlink:href="#DejaVuSans-5b" x="1092.878906"/>
      <use xlink:href="#DejaVuSans-2d" x="1131.892578"/>
      <use xlink:href="#DejaVuSans-5d" x="1167.976562"/>
     </g>
    </g>
   </g>
   <g id="line2d_37">
    <path d="M 116.610357 561.65058 
L 152.341621 564.779106 
L 150.804793 563.707687 
L 153.110036 564.479253 
L 222.267321 530.259988 
" clip-path="url(#p6b9a4a7b79)" style="fill: none; stroke: #1f77b4; stroke-width: 3; stroke-linecap: square"/>
    <g clip-path="url(#p6b9a4a7b79)">
     <use xlink:href="#m86504f7fa5" x="116.610357" y="561.65058" style="fill-opacity: 0; stroke: #1f77b4"/>
     <use xlink:href="#m86504f7fa5" x="152.341621" y="564.779106" style="fill-opacity: 0; stroke: #1f77b4"/>
     <use xlink:href="#m86504f7fa5" x="150.804793" y="563.707687" style="fill-opacity: 0; stroke: #1f77b4"/>
     <use xlink:href="#m86504f7fa5" x="153.110036" y="564.479253" style="fill-opacity: 0; stroke: #1f77b4"/>
     <use xlink:href="#m86504f7fa5" x="222.267321" y="530.259988" style="fill-opacity: 0; stroke: #1f77b4"/>
    </g>
   </g>
   <g id="patch_16">
    <path d="M 97.4 575.08 
L 97.4 338.76 
" style="fill: none; stroke: #000000; stroke-width: 0.8; stroke-linejoin: miter; stroke-linecap: square"/>
   </g>
   <g id="patch_17">
    <path d="M 635.29 575.08 
L 635.29 338.76 
" style="fill: none; stroke: #000000; stroke-width: 0.8; stroke-linejoin: miter; stroke-linecap: square"/>
   </g>
   <g id="patch_18">
    <path d="M 97.4 575.08 
L 635.29 575.08 
" style="fill: none; stroke: #000000; stroke-width: 0.8; stroke-linejoin: miter; stroke-linecap: square"/>
   </g>
   <g id="patch_19">
    <path d="M 97.4 338.76 
L 635.29 338.76 
" style="fill: none; stroke: #000000; stroke-width: 0.8; stroke-linejoin: miter; stroke-linecap: square"/>
   </g>
  </g>
 </g>
 <defs>
  <clipPath id="p2a0180b079">
   <rect x="97.4" y="29.52" width="537.89" height="236.32"/>
  </clipPath>
  <clipPath id="p6b9a4a7b79">
   <rect x="97.4" y="338.76" width="537.89" height="236.32"/>
  </clipPath>
 </defs>
</svg>
