<?xml version="1.0" encoding="utf-8" standalone="no"?>
<!DOCTYPE svg PUBLIC "-//W3C//DTD SVG 1.1//EN"
  "http://www.w3.org/Graphics/SVG/1.1/DTD/svg11.dtd">
<svg xmlns:xlink="http://www.w3.org/1999/xlink" width="576pt" height="707.04pt" viewBox="0 0 576 707.04" xmlns="http://www.w3.org/2000/svg" version="1.1">
 <metadata>
  <rdf:RDF xmlns:dc="http://purl.org/dc/elements/1.1/" xmlns:cc="http://creativecommons.org/ns#" xmlns:rdf="http://www.w3.org/1999/02/22-rdf-syntax-ns#">
   <cc:Work>
    <dc:type rdf:resource="http://purl.org/dc/dcmitype/StillImage"/>
    <dc:date>2023-10-23T21:57:55.628672</dc:date>
    <dc:format>image/svg+xml</dc:format>
    <dc:creator>
     <cc:Agent>
      <dc:title>Matplotlib v3.7.2, https://matplotlib.org/</dc:title>
     </cc:Agent>
    </dc:creator>
   </cc:Work>
  </rdf:RDF>
 </metadata>
 <defs>
  <style type="text/css">*{stroke-linejoin: round; stroke-linecap: butt}</style>
 </defs>
 <g id="figure_1">
  <g id="patch_1">
   <path d="M 0 707.04 
L 576 707.04 
L 576 0 
L 0 0 
z
" style="fill: #ffffff"/>
  </g>
  <g id="axes_1">
   <g id="patch_2">
    <path d="M 76.43 214.403333 
L 556.56 214.403333 
L 556.56 19.09008 
L 76.43 19.09008 
z
" style="fill: #ffffff"/>
   </g>
   <g id="PolyCollection_1">
    <path d="M 83.596119 135.33514 
L 83.596119 166.955683 
L 116.918575 166.248514 
L 115.485351 166.08014 
L 117.635187 166.046466 
L 182.130261 165.844418 
L 181.055343 165.507671 
L 184.638403 165.440321 
L 180.697037 164.968875 
L 187.863157 164.935201 
L 331.185545 198.744598 
L 455.876022 204.974418 
L 550.110493 206.35508 
L 550.110493 27.306707 
L 550.110493 27.306707 
L 455.876022 43.10014 
L 331.185545 91.82743 
L 187.863157 131.159478 
L 180.697037 131.395201 
L 184.638403 131.529899 
L 181.055343 131.193152 
L 182.130261 131.630924 
L 117.635187 134.089177 
L 115.485351 134.291225 
L 116.918575 134.324899 
L 83.596119 135.33514 
z
" clip-path="url(#p72325c4c42)" style="fill: #1f77b4; fill-opacity: 0.2"/>
   </g>
   <g id="PolyCollection_2">
    <defs>
     <path id="m84816da9fe" d="M 83.596119 -561.338296 
L 83.596119 -552.033592 
L 116.918575 -551.35687 
L 115.485351 -551.530446 
L 117.635187 -551.476358 
L 182.130261 -554.097709 
L 181.055343 -554.286741 
L 184.638403 -554.373701 
L 180.697037 -554.364411 
L 187.863157 -554.474059 
L 331.185545 -546.419589 
L 455.876022 -547.884238 
L 550.110493 -549.834914 
L 550.110493 -631.290468 
L 550.110493 -631.290468 
L 455.876022 -616.87524 
L 331.185545 -593.016515 
L 187.863157 -564.689877 
L 180.697037 -564.462778 
L 184.638403 -564.588187 
L 181.055343 -564.40575 
L 182.130261 -564.190685 
L 117.635187 -560.885289 
L 115.485351 -560.898551 
L 116.918575 -560.735379 
L 83.596119 -561.338296 
z
" style="stroke: #1f77b4; stroke-opacity: 0.4"/>
    </defs>
    <g clip-path="url(#p72325c4c42)">
     <use xlink:href="#m84816da9fe" x="0" y="707.04" style="fill: #1f77b4; fill-opacity: 0.4; stroke: #1f77b4; stroke-opacity: 0.4"/>
    </g>
   </g>
   <g id="matplotlib.axis_1"/>
   <g id="matplotlib.axis_2">
    <g id="ytick_1">
     <g id="line2d_1">
      <defs>
       <path id="m4e70ad830f" d="M 0 0 
L -3.5 0 
" style="stroke: #000000; stroke-width: 0.8"/>
      </defs>
      <g>
       <use xlink:href="#m4e70ad830f" x="76.43" y="170.626225" style="stroke: #000000; stroke-width: 0.8"/>
      </g>
     </g>
     <g id="text_1">
      <!-- 0.6 -->
      <g transform="translate(40.804375 177.464819) scale(0.18 -0.18)">
       <defs>
        <path id="DejaVuSans-30" d="M 2034 4250 
Q 1547 4250 1301 3770 
Q 1056 3291 1056 2328 
Q 1056 1369 1301 889 
Q 1547 409 2034 409 
Q 2525 409 2770 889 
Q 3016 1369 3016 2328 
Q 3016 3291 2770 3770 
Q 2525 4250 2034 4250 
z
M 2034 4750 
Q 2819 4750 3233 4129 
Q 3647 3509 3647 2328 
Q 3647 1150 3233 529 
Q 2819 -91 2034 -91 
Q 1250 -91 836 529 
Q 422 1150 422 2328 
Q 422 3509 836 4129 
Q 1250 4750 2034 4750 
z
" transform="scale(0.015625)"/>
        <path id="DejaVuSans-2e" d="M 684 794 
L 1344 794 
L 1344 0 
L 684 0 
L 684 794 
z
" transform="scale(0.015625)"/>
        <path id="DejaVuSans-36" d="M 2113 2584 
Q 1688 2584 1439 2293 
Q 1191 2003 1191 1497 
Q 1191 994 1439 701 
Q 1688 409 2113 409 
Q 2538 409 2786 701 
Q 3034 994 3034 1497 
Q 3034 2003 2786 2293 
Q 2538 2584 2113 2584 
z
M 3366 4563 
L 3366 3988 
Q 3128 4100 2886 4159 
Q 2644 4219 2406 4219 
Q 1781 4219 1451 3797 
Q 1122 3375 1075 2522 
Q 1259 2794 1537 2939 
Q 1816 3084 2150 3084 
Q 2853 3084 3261 2657 
Q 3669 2231 3669 1497 
Q 3669 778 3244 343 
Q 2819 -91 2113 -91 
Q 1303 -91 875 529 
Q 447 1150 447 2328 
Q 447 3434 972 4092 
Q 1497 4750 2381 4750 
Q 2619 4750 2861 4703 
Q 3103 4656 3366 4563 
z
" transform="scale(0.015625)"/>
       </defs>
       <use xlink:href="#DejaVuSans-30"/>
       <use xlink:href="#DejaVuSans-2e" x="63.623047"/>
       <use xlink:href="#DejaVuSans-36" x="95.410156"/>
      </g>
     </g>
    </g>
    <g id="ytick_2">
     <g id="line2d_2">
      <g>
       <use xlink:href="#m4e70ad830f" x="76.43" y="103.276827" style="stroke: #000000; stroke-width: 0.8"/>
      </g>
     </g>
     <g id="text_2">
      <!-- 0.8 -->
      <g transform="translate(40.804375 110.115421) scale(0.18 -0.18)">
       <defs>
        <path id="DejaVuSans-38" d="M 2034 2216 
Q 1584 2216 1326 1975 
Q 1069 1734 1069 1313 
Q 1069 891 1326 650 
Q 1584 409 2034 409 
Q 2484 409 2743 651 
Q 3003 894 3003 1313 
Q 3003 1734 2745 1975 
Q 2488 2216 2034 2216 
z
M 1403 2484 
Q 997 2584 770 2862 
Q 544 3141 544 3541 
Q 544 4100 942 4425 
Q 1341 4750 2034 4750 
Q 2731 4750 3128 4425 
Q 3525 4100 3525 3541 
Q 3525 3141 3298 2862 
Q 3072 2584 2669 2484 
Q 3125 2378 3379 2068 
Q 3634 1759 3634 1313 
Q 3634 634 3220 271 
Q 2806 -91 2034 -91 
Q 1263 -91 848 271 
Q 434 634 434 1313 
Q 434 1759 690 2068 
Q 947 2378 1403 2484 
z
M 1172 3481 
Q 1172 3119 1398 2916 
Q 1625 2713 2034 2713 
Q 2441 2713 2670 2916 
Q 2900 3119 2900 3481 
Q 2900 3844 2670 4047 
Q 2441 4250 2034 4250 
Q 1625 4250 1398 4047 
Q 1172 3844 1172 3481 
z
" transform="scale(0.015625)"/>
       </defs>
       <use xlink:href="#DejaVuSans-30"/>
       <use xlink:href="#DejaVuSans-2e" x="63.623047"/>
       <use xlink:href="#DejaVuSans-38" x="95.410156"/>
      </g>
     </g>
    </g>
    <g id="ytick_3">
     <g id="line2d_3">
      <g>
       <use xlink:href="#m4e70ad830f" x="76.43" y="35.927429" style="stroke: #000000; stroke-width: 0.8"/>
      </g>
     </g>
     <g id="text_3">
      <!-- 1.0 -->
      <g transform="translate(40.804375 42.766023) scale(0.18 -0.18)">
       <defs>
        <path id="DejaVuSans-31" d="M 794 531 
L 1825 531 
L 1825 4091 
L 703 3866 
L 703 4441 
L 1819 4666 
L 2450 4666 
L 2450 531 
L 3481 531 
L 3481 0 
L 794 0 
L 794 531 
z
" transform="scale(0.015625)"/>
       </defs>
       <use xlink:href="#DejaVuSans-31"/>
       <use xlink:href="#DejaVuSans-2e" x="63.623047"/>
       <use xlink:href="#DejaVuSans-30" x="95.410156"/>
      </g>
     </g>
    </g>
    <g id="text_4">
     <!-- Void ratio [-] -->
     <g transform="translate(33.060938 172.667644) rotate(-90) scale(0.18 -0.18)">
      <defs>
       <path id="DejaVuSans-56" d="M 1831 0 
L 50 4666 
L 709 4666 
L 2188 738 
L 3669 4666 
L 4325 4666 
L 2547 0 
L 1831 0 
z
" transform="scale(0.015625)"/>
       <path id="DejaVuSans-6f" d="M 1959 3097 
Q 1497 3097 1228 2736 
Q 959 2375 959 1747 
Q 959 1119 1226 758 
Q 1494 397 1959 397 
Q 2419 397 2687 759 
Q 2956 1122 2956 1747 
Q 2956 2369 2687 2733 
Q 2419 3097 1959 3097 
z
M 1959 3584 
Q 2709 3584 3137 3096 
Q 3566 2609 3566 1747 
Q 3566 888 3137 398 
Q 2709 -91 1959 -91 
Q 1206 -91 779 398 
Q 353 888 353 1747 
Q 353 2609 779 3096 
Q 1206 3584 1959 3584 
z
" transform="scale(0.015625)"/>
       <path id="DejaVuSans-69" d="M 603 3500 
L 1178 3500 
L 1178 0 
L 603 0 
L 603 3500 
z
M 603 4863 
L 1178 4863 
L 1178 4134 
L 603 4134 
L 603 4863 
z
" transform="scale(0.015625)"/>
       <path id="DejaVuSans-64" d="M 2906 2969 
L 2906 4863 
L 3481 4863 
L 3481 0 
L 2906 0 
L 2906 525 
Q 2725 213 2448 61 
Q 2172 -91 1784 -91 
Q 1150 -91 751 415 
Q 353 922 353 1747 
Q 353 2572 751 3078 
Q 1150 3584 1784 3584 
Q 2172 3584 2448 3432 
Q 2725 3281 2906 2969 
z
M 947 1747 
Q 947 1113 1208 752 
Q 1469 391 1925 391 
Q 2381 391 2643 752 
Q 2906 1113 2906 1747 
Q 2906 2381 2643 2742 
Q 2381 3103 1925 3103 
Q 1469 3103 1208 2742 
Q 947 2381 947 1747 
z
" transform="scale(0.015625)"/>
       <path id="DejaVuSans-20" transform="scale(0.015625)"/>
       <path id="DejaVuSans-72" d="M 2631 2963 
Q 2534 3019 2420 3045 
Q 2306 3072 2169 3072 
Q 1681 3072 1420 2755 
Q 1159 2438 1159 1844 
L 1159 0 
L 581 0 
L 581 3500 
L 1159 3500 
L 1159 2956 
Q 1341 3275 1631 3429 
Q 1922 3584 2338 3584 
Q 2397 3584 2469 3576 
Q 2541 3569 2628 3553 
L 2631 2963 
z
" transform="scale(0.015625)"/>
       <path id="DejaVuSans-61" d="M 2194 1759 
Q 1497 1759 1228 1600 
Q 959 1441 959 1056 
Q 959 750 1161 570 
Q 1363 391 1709 391 
Q 2188 391 2477 730 
Q 2766 1069 2766 1631 
L 2766 1759 
L 2194 1759 
z
M 3341 1997 
L 3341 0 
L 2766 0 
L 2766 531 
Q 2569 213 2275 61 
Q 1981 -91 1556 -91 
Q 1019 -91 701 211 
Q 384 513 384 1019 
Q 384 1609 779 1909 
Q 1175 2209 1959 2209 
L 2766 2209 
L 2766 2266 
Q 2766 2663 2505 2880 
Q 2244 3097 1772 3097 
Q 1472 3097 1187 3025 
Q 903 2953 641 2809 
L 641 3341 
Q 956 3463 1253 3523 
Q 1550 3584 1831 3584 
Q 2591 3584 2966 3190 
Q 3341 2797 3341 1997 
z
" transform="scale(0.015625)"/>
       <path id="DejaVuSans-74" d="M 1172 4494 
L 1172 3500 
L 2356 3500 
L 2356 3053 
L 1172 3053 
L 1172 1153 
Q 1172 725 1289 603 
Q 1406 481 1766 481 
L 2356 481 
L 2356 0 
L 1766 0 
Q 1100 0 847 248 
Q 594 497 594 1153 
L 594 3053 
L 172 3053 
L 172 3500 
L 594 3500 
L 594 4494 
L 1172 4494 
z
" transform="scale(0.015625)"/>
       <path id="DejaVuSans-5b" d="M 550 4863 
L 1875 4863 
L 1875 4416 
L 1125 4416 
L 1125 -397 
L 1875 -397 
L 1875 -844 
L 550 -844 
L 550 4863 
z
" transform="scale(0.015625)"/>
       <path id="DejaVuSans-2d" d="M 313 2009 
L 1997 2009 
L 1997 1497 
L 313 1497 
L 313 2009 
z
" transform="scale(0.015625)"/>
       <path id="DejaVuSans-5d" d="M 1947 4863 
L 1947 -844 
L 622 -844 
L 622 -397 
L 1369 -397 
L 1369 4416 
L 622 4416 
L 622 4863 
L 1947 4863 
z
" transform="scale(0.015625)"/>
      </defs>
      <use xlink:href="#DejaVuSans-56"/>
      <use xlink:href="#DejaVuSans-6f" x="60.658203"/>
      <use xlink:href="#DejaVuSans-69" x="121.839844"/>
      <use xlink:href="#DejaVuSans-64" x="149.623047"/>
      <use xlink:href="#DejaVuSans-20" x="213.099609"/>
      <use xlink:href="#DejaVuSans-72" x="244.886719"/>
      <use xlink:href="#DejaVuSans-61" x="286"/>
      <use xlink:href="#DejaVuSans-74" x="347.279297"/>
      <use xlink:href="#DejaVuSans-69" x="386.488281"/>
      <use xlink:href="#DejaVuSans-6f" x="414.271484"/>
      <use xlink:href="#DejaVuSans-20" x="475.453125"/>
      <use xlink:href="#DejaVuSans-5b" x="507.240234"/>
      <use xlink:href="#DejaVuSans-2d" x="546.253906"/>
      <use xlink:href="#DejaVuSans-5d" x="582.337891"/>
     </g>
    </g>
   </g>
   <g id="line2d_4">
    <path d="M 83.596119 150.354056 
L 116.918575 150.993875 
L 115.485351 150.825502 
L 117.635187 150.859177 
L 182.130261 147.895803 
L 181.055343 147.693755 
L 184.638403 147.559056 
L 180.697037 147.626406 
L 187.863157 147.458032 
L 331.185545 137.321948 
L 455.876022 124.660261 
L 550.110493 116.477309 
" clip-path="url(#p72325c4c42)" style="fill: none; stroke: #1f77b4; stroke-width: 2; stroke-linecap: square"/>
    <defs>
     <path id="m1252608a59" d="M -3 3 
L 3 -3 
M -3 -3 
L 3 3 
" style="stroke: #1f77b4"/>
    </defs>
    <g clip-path="url(#p72325c4c42)">
     <use xlink:href="#m1252608a59" x="83.596119" y="150.354056" style="fill: #1f77b4; stroke: #1f77b4"/>
     <use xlink:href="#m1252608a59" x="116.918575" y="150.993875" style="fill: #1f77b4; stroke: #1f77b4"/>
     <use xlink:href="#m1252608a59" x="115.485351" y="150.825502" style="fill: #1f77b4; stroke: #1f77b4"/>
     <use xlink:href="#m1252608a59" x="117.635187" y="150.859177" style="fill: #1f77b4; stroke: #1f77b4"/>
     <use xlink:href="#m1252608a59" x="182.130261" y="147.895803" style="fill: #1f77b4; stroke: #1f77b4"/>
     <use xlink:href="#m1252608a59" x="181.055343" y="147.693755" style="fill: #1f77b4; stroke: #1f77b4"/>
     <use xlink:href="#m1252608a59" x="184.638403" y="147.559056" style="fill: #1f77b4; stroke: #1f77b4"/>
     <use xlink:href="#m1252608a59" x="180.697037" y="147.626406" style="fill: #1f77b4; stroke: #1f77b4"/>
     <use xlink:href="#m1252608a59" x="187.863157" y="147.458032" style="fill: #1f77b4; stroke: #1f77b4"/>
     <use xlink:href="#m1252608a59" x="331.185545" y="137.321948" style="fill: #1f77b4; stroke: #1f77b4"/>
     <use xlink:href="#m1252608a59" x="455.876022" y="124.660261" style="fill: #1f77b4; stroke: #1f77b4"/>
     <use xlink:href="#m1252608a59" x="550.110493" y="116.477309" style="fill: #1f77b4; stroke: #1f77b4"/>
    </g>
   </g>
   <g id="patch_3">
    <path d="M 76.43 214.403333 
L 76.43 19.09008 
" style="fill: none; stroke: #000000; stroke-width: 0.8; stroke-linejoin: miter; stroke-linecap: square"/>
   </g>
   <g id="patch_4">
    <path d="M 556.56 214.403333 
L 556.56 19.09008 
" style="fill: none; stroke: #000000; stroke-width: 0.8; stroke-linejoin: miter; stroke-linecap: square"/>
   </g>
   <g id="patch_5">
    <path d="M 76.43 214.403333 
L 556.56 214.403333 
" style="fill: none; stroke: #000000; stroke-width: 0.8; stroke-linejoin: miter; stroke-linecap: square"/>
   </g>
   <g id="patch_6">
    <path d="M 76.43 19.09008 
L 556.56 19.09008 
" style="fill: none; stroke: #000000; stroke-width: 0.8; stroke-linejoin: miter; stroke-linecap: square"/>
   </g>
  </g>
  <g id="axes_2">
   <g id="patch_7">
    <path d="M 76.43 428.806667 
L 556.56 428.806667 
L 556.56 233.493413 
L 76.43 233.493413 
z
" style="fill: #ffffff"/>
   </g>
   <g id="PolyCollection_3">
    <path d="M 83.596119 270.121159 
L 83.596119 330.624864 
L 116.918575 324.500709 
L 115.485351 324.735085 
L 117.635187 322.59532 
L 182.130261 339.357537 
L 181.055343 339.088439 
L 184.638403 336.848847 
L 180.697037 340.169172 
L 187.863157 339.457364 
L 331.185545 392.59993 
L 455.876022 416.614779 
L 550.110493 421.172089 
L 550.110493 241.644486 
L 550.110493 241.644486 
L 455.876022 242.525566 
L 331.185545 250.129762 
L 187.863157 273.849472 
L 180.697037 271.714047 
L 184.638403 277.082991 
L 181.055343 274.656767 
L 182.130261 277.421534 
L 117.635187 271.566477 
L 115.485351 266.952744 
L 116.918575 268.9623 
L 83.596119 270.121159 
z
" clip-path="url(#p6622c4a6b2)" style="fill: #1f77b4; fill-opacity: 0.2"/>
   </g>
   <g id="PolyCollection_4">
    <defs>
     <path id="m5d8388dd41" d="M 83.596119 -417.99555 
L 83.596119 -401.553728 
L 116.918575 -402.726198 
L 115.485351 -402.472024 
L 117.635187 -402.864085 
L 182.130261 -390.796492 
L 181.055343 -390.825883 
L 184.638403 -390.046535 
L 180.697037 -390.301443 
L 187.863157 -389.306577 
L 331.185545 -334.082512 
L 455.876022 -318.834987 
L 550.110493 -314.647172 
L 550.110493 -384.172474 
L 550.110493 -384.172474 
L 455.876022 -386.633991 
L 331.185545 -393.539329 
L 187.863157 -409.565538 
L 180.697037 -410.792903 
L 184.638403 -410.422809 
L 181.055343 -411.284092 
L 182.130261 -411.244039 
L 117.635187 -418.933466 
L 115.485351 -418.492191 
L 116.918575 -418.515796 
L 83.596119 -417.99555 
z
" style="stroke: #1f77b4; stroke-opacity: 0.4"/>
    </defs>
    <g clip-path="url(#p6622c4a6b2)">
     <use xlink:href="#m5d8388dd41" x="0" y="707.04" style="fill: #1f77b4; fill-opacity: 0.4; stroke: #1f77b4; stroke-opacity: 0.4"/>
    </g>
   </g>
   <g id="matplotlib.axis_3"/>
   <g id="matplotlib.axis_4">
    <g id="ytick_4">
     <g id="line2d_5">
      <g>
       <use xlink:href="#m4e70ad830f" x="76.43" y="394.084311" style="stroke: #000000; stroke-width: 0.8"/>
      </g>
     </g>
     <g id="text_5">
      <!-- 6 -->
      <g transform="translate(57.9775 400.922904) scale(0.18 -0.18)">
       <use xlink:href="#DejaVuSans-36"/>
      </g>
     </g>
    </g>
    <g id="ytick_5">
     <g id="line2d_6">
      <g>
       <use xlink:href="#m4e70ad830f" x="76.43" y="350.681365" style="stroke: #000000; stroke-width: 0.8"/>
      </g>
     </g>
     <g id="text_6">
      <!-- 7 -->
      <g transform="translate(57.9775 357.519959) scale(0.18 -0.18)">
       <defs>
        <path id="DejaVuSans-37" d="M 525 4666 
L 3525 4666 
L 3525 4397 
L 1831 0 
L 1172 0 
L 2766 4134 
L 525 4134 
L 525 4666 
z
" transform="scale(0.015625)"/>
       </defs>
       <use xlink:href="#DejaVuSans-37"/>
      </g>
     </g>
    </g>
    <g id="ytick_6">
     <g id="line2d_7">
      <g>
       <use xlink:href="#m4e70ad830f" x="76.43" y="307.27842" style="stroke: #000000; stroke-width: 0.8"/>
      </g>
     </g>
     <g id="text_7">
      <!-- 8 -->
      <g transform="translate(57.9775 314.117014) scale(0.18 -0.18)">
       <use xlink:href="#DejaVuSans-38"/>
      </g>
     </g>
    </g>
    <g id="ytick_7">
     <g id="line2d_8">
      <g>
       <use xlink:href="#m4e70ad830f" x="76.43" y="263.875475" style="stroke: #000000; stroke-width: 0.8"/>
      </g>
     </g>
     <g id="text_8">
      <!-- 9 -->
      <g transform="translate(57.9775 270.714069) scale(0.18 -0.18)">
       <defs>
        <path id="DejaVuSans-39" d="M 703 97 
L 703 672 
Q 941 559 1184 500 
Q 1428 441 1663 441 
Q 2288 441 2617 861 
Q 2947 1281 2994 2138 
Q 2813 1869 2534 1725 
Q 2256 1581 1919 1581 
Q 1219 1581 811 2004 
Q 403 2428 403 3163 
Q 403 3881 828 4315 
Q 1253 4750 1959 4750 
Q 2769 4750 3195 4129 
Q 3622 3509 3622 2328 
Q 3622 1225 3098 567 
Q 2575 -91 1691 -91 
Q 1453 -91 1209 -44 
Q 966 3 703 97 
z
M 1959 2075 
Q 2384 2075 2632 2365 
Q 2881 2656 2881 3163 
Q 2881 3666 2632 3958 
Q 2384 4250 1959 4250 
Q 1534 4250 1286 3958 
Q 1038 3666 1038 3163 
Q 1038 2656 1286 2365 
Q 1534 2075 1959 2075 
z
" transform="scale(0.015625)"/>
       </defs>
       <use xlink:href="#DejaVuSans-39"/>
      </g>
     </g>
    </g>
    <g id="text_9">
     <!-- Coord. number [-] -->
     <g transform="translate(50.234063 411.680352) rotate(-90) scale(0.18 -0.18)">
      <defs>
       <path id="DejaVuSans-43" d="M 4122 4306 
L 4122 3641 
Q 3803 3938 3442 4084 
Q 3081 4231 2675 4231 
Q 1875 4231 1450 3742 
Q 1025 3253 1025 2328 
Q 1025 1406 1450 917 
Q 1875 428 2675 428 
Q 3081 428 3442 575 
Q 3803 722 4122 1019 
L 4122 359 
Q 3791 134 3420 21 
Q 3050 -91 2638 -91 
Q 1578 -91 968 557 
Q 359 1206 359 2328 
Q 359 3453 968 4101 
Q 1578 4750 2638 4750 
Q 3056 4750 3426 4639 
Q 3797 4528 4122 4306 
z
" transform="scale(0.015625)"/>
       <path id="DejaVuSans-6e" d="M 3513 2113 
L 3513 0 
L 2938 0 
L 2938 2094 
Q 2938 2591 2744 2837 
Q 2550 3084 2163 3084 
Q 1697 3084 1428 2787 
Q 1159 2491 1159 1978 
L 1159 0 
L 581 0 
L 581 3500 
L 1159 3500 
L 1159 2956 
Q 1366 3272 1645 3428 
Q 1925 3584 2291 3584 
Q 2894 3584 3203 3211 
Q 3513 2838 3513 2113 
z
" transform="scale(0.015625)"/>
       <path id="DejaVuSans-75" d="M 544 1381 
L 544 3500 
L 1119 3500 
L 1119 1403 
Q 1119 906 1312 657 
Q 1506 409 1894 409 
Q 2359 409 2629 706 
Q 2900 1003 2900 1516 
L 2900 3500 
L 3475 3500 
L 3475 0 
L 2900 0 
L 2900 538 
Q 2691 219 2414 64 
Q 2138 -91 1772 -91 
Q 1169 -91 856 284 
Q 544 659 544 1381 
z
M 1991 3584 
L 1991 3584 
z
" transform="scale(0.015625)"/>
       <path id="DejaVuSans-6d" d="M 3328 2828 
Q 3544 3216 3844 3400 
Q 4144 3584 4550 3584 
Q 5097 3584 5394 3201 
Q 5691 2819 5691 2113 
L 5691 0 
L 5113 0 
L 5113 2094 
Q 5113 2597 4934 2840 
Q 4756 3084 4391 3084 
Q 3944 3084 3684 2787 
Q 3425 2491 3425 1978 
L 3425 0 
L 2847 0 
L 2847 2094 
Q 2847 2600 2669 2842 
Q 2491 3084 2119 3084 
Q 1678 3084 1418 2786 
Q 1159 2488 1159 1978 
L 1159 0 
L 581 0 
L 581 3500 
L 1159 3500 
L 1159 2956 
Q 1356 3278 1631 3431 
Q 1906 3584 2284 3584 
Q 2666 3584 2933 3390 
Q 3200 3197 3328 2828 
z
" transform="scale(0.015625)"/>
       <path id="DejaVuSans-62" d="M 3116 1747 
Q 3116 2381 2855 2742 
Q 2594 3103 2138 3103 
Q 1681 3103 1420 2742 
Q 1159 2381 1159 1747 
Q 1159 1113 1420 752 
Q 1681 391 2138 391 
Q 2594 391 2855 752 
Q 3116 1113 3116 1747 
z
M 1159 2969 
Q 1341 3281 1617 3432 
Q 1894 3584 2278 3584 
Q 2916 3584 3314 3078 
Q 3713 2572 3713 1747 
Q 3713 922 3314 415 
Q 2916 -91 2278 -91 
Q 1894 -91 1617 61 
Q 1341 213 1159 525 
L 1159 0 
L 581 0 
L 581 4863 
L 1159 4863 
L 1159 2969 
z
" transform="scale(0.015625)"/>
       <path id="DejaVuSans-65" d="M 3597 1894 
L 3597 1613 
L 953 1613 
Q 991 1019 1311 708 
Q 1631 397 2203 397 
Q 2534 397 2845 478 
Q 3156 559 3463 722 
L 3463 178 
Q 3153 47 2828 -22 
Q 2503 -91 2169 -91 
Q 1331 -91 842 396 
Q 353 884 353 1716 
Q 353 2575 817 3079 
Q 1281 3584 2069 3584 
Q 2775 3584 3186 3129 
Q 3597 2675 3597 1894 
z
M 3022 2063 
Q 3016 2534 2758 2815 
Q 2500 3097 2075 3097 
Q 1594 3097 1305 2825 
Q 1016 2553 972 2059 
L 3022 2063 
z
" transform="scale(0.015625)"/>
      </defs>
      <use xlink:href="#DejaVuSans-43"/>
      <use xlink:href="#DejaVuSans-6f" x="69.824219"/>
      <use xlink:href="#DejaVuSans-6f" x="131.005859"/>
      <use xlink:href="#DejaVuSans-72" x="192.1875"/>
      <use xlink:href="#DejaVuSans-64" x="231.550781"/>
      <use xlink:href="#DejaVuSans-2e" x="295.027344"/>
      <use xlink:href="#DejaVuSans-20" x="326.814453"/>
      <use xlink:href="#DejaVuSans-6e" x="358.601562"/>
      <use xlink:href="#DejaVuSans-75" x="421.980469"/>
      <use xlink:href="#DejaVuSans-6d" x="485.359375"/>
      <use xlink:href="#DejaVuSans-62" x="582.771484"/>
      <use xlink:href="#DejaVuSans-65" x="646.248047"/>
      <use xlink:href="#DejaVuSans-72" x="707.771484"/>
      <use xlink:href="#DejaVuSans-20" x="748.884766"/>
      <use xlink:href="#DejaVuSans-5b" x="780.671875"/>
      <use xlink:href="#DejaVuSans-2d" x="819.685547"/>
      <use xlink:href="#DejaVuSans-5d" x="855.769531"/>
     </g>
    </g>
   </g>
   <g id="line2d_9">
    <path d="M 83.596119 297.265361 
L 116.918575 296.419003 
L 115.485351 296.557893 
L 117.635187 296.141224 
L 182.130261 306.019735 
L 181.055343 305.985012 
L 184.638403 306.805328 
L 180.697037 306.492827 
L 187.863157 307.603942 
L 331.185545 343.22908 
L 455.876022 354.305511 
L 550.110493 357.630177 
" clip-path="url(#p6622c4a6b2)" style="fill: none; stroke: #1f77b4; stroke-width: 2; stroke-linecap: square"/>
    <g clip-path="url(#p6622c4a6b2)">
     <use xlink:href="#m1252608a59" x="83.596119" y="297.265361" style="fill: #1f77b4; stroke: #1f77b4"/>
     <use xlink:href="#m1252608a59" x="116.918575" y="296.419003" style="fill: #1f77b4; stroke: #1f77b4"/>
     <use xlink:href="#m1252608a59" x="115.485351" y="296.557893" style="fill: #1f77b4; stroke: #1f77b4"/>
     <use xlink:href="#m1252608a59" x="117.635187" y="296.141224" style="fill: #1f77b4; stroke: #1f77b4"/>
     <use xlink:href="#m1252608a59" x="182.130261" y="306.019735" style="fill: #1f77b4; stroke: #1f77b4"/>
     <use xlink:href="#m1252608a59" x="181.055343" y="305.985012" style="fill: #1f77b4; stroke: #1f77b4"/>
     <use xlink:href="#m1252608a59" x="184.638403" y="306.805328" style="fill: #1f77b4; stroke: #1f77b4"/>
     <use xlink:href="#m1252608a59" x="180.697037" y="306.492827" style="fill: #1f77b4; stroke: #1f77b4"/>
     <use xlink:href="#m1252608a59" x="187.863157" y="307.603942" style="fill: #1f77b4; stroke: #1f77b4"/>
     <use xlink:href="#m1252608a59" x="331.185545" y="343.22908" style="fill: #1f77b4; stroke: #1f77b4"/>
     <use xlink:href="#m1252608a59" x="455.876022" y="354.305511" style="fill: #1f77b4; stroke: #1f77b4"/>
     <use xlink:href="#m1252608a59" x="550.110493" y="357.630177" style="fill: #1f77b4; stroke: #1f77b4"/>
    </g>
   </g>
   <g id="patch_8">
    <path d="M 76.43 428.806667 
L 76.43 233.493413 
" style="fill: none; stroke: #000000; stroke-width: 0.8; stroke-linejoin: miter; stroke-linecap: square"/>
   </g>
   <g id="patch_9">
    <path d="M 556.56 428.806667 
L 556.56 233.493413 
" style="fill: none; stroke: #000000; stroke-width: 0.8; stroke-linejoin: miter; stroke-linecap: square"/>
   </g>
   <g id="patch_10">
    <path d="M 76.43 428.806667 
L 556.56 428.806667 
" style="fill: none; stroke: #000000; stroke-width: 0.8; stroke-linejoin: miter; stroke-linecap: square"/>
   </g>
   <g id="patch_11">
    <path d="M 76.43 233.493413 
L 556.56 233.493413 
" style="fill: none; stroke: #000000; stroke-width: 0.8; stroke-linejoin: miter; stroke-linecap: square"/>
   </g>
  </g>
  <g id="axes_3">
   <g id="patch_12">
    <path d="M 76.43 643.21 
L 556.56 643.21 
L 556.56 447.896747 
L 76.43 447.896747 
z
" style="fill: #ffffff"/>
   </g>
   <g id="PolyCollection_5">
    <defs>
     <path id="mb2cafc58dd" d="M 83.596119 -146.783879 
L 83.596119 -73.291842 
L 116.918575 -72.000604 
L 115.485351 -72.575693 
L 117.635187 -72.109112 
L 182.130261 -82.959848 
L 181.055343 -78.749762 
L 184.638403 -85.574876 
L 180.697037 -80.800552 
L 187.863157 -85.162548 
L 331.185545 -76.460257 
L 455.876022 -77.632137 
L 550.110493 -72.250171 
L 550.110493 -253.175348 
L 550.110493 -253.175348 
L 455.876022 -251.569439 
L 331.185545 -239.78554 
L 187.863157 -171.480155 
L 180.697037 -173.248825 
L 184.638403 -173.292228 
L 181.055343 -170.297425 
L 182.130261 -172.283109 
L 117.635187 -151.200129 
L 115.485351 -152.003083 
L 116.918575 -151.482248 
L 83.596119 -146.783879 
z
" style="stroke: #1f77b4; stroke-opacity: 0.2"/>
    </defs>
    <g clip-path="url(#pef37ff15a8)">
     <use xlink:href="#mb2cafc58dd" x="0" y="707.04" style="fill: #1f77b4; fill-opacity: 0.2; stroke: #1f77b4; stroke-opacity: 0.2"/>
    </g>
   </g>
   <g id="PolyCollection_6">
    <defs>
     <path id="m80dcb29207" d="M 83.596119 -114.213033 
L 83.596119 -90.769314 
L 116.918575 -94.901471 
L 115.485351 -93.654013 
L 117.635187 -93.633608 
L 182.130261 -109.804757 
L 181.055343 -109.037414 
L 184.638403 -109.825278 
L 180.697037 -108.504203 
L 187.863157 -110.831797 
L 331.185545 -135.819758 
L 455.876022 -139.18646 
L 550.110493 -138.77166 
L 550.110493 -202.626144 
L 550.110493 -202.626144 
L 455.876022 -206.898862 
L 331.185545 -200.695214 
L 187.863157 -140.917224 
L 180.697037 -137.428823 
L 184.638403 -140.187624 
L 181.055343 -138.479819 
L 182.130261 -139.969429 
L 117.635187 -117.815778 
L 115.485351 -117.556656 
L 116.918575 -118.97848 
L 83.596119 -114.213033 
z
" style="stroke: #1f77b4; stroke-opacity: 0.4"/>
    </defs>
    <g clip-path="url(#pef37ff15a8)">
     <use xlink:href="#m80dcb29207" x="0" y="707.04" style="fill: #1f77b4; fill-opacity: 0.4; stroke: #1f77b4; stroke-opacity: 0.4"/>
    </g>
   </g>
   <g id="matplotlib.axis_5">
    <g id="xtick_1">
     <g id="line2d_10">
      <defs>
       <path id="m36eec2e0d4" d="M 0 0 
L 0 3.5 
" style="stroke: #000000; stroke-width: 0.8"/>
      </defs>
      <g>
       <use xlink:href="#m36eec2e0d4" x="83.596119" y="643.21" style="stroke: #000000; stroke-width: 0.8"/>
      </g>
     </g>
     <g id="text_10">
      <!-- 0.00 -->
      <g transform="translate(63.557057 663.887187) scale(0.18 -0.18)">
       <use xlink:href="#DejaVuSans-30"/>
       <use xlink:href="#DejaVuSans-2e" x="63.623047"/>
       <use xlink:href="#DejaVuSans-30" x="95.410156"/>
       <use xlink:href="#DejaVuSans-30" x="159.033203"/>
      </g>
     </g>
    </g>
    <g id="xtick_2">
     <g id="line2d_11">
      <g>
       <use xlink:href="#m36eec2e0d4" x="155.257313" y="643.21" style="stroke: #000000; stroke-width: 0.8"/>
      </g>
     </g>
     <g id="text_11">
      <!-- 0.02 -->
      <g transform="translate(135.218251 663.887187) scale(0.18 -0.18)">
       <defs>
        <path id="DejaVuSans-32" d="M 1228 531 
L 3431 531 
L 3431 0 
L 469 0 
L 469 531 
Q 828 903 1448 1529 
Q 2069 2156 2228 2338 
Q 2531 2678 2651 2914 
Q 2772 3150 2772 3378 
Q 2772 3750 2511 3984 
Q 2250 4219 1831 4219 
Q 1534 4219 1204 4116 
Q 875 4013 500 3803 
L 500 4441 
Q 881 4594 1212 4672 
Q 1544 4750 1819 4750 
Q 2544 4750 2975 4387 
Q 3406 4025 3406 3419 
Q 3406 3131 3298 2873 
Q 3191 2616 2906 2266 
Q 2828 2175 2409 1742 
Q 1991 1309 1228 531 
z
" transform="scale(0.015625)"/>
       </defs>
       <use xlink:href="#DejaVuSans-30"/>
       <use xlink:href="#DejaVuSans-2e" x="63.623047"/>
       <use xlink:href="#DejaVuSans-30" x="95.410156"/>
       <use xlink:href="#DejaVuSans-32" x="159.033203"/>
      </g>
     </g>
    </g>
    <g id="xtick_3">
     <g id="line2d_12">
      <g>
       <use xlink:href="#m36eec2e0d4" x="226.918507" y="643.21" style="stroke: #000000; stroke-width: 0.8"/>
      </g>
     </g>
     <g id="text_12">
      <!-- 0.04 -->
      <g transform="translate(206.879445 663.887187) scale(0.18 -0.18)">
       <defs>
        <path id="DejaVuSans-34" d="M 2419 4116 
L 825 1625 
L 2419 1625 
L 2419 4116 
z
M 2253 4666 
L 3047 4666 
L 3047 1625 
L 3713 1625 
L 3713 1100 
L 3047 1100 
L 3047 0 
L 2419 0 
L 2419 1100 
L 313 1100 
L 313 1709 
L 2253 4666 
z
" transform="scale(0.015625)"/>
       </defs>
       <use xlink:href="#DejaVuSans-30"/>
       <use xlink:href="#DejaVuSans-2e" x="63.623047"/>
       <use xlink:href="#DejaVuSans-30" x="95.410156"/>
       <use xlink:href="#DejaVuSans-34" x="159.033203"/>
      </g>
     </g>
    </g>
    <g id="xtick_4">
     <g id="line2d_13">
      <g>
       <use xlink:href="#m36eec2e0d4" x="298.579701" y="643.21" style="stroke: #000000; stroke-width: 0.8"/>
      </g>
     </g>
     <g id="text_13">
      <!-- 0.06 -->
      <g transform="translate(278.540639 663.887187) scale(0.18 -0.18)">
       <use xlink:href="#DejaVuSans-30"/>
       <use xlink:href="#DejaVuSans-2e" x="63.623047"/>
       <use xlink:href="#DejaVuSans-30" x="95.410156"/>
       <use xlink:href="#DejaVuSans-36" x="159.033203"/>
      </g>
     </g>
    </g>
    <g id="xtick_5">
     <g id="line2d_14">
      <g>
       <use xlink:href="#m36eec2e0d4" x="370.240896" y="643.21" style="stroke: #000000; stroke-width: 0.8"/>
      </g>
     </g>
     <g id="text_14">
      <!-- 0.08 -->
      <g transform="translate(350.201833 663.887187) scale(0.18 -0.18)">
       <use xlink:href="#DejaVuSans-30"/>
       <use xlink:href="#DejaVuSans-2e" x="63.623047"/>
       <use xlink:href="#DejaVuSans-30" x="95.410156"/>
       <use xlink:href="#DejaVuSans-38" x="159.033203"/>
      </g>
     </g>
    </g>
    <g id="xtick_6">
     <g id="line2d_15">
      <g>
       <use xlink:href="#m36eec2e0d4" x="441.90209" y="643.21" style="stroke: #000000; stroke-width: 0.8"/>
      </g>
     </g>
     <g id="text_15">
      <!-- 0.10 -->
      <g transform="translate(421.863027 663.887187) scale(0.18 -0.18)">
       <use xlink:href="#DejaVuSans-30"/>
       <use xlink:href="#DejaVuSans-2e" x="63.623047"/>
       <use xlink:href="#DejaVuSans-31" x="95.410156"/>
       <use xlink:href="#DejaVuSans-30" x="159.033203"/>
      </g>
     </g>
    </g>
    <g id="xtick_7">
     <g id="line2d_16">
      <g>
       <use xlink:href="#m36eec2e0d4" x="513.563284" y="643.21" style="stroke: #000000; stroke-width: 0.8"/>
      </g>
     </g>
     <g id="text_16">
      <!-- 0.12 -->
      <g transform="translate(493.524221 663.887187) scale(0.18 -0.18)">
       <use xlink:href="#DejaVuSans-30"/>
       <use xlink:href="#DejaVuSans-2e" x="63.623047"/>
       <use xlink:href="#DejaVuSans-31" x="95.410156"/>
       <use xlink:href="#DejaVuSans-32" x="159.033203"/>
      </g>
     </g>
    </g>
    <g id="text_17">
     <!-- Axial strain [-] -->
     <g transform="translate(252.869219 685.307812) scale(0.18 -0.18)">
      <defs>
       <path id="DejaVuSans-41" d="M 2188 4044 
L 1331 1722 
L 3047 1722 
L 2188 4044 
z
M 1831 4666 
L 2547 4666 
L 4325 0 
L 3669 0 
L 3244 1197 
L 1141 1197 
L 716 0 
L 50 0 
L 1831 4666 
z
" transform="scale(0.015625)"/>
       <path id="DejaVuSans-78" d="M 3513 3500 
L 2247 1797 
L 3578 0 
L 2900 0 
L 1881 1375 
L 863 0 
L 184 0 
L 1544 1831 
L 300 3500 
L 978 3500 
L 1906 2253 
L 2834 3500 
L 3513 3500 
z
" transform="scale(0.015625)"/>
       <path id="DejaVuSans-6c" d="M 603 4863 
L 1178 4863 
L 1178 0 
L 603 0 
L 603 4863 
z
" transform="scale(0.015625)"/>
       <path id="DejaVuSans-73" d="M 2834 3397 
L 2834 2853 
Q 2591 2978 2328 3040 
Q 2066 3103 1784 3103 
Q 1356 3103 1142 2972 
Q 928 2841 928 2578 
Q 928 2378 1081 2264 
Q 1234 2150 1697 2047 
L 1894 2003 
Q 2506 1872 2764 1633 
Q 3022 1394 3022 966 
Q 3022 478 2636 193 
Q 2250 -91 1575 -91 
Q 1294 -91 989 -36 
Q 684 19 347 128 
L 347 722 
Q 666 556 975 473 
Q 1284 391 1588 391 
Q 1994 391 2212 530 
Q 2431 669 2431 922 
Q 2431 1156 2273 1281 
Q 2116 1406 1581 1522 
L 1381 1569 
Q 847 1681 609 1914 
Q 372 2147 372 2553 
Q 372 3047 722 3315 
Q 1072 3584 1716 3584 
Q 2034 3584 2315 3537 
Q 2597 3491 2834 3397 
z
" transform="scale(0.015625)"/>
      </defs>
      <use xlink:href="#DejaVuSans-41"/>
      <use xlink:href="#DejaVuSans-78" x="68.408203"/>
      <use xlink:href="#DejaVuSans-69" x="127.587891"/>
      <use xlink:href="#DejaVuSans-61" x="155.371094"/>
      <use xlink:href="#DejaVuSans-6c" x="216.650391"/>
      <use xlink:href="#DejaVuSans-20" x="244.433594"/>
      <use xlink:href="#DejaVuSans-73" x="276.220703"/>
      <use xlink:href="#DejaVuSans-74" x="328.320312"/>
      <use xlink:href="#DejaVuSans-72" x="367.529297"/>
      <use xlink:href="#DejaVuSans-61" x="408.642578"/>
      <use xlink:href="#DejaVuSans-69" x="469.921875"/>
      <use xlink:href="#DejaVuSans-6e" x="497.705078"/>
      <use xlink:href="#DejaVuSans-20" x="561.083984"/>
      <use xlink:href="#DejaVuSans-5b" x="592.871094"/>
      <use xlink:href="#DejaVuSans-2d" x="631.884766"/>
      <use xlink:href="#DejaVuSans-5d" x="667.96875"/>
     </g>
    </g>
   </g>
   <g id="matplotlib.axis_6">
    <g id="ytick_8">
     <g id="line2d_17">
      <g>
       <use xlink:href="#m4e70ad830f" x="76.43" y="643.21" style="stroke: #000000; stroke-width: 0.8"/>
      </g>
     </g>
     <g id="text_18">
      <!-- 0.0 -->
      <g transform="translate(40.804375 650.048594) scale(0.18 -0.18)">
       <use xlink:href="#DejaVuSans-30"/>
       <use xlink:href="#DejaVuSans-2e" x="63.623047"/>
       <use xlink:href="#DejaVuSans-30" x="95.410156"/>
      </g>
     </g>
    </g>
    <g id="ytick_9">
     <g id="line2d_18">
      <g>
       <use xlink:href="#m4e70ad830f" x="76.43" y="588.956319" style="stroke: #000000; stroke-width: 0.8"/>
      </g>
     </g>
     <g id="text_19">
      <!-- 0.5 -->
      <g transform="translate(40.804375 595.794912) scale(0.18 -0.18)">
       <defs>
        <path id="DejaVuSans-35" d="M 691 4666 
L 3169 4666 
L 3169 4134 
L 1269 4134 
L 1269 2991 
Q 1406 3038 1543 3061 
Q 1681 3084 1819 3084 
Q 2600 3084 3056 2656 
Q 3513 2228 3513 1497 
Q 3513 744 3044 326 
Q 2575 -91 1722 -91 
Q 1428 -91 1123 -41 
Q 819 9 494 109 
L 494 744 
Q 775 591 1075 516 
Q 1375 441 1709 441 
Q 2250 441 2565 725 
Q 2881 1009 2881 1497 
Q 2881 1984 2565 2268 
Q 2250 2553 1709 2553 
Q 1456 2553 1204 2497 
Q 953 2441 691 2322 
L 691 4666 
z
" transform="scale(0.015625)"/>
       </defs>
       <use xlink:href="#DejaVuSans-30"/>
       <use xlink:href="#DejaVuSans-2e" x="63.623047"/>
       <use xlink:href="#DejaVuSans-35" x="95.410156"/>
      </g>
     </g>
    </g>
    <g id="ytick_10">
     <g id="line2d_19">
      <g>
       <use xlink:href="#m4e70ad830f" x="76.43" y="534.702637" style="stroke: #000000; stroke-width: 0.8"/>
      </g>
     </g>
     <g id="text_20">
      <!-- 1.0 -->
      <g transform="translate(40.804375 541.541231) scale(0.18 -0.18)">
       <use xlink:href="#DejaVuSans-31"/>
       <use xlink:href="#DejaVuSans-2e" x="63.623047"/>
       <use xlink:href="#DejaVuSans-30" x="95.410156"/>
      </g>
     </g>
    </g>
    <g id="ytick_11">
     <g id="line2d_20">
      <g>
       <use xlink:href="#m4e70ad830f" x="76.43" y="480.448956" style="stroke: #000000; stroke-width: 0.8"/>
      </g>
     </g>
     <g id="text_21">
      <!-- 1.5 -->
      <g transform="translate(40.804375 487.287549) scale(0.18 -0.18)">
       <use xlink:href="#DejaVuSans-31"/>
       <use xlink:href="#DejaVuSans-2e" x="63.623047"/>
       <use xlink:href="#DejaVuSans-35" x="95.410156"/>
      </g>
     </g>
    </g>
    <g id="text_22">
     <!-- Fabric Anisotropy [-] -->
     <g transform="translate(33.060938 636.405561) rotate(-90) scale(0.18 -0.18)">
      <defs>
       <path id="DejaVuSans-46" d="M 628 4666 
L 3309 4666 
L 3309 4134 
L 1259 4134 
L 1259 2759 
L 3109 2759 
L 3109 2228 
L 1259 2228 
L 1259 0 
L 628 0 
L 628 4666 
z
" transform="scale(0.015625)"/>
       <path id="DejaVuSans-63" d="M 3122 3366 
L 3122 2828 
Q 2878 2963 2633 3030 
Q 2388 3097 2138 3097 
Q 1578 3097 1268 2742 
Q 959 2388 959 1747 
Q 959 1106 1268 751 
Q 1578 397 2138 397 
Q 2388 397 2633 464 
Q 2878 531 3122 666 
L 3122 134 
Q 2881 22 2623 -34 
Q 2366 -91 2075 -91 
Q 1284 -91 818 406 
Q 353 903 353 1747 
Q 353 2603 823 3093 
Q 1294 3584 2113 3584 
Q 2378 3584 2631 3529 
Q 2884 3475 3122 3366 
z
" transform="scale(0.015625)"/>
       <path id="DejaVuSans-70" d="M 1159 525 
L 1159 -1331 
L 581 -1331 
L 581 3500 
L 1159 3500 
L 1159 2969 
Q 1341 3281 1617 3432 
Q 1894 3584 2278 3584 
Q 2916 3584 3314 3078 
Q 3713 2572 3713 1747 
Q 3713 922 3314 415 
Q 2916 -91 2278 -91 
Q 1894 -91 1617 61 
Q 1341 213 1159 525 
z
M 3116 1747 
Q 3116 2381 2855 2742 
Q 2594 3103 2138 3103 
Q 1681 3103 1420 2742 
Q 1159 2381 1159 1747 
Q 1159 1113 1420 752 
Q 1681 391 2138 391 
Q 2594 391 2855 752 
Q 3116 1113 3116 1747 
z
" transform="scale(0.015625)"/>
       <path id="DejaVuSans-79" d="M 2059 -325 
Q 1816 -950 1584 -1140 
Q 1353 -1331 966 -1331 
L 506 -1331 
L 506 -850 
L 844 -850 
Q 1081 -850 1212 -737 
Q 1344 -625 1503 -206 
L 1606 56 
L 191 3500 
L 800 3500 
L 1894 763 
L 2988 3500 
L 3597 3500 
L 2059 -325 
z
" transform="scale(0.015625)"/>
      </defs>
      <use xlink:href="#DejaVuSans-46"/>
      <use xlink:href="#DejaVuSans-61" x="48.394531"/>
      <use xlink:href="#DejaVuSans-62" x="109.673828"/>
      <use xlink:href="#DejaVuSans-72" x="173.150391"/>
      <use xlink:href="#DejaVuSans-69" x="214.263672"/>
      <use xlink:href="#DejaVuSans-63" x="242.046875"/>
      <use xlink:href="#DejaVuSans-20" x="297.027344"/>
      <use xlink:href="#DejaVuSans-41" x="328.814453"/>
      <use xlink:href="#DejaVuSans-6e" x="397.222656"/>
      <use xlink:href="#DejaVuSans-69" x="460.601562"/>
      <use xlink:href="#DejaVuSans-73" x="488.384766"/>
      <use xlink:href="#DejaVuSans-6f" x="540.484375"/>
      <use xlink:href="#DejaVuSans-74" x="601.666016"/>
      <use xlink:href="#DejaVuSans-72" x="640.875"/>
      <use xlink:href="#DejaVuSans-6f" x="679.738281"/>
      <use xlink:href="#DejaVuSans-70" x="740.919922"/>
      <use xlink:href="#DejaVuSans-79" x="804.396484"/>
      <use xlink:href="#DejaVuSans-20" x="863.576172"/>
      <use xlink:href="#DejaVuSans-5b" x="895.363281"/>
      <use xlink:href="#DejaVuSans-2d" x="934.376953"/>
      <use xlink:href="#DejaVuSans-5d" x="970.460938"/>
     </g>
    </g>
   </g>
   <g id="line2d_21">
    <path d="M 83.596119 604.548827 
L 116.918575 600.100025 
L 115.485351 601.434665 
L 117.635187 601.315307 
L 182.130261 582.152907 
L 181.055343 583.281383 
L 184.638403 582.033549 
L 180.697037 584.073487 
L 187.863157 581.16549 
L 331.185545 538.782514 
L 455.876022 533.997339 
L 550.110493 536.341098 
" clip-path="url(#pef37ff15a8)" style="fill: none; stroke: #1f77b4; stroke-width: 2; stroke-linecap: square"/>
    <g clip-path="url(#pef37ff15a8)">
     <use xlink:href="#m1252608a59" x="83.596119" y="604.548827" style="fill: #1f77b4; stroke: #1f77b4"/>
     <use xlink:href="#m1252608a59" x="116.918575" y="600.100025" style="fill: #1f77b4; stroke: #1f77b4"/>
     <use xlink:href="#m1252608a59" x="115.485351" y="601.434665" style="fill: #1f77b4; stroke: #1f77b4"/>
     <use xlink:href="#m1252608a59" x="117.635187" y="601.315307" style="fill: #1f77b4; stroke: #1f77b4"/>
     <use xlink:href="#m1252608a59" x="182.130261" y="582.152907" style="fill: #1f77b4; stroke: #1f77b4"/>
     <use xlink:href="#m1252608a59" x="181.055343" y="583.281383" style="fill: #1f77b4; stroke: #1f77b4"/>
     <use xlink:href="#m1252608a59" x="184.638403" y="582.033549" style="fill: #1f77b4; stroke: #1f77b4"/>
     <use xlink:href="#m1252608a59" x="180.697037" y="584.073487" style="fill: #1f77b4; stroke: #1f77b4"/>
     <use xlink:href="#m1252608a59" x="187.863157" y="581.16549" style="fill: #1f77b4; stroke: #1f77b4"/>
     <use xlink:href="#m1252608a59" x="331.185545" y="538.782514" style="fill: #1f77b4; stroke: #1f77b4"/>
     <use xlink:href="#m1252608a59" x="455.876022" y="533.997339" style="fill: #1f77b4; stroke: #1f77b4"/>
     <use xlink:href="#m1252608a59" x="550.110493" y="536.341098" style="fill: #1f77b4; stroke: #1f77b4"/>
    </g>
   </g>
   <g id="patch_13">
    <path d="M 76.43 643.21 
L 76.43 447.896747 
" style="fill: none; stroke: #000000; stroke-width: 0.8; stroke-linejoin: miter; stroke-linecap: square"/>
   </g>
   <g id="patch_14">
    <path d="M 556.56 643.21 
L 556.56 447.896747 
" style="fill: none; stroke: #000000; stroke-width: 0.8; stroke-linejoin: miter; stroke-linecap: square"/>
   </g>
   <g id="patch_15">
    <path d="M 76.43 643.21 
L 556.56 643.21 
" style="fill: none; stroke: #000000; stroke-width: 0.8; stroke-linejoin: miter; stroke-linecap: square"/>
   </g>
   <g id="patch_16">
    <path d="M 76.43 447.896747 
L 556.56 447.896747 
" style="fill: none; stroke: #000000; stroke-width: 0.8; stroke-linejoin: miter; stroke-linecap: square"/>
   </g>
  </g>
 </g>
 <defs>
  <clipPath id="p72325c4c42">
   <rect x="76.43" y="19.09008" width="480.13" height="195.313253"/>
  </clipPath>
  <clipPath id="p6622c4a6b2">
   <rect x="76.43" y="233.493413" width="480.13" height="195.313253"/>
  </clipPath>
  <clipPath id="pef37ff15a8">
   <rect x="76.43" y="447.896747" width="480.13" height="195.313253"/>
  </clipPath>
 </defs>
</svg>
