<?xml version="1.0" encoding="UTF-8" standalone="no"?>
<!-- Created with Inkscape (http://www.inkscape.org/) -->

<svg
   width="101.9145mm"
   height="67.771233mm"
   viewBox="0 0 101.9145 67.771233"
   version="1.1"
   id="svg8"
   inkscape:version="1.1.2 (0a00cf5339, 2022-02-04)"
   sodipodi:docname="standardExperiments-0.svg"
   xmlns:inkscape="http://www.inkscape.org/namespaces/inkscape"
   xmlns:sodipodi="http://sodipodi.sourceforge.net/DTD/sodipodi-0.dtd"
   xmlns:xlink="http://www.w3.org/1999/xlink"
   xmlns="http://www.w3.org/2000/svg"
   xmlns:svg="http://www.w3.org/2000/svg"
   xmlns:rdf="http://www.w3.org/1999/02/22-rdf-syntax-ns#"
   xmlns:cc="http://creativecommons.org/ns#"
   xmlns:dc="http://purl.org/dc/elements/1.1/">
  <defs
     id="defs2">
    <marker
       inkscape:stockid="Arrow1Lend"
       orient="auto"
       refY="0"
       refX="0"
       id="marker5365"
       style="overflow:visible"
       inkscape:isstock="true">
      <path
         id="path5363"
         d="M 0,0 5,-5 -12.5,0 5,5 Z"
         style="fill:#000000;fill-opacity:1;fill-rule:evenodd;stroke:#000000;stroke-width:1pt;stroke-opacity:1"
         transform="matrix(-0.8,0,0,-0.8,-10,0)" />
    </marker>
    <marker
       inkscape:stockid="Arrow1Mend"
       orient="auto"
       refY="0"
       refX="0"
       id="marker4759"
       style="overflow:visible"
       inkscape:isstock="true">
      <path
         id="path4757"
         d="M 0,0 5,-5 -12.5,0 5,5 Z"
         style="fill:#000000;fill-opacity:1;fill-rule:evenodd;stroke:#000000;stroke-width:1pt;stroke-opacity:1"
         transform="matrix(-0.4,0,0,-0.4,-4,0)" />
    </marker>
    <marker
       inkscape:isstock="true"
       style="overflow:visible"
       id="marker3369"
       refX="0"
       refY="0"
       orient="auto"
       inkscape:stockid="Arrow1Mend"
       inkscape:collect="always">
      <path
         transform="matrix(-0.4,0,0,-0.4,-4,0)"
         style="fill:#000000;fill-opacity:1;fill-rule:evenodd;stroke:#000000;stroke-width:1pt;stroke-opacity:1"
         d="M 0,0 5,-5 -12.5,0 5,5 Z"
         id="path3367" />
    </marker>
    <marker
       inkscape:stockid="Arrow1Mend"
       orient="auto"
       refY="0"
       refX="0"
       id="marker3075"
       style="overflow:visible"
       inkscape:isstock="true">
      <path
         id="path3073"
         d="M 0,0 5,-5 -12.5,0 5,5 Z"
         style="fill:#000000;fill-opacity:1;fill-rule:evenodd;stroke:#000000;stroke-width:1pt;stroke-opacity:1"
         transform="matrix(-0.4,0,0,-0.4,-4,0)" />
    </marker>
    <marker
       inkscape:stockid="Arrow1Mend"
       orient="auto"
       refY="0"
       refX="0"
       id="marker2217"
       style="overflow:visible"
       inkscape:isstock="true"
       inkscape:collect="always">
      <path
         id="path2215"
         d="M 0,0 5,-5 -12.5,0 5,5 Z"
         style="fill:#000000;fill-opacity:1;fill-rule:evenodd;stroke:#000000;stroke-width:1pt;stroke-opacity:1"
         transform="matrix(-0.4,0,0,-0.4,-4,0)" />
    </marker>
    <marker
       inkscape:stockid="StopL"
       orient="auto"
       refY="0"
       refX="0"
       id="StopL"
       style="overflow:visible"
       inkscape:isstock="true">
      <path
         id="path996"
         d="M 0,5.65 V -5.65"
         style="fill:none;fill-opacity:0.75;fill-rule:evenodd;stroke:#000000;stroke-width:1pt;stroke-opacity:1"
         transform="scale(0.8)" />
    </marker>
    <marker
       inkscape:stockid="Arrow1Lend"
       orient="auto"
       refY="0"
       refX="0"
       id="Arrow1Lend-3"
       style="overflow:visible"
       inkscape:isstock="true"
       inkscape:collect="always">
      <path
         id="path830-6"
         d="M 0,0 5,-5 -12.5,0 5,5 Z"
         style="fill:#000000;fill-opacity:1;fill-rule:evenodd;stroke:#000000;stroke-width:1pt;stroke-opacity:1"
         transform="matrix(-0.8,0,0,-0.8,-10,0)" />
    </marker>
    <marker
       inkscape:stockid="StopL"
       orient="auto"
       refY="0"
       refX="0"
       id="StopL-7"
       style="overflow:visible"
       inkscape:isstock="true">
      <path
         id="path996-5"
         d="M 0,5.65 V -5.65"
         style="fill:none;fill-opacity:0.75;fill-rule:evenodd;stroke:#000000;stroke-width:1pt;stroke-opacity:1"
         transform="scale(0.8)" />
    </marker>
    <marker
       inkscape:isstock="true"
       style="overflow:visible"
       id="marker1135-3"
       refX="0"
       refY="0"
       orient="auto"
       inkscape:stockid="Arrow1Lend"
       inkscape:collect="always">
      <path
         transform="matrix(-0.8,0,0,-0.8,-10,0)"
         style="fill:#000000;fill-opacity:1;fill-rule:evenodd;stroke:#000000;stroke-width:1pt;stroke-opacity:1"
         d="M 0,0 5,-5 -12.5,0 5,5 Z"
         id="path1133-5" />
    </marker>
    <marker
       inkscape:stockid="Arrow1Mend"
       orient="auto"
       refY="0"
       refX="0"
       id="Arrow1Mend-6"
       style="overflow:visible"
       inkscape:isstock="true"
       inkscape:collect="always">
      <path
         id="path836-2"
         d="M 0,0 5,-5 -12.5,0 5,5 Z"
         style="fill:#000000;fill-opacity:1;fill-rule:evenodd;stroke:#000000;stroke-width:1pt;stroke-opacity:1"
         transform="matrix(-0.4,0,0,-0.4,-4,0)" />
    </marker>
    <marker
       inkscape:isstock="true"
       style="overflow:visible"
       id="marker1527-9"
       refX="0"
       refY="0"
       orient="auto"
       inkscape:stockid="Arrow1Mend"
       inkscape:collect="always">
      <path
         transform="matrix(-0.4,0,0,-0.4,-4,0)"
         style="fill:#000000;fill-opacity:1;fill-rule:evenodd;stroke:#000000;stroke-width:1pt;stroke-opacity:1"
         d="M 0,0 5,-5 -12.5,0 5,5 Z"
         id="path1525-1" />
    </marker>
    <marker
       inkscape:stockid="Arrow1Mend"
       orient="auto"
       refY="0"
       refX="0"
       id="marker1923-2"
       style="overflow:visible"
       inkscape:isstock="true"
       inkscape:collect="always">
      <path
         id="path1921-7"
         d="M 0,0 5,-5 -12.5,0 5,5 Z"
         style="fill:#000000;fill-opacity:1;fill-rule:evenodd;stroke:#000000;stroke-width:1pt;stroke-opacity:1"
         transform="matrix(-0.4,0,0,-0.4,-4,0)" />
    </marker>
    <marker
       inkscape:isstock="true"
       style="overflow:visible"
       id="marker2055-0"
       refX="0"
       refY="0"
       orient="auto"
       inkscape:stockid="Arrow1Mend"
       inkscape:collect="always">
      <path
         transform="matrix(-0.4,0,0,-0.4,-4,0)"
         style="fill:#000000;fill-opacity:1;fill-rule:evenodd;stroke:#000000;stroke-width:1pt;stroke-opacity:1"
         d="M 0,0 5,-5 -12.5,0 5,5 Z"
         id="path2053-9" />
    </marker>
    <marker
       inkscape:stockid="Arrow1Mend"
       orient="auto"
       refY="0"
       refX="0"
       id="marker2217-3"
       style="overflow:visible"
       inkscape:isstock="true"
       inkscape:collect="always">
      <path
         id="path2215-6"
         d="M 0,0 5,-5 -12.5,0 5,5 Z"
         style="fill:#000000;fill-opacity:1;fill-rule:evenodd;stroke:#000000;stroke-width:1pt;stroke-opacity:1"
         transform="matrix(-0.4,0,0,-0.4,-4,0)" />
    </marker>
    <marker
       inkscape:isstock="true"
       style="overflow:visible"
       id="marker2619-0"
       refX="0"
       refY="0"
       orient="auto"
       inkscape:stockid="Arrow1Mend"
       inkscape:collect="always">
      <path
         transform="matrix(-0.4,0,0,-0.4,-4,0)"
         style="fill:#000000;fill-opacity:1;fill-rule:evenodd;stroke:#000000;stroke-width:1pt;stroke-opacity:1"
         d="M 0,0 5,-5 -12.5,0 5,5 Z"
         id="path2617-6" />
    </marker>
    <marker
       inkscape:stockid="Arrow1Mend"
       orient="auto"
       refY="0"
       refX="0"
       id="marker3075-2"
       style="overflow:visible"
       inkscape:isstock="true">
      <path
         id="path3073-6"
         d="M 0,0 5,-5 -12.5,0 5,5 Z"
         style="fill:#000000;fill-opacity:1;fill-rule:evenodd;stroke:#000000;stroke-width:1pt;stroke-opacity:1"
         transform="matrix(-0.4,0,0,-0.4,-4,0)" />
    </marker>
    <marker
       inkscape:isstock="true"
       style="overflow:visible"
       id="marker3369-1"
       refX="0"
       refY="0"
       orient="auto"
       inkscape:stockid="Arrow1Mend"
       inkscape:collect="always">
      <path
         transform="matrix(-0.4,0,0,-0.4,-4,0)"
         style="fill:#000000;fill-opacity:1;fill-rule:evenodd;stroke:#000000;stroke-width:1pt;stroke-opacity:1"
         d="M 0,0 5,-5 -12.5,0 5,5 Z"
         id="path3367-8" />
    </marker>
    <g
       id="g6288">
      <symbol
         overflow="visible"
         id="symbol3181">
        <path
           style="stroke:none"
           d=""
           id="path8388" />
      </symbol>
      <symbol
         overflow="visible"
         id="symbol397">
        <path
           style="stroke:none"
           d="m 5.15625,-3.71875 c 0.140625,0 0.5,0 0.5,-0.34375 0,-0.234375 -0.21875,-0.234375 -0.390625,-0.234375 h -2.28125 c -1.5,0 -2.609375,1.640625 -2.609375,2.828125 0,0.875 0.59375,1.578125 1.5,1.578125 1.171875,0 2.5,-1.203125 2.5,-2.734375 0,-0.171875 0,-0.65625 -0.3125,-1.09375 z M 1.890625,-0.109375 C 1.390625,-0.109375 1,-0.46875 1,-1.1875 c 0,-0.296875 0.109375,-1.109375 0.46875,-1.703125 0.421875,-0.6875 1.015625,-0.828125 1.359375,-0.828125 0.828125,0 0.90625,0.65625 0.90625,0.96875 0,0.46875 -0.203125,1.28125 -0.53125,1.796875 -0.390625,0.578125 -0.9375,0.84375 -1.3125,0.84375 z m 0,0"
           id="path7132" />
      </symbol>
      <symbol
         overflow="visible"
         id="symbol5346">
        <path
           style="stroke:none"
           d=""
           id="path8911" />
      </symbol>
      <symbol
         overflow="visible"
         id="symbol3981">
        <path
           style="stroke:none"
           d="m 1.90625,-2.328125 c 0.546875,0 0.9375,0.375 0.9375,1.125 0,0.859375 -0.515625,1.125 -0.90625,1.125 -0.28125,0 -0.90625,-0.078125 -1.1875,-0.5 0.328125,0 0.40625,-0.234375 0.40625,-0.390625 0,-0.21875 -0.171875,-0.375 -0.390625,-0.375 -0.1875,0 -0.390625,0.125 -0.390625,0.40625 0,0.65625 0.71875,1.078125 1.5625,1.078125 0.96875,0 1.640625,-0.65625 1.640625,-1.34375 0,-0.546875 -0.4375,-1.09375 -1.203125,-1.25 0.71875,-0.265625 0.984375,-0.78125 0.984375,-1.21875 0,-0.546875 -0.625,-0.953125 -1.40625,-0.953125 -0.765625,0 -1.359375,0.375 -1.359375,0.9375 0,0.234375 0.15625,0.359375 0.359375,0.359375 0.21875,0 0.359375,-0.15625 0.359375,-0.34375 0,-0.203125 -0.140625,-0.359375 -0.359375,-0.375 0.25,-0.296875 0.71875,-0.375 0.984375,-0.375 0.3125,0 0.75,0.15625 0.75,0.75 0,0.296875 -0.09375,0.625 -0.28125,0.828125 -0.21875,0.265625 -0.421875,0.28125 -0.765625,0.3125 -0.171875,0.015625 -0.1875,0.015625 -0.21875,0.015625 -0.015625,0 -0.078125,0.015625 -0.078125,0.09375 0,0.09375 0.0625,0.09375 0.1875,0.09375 z m 0,0"
           id="path575" />
      </symbol>
    </g>
    <g
       id="g1953">
      <symbol
         overflow="visible"
         id="symbol9209">
        <path
           style="stroke:none"
           d=""
           id="path1388" />
      </symbol>
      <symbol
         overflow="visible"
         id="symbol4647">
        <path
           style="stroke:none"
           d="m 5.15625,-3.71875 c 0.140625,0 0.5,0 0.5,-0.34375 0,-0.234375 -0.21875,-0.234375 -0.390625,-0.234375 h -2.28125 c -1.5,0 -2.609375,1.640625 -2.609375,2.828125 0,0.875 0.59375,1.578125 1.5,1.578125 1.171875,0 2.5,-1.203125 2.5,-2.734375 0,-0.171875 0,-0.65625 -0.3125,-1.09375 z M 1.890625,-0.109375 C 1.390625,-0.109375 1,-0.46875 1,-1.1875 c 0,-0.296875 0.109375,-1.109375 0.46875,-1.703125 0.421875,-0.6875 1.015625,-0.828125 1.359375,-0.828125 0.828125,0 0.90625,0.65625 0.90625,0.96875 0,0.46875 -0.203125,1.28125 -0.53125,1.796875 -0.390625,0.578125 -0.9375,0.84375 -1.3125,0.84375 z m 0,0"
           id="path8892" />
      </symbol>
    </g>
    <g
       id="g4565">
      <symbol
         overflow="visible"
         id="symbol453">
        <path
           style="stroke:none"
           d=""
           id="path6332" />
      </symbol>
      <symbol
         overflow="visible"
         id="symbol6533">
        <path
           style="stroke:none"
           d="M 1.40625,-2.265625 C 1.734375,-2.125 2.03125,-2.125 2.265625,-2.125 c 0.25,0 0.8125,0 0.8125,-0.3125 0,-0.234375 -0.359375,-0.265625 -0.734375,-0.265625 -0.203125,0 -0.5625,0.015625 -0.921875,0.1875 C 1.1875,-2.625 1.015625,-2.828125 1.015625,-3.09375 c 0,-0.609375 0.984375,-0.96875 1.875,-0.96875 0.15625,0 0.515625,0 0.921875,0.28125 0.109375,0.078125 0.125,0.109375 0.1875,0.109375 0.140625,0 0.28125,-0.140625 0.28125,-0.28125 0,-0.1875 -0.609375,-0.5625 -1.296875,-0.5625 -1.140625,0 -2.21875,0.671875 -2.21875,1.421875 0,0.4375 0.359375,0.6875 0.40625,0.71875 -0.59375,0.328125 -0.90625,0.875 -0.90625,1.34375 0,0.640625 0.5625,1.25 1.625,1.25 1.3125,0 1.875,-0.875 1.875,-1.03125 0,-0.0625 -0.0625,-0.09375 -0.109375,-0.09375 -0.0625,0 -0.09375,0.03125 -0.109375,0.0625 -0.140625,0.234375 -0.375,0.609375 -1.578125,0.609375 -0.609375,0 -1.453125,-0.15625 -1.453125,-0.859375 0,-0.34375 0.28125,-0.875 0.890625,-1.171875 z m 0.328125,-0.125 c 0.234375,-0.078125 0.4375,-0.09375 0.609375,-0.09375 0.25,0 0.28125,0.015625 0.46875,0.0625 -0.15625,0.0625 -0.171875,0.078125 -0.546875,0.078125 -0.21875,0 -0.34375,0 -0.53125,-0.046875 z m 0,0"
           id="path1870" />
      </symbol>
    </g>
    <g
       id="g7720">
      <symbol
         overflow="visible"
         id="symbol1867">
        <path
           style="stroke:none"
           d=""
           id="path171" />
      </symbol>
      <symbol
         overflow="visible"
         id="symbol8390">
        <path
           style="stroke:none"
           d="M 1.265625,-0.953125 C 1.4375,-0.3125 1.90625,0.109375 2.546875,0.109375 3.734375,0.109375 5,-1.3125 5,-2.78125 c 0,-1.0625 -0.65625,-1.625 -1.375,-1.625 -0.796875,0 -1.796875,0.703125 -2.25,1.96875 -0.046875,0.109375 -0.640625,2.3125 -0.640625,3.203125 0,0.515625 0.1875,0.984375 1.40625,0.984375 0.359375,0 0.5625,-0.046875 0.953125,-0.046875 0.1875,0 0.203125,0 0.265625,0.015625 0.15625,0 0.1875,0.015625 0.203125,0.09375 0,0.0625 0,0.125 0.109375,0.125 0.09375,0 0.15625,-0.046875 0.15625,-0.28125 0,-0.484375 -0.4375,-0.484375 -1.4375,-0.484375 -0.890625,0 -1.359375,0 -1.359375,-0.671875 0,-0.078125 0,-0.453125 0.234375,-1.453125 z m 1.28125,0.84375 c -0.328125,0 -0.734375,-0.234375 -0.734375,-1.046875 0,-0.625 0.296875,-1.625 0.546875,-2.078125 C 2.765625,-3.9375 3.265625,-4.1875 3.59375,-4.1875 c 0.375,0 0.6875,0.296875 0.6875,0.984375 0,0.546875 -0.28125,1.65625 -0.546875,2.140625 -0.328125,0.640625 -0.8125,0.953125 -1.1875,0.953125 z m 0,0"
           id="path8837" />
      </symbol>
    </g>
  </defs>
  <sodipodi:namedview
     id="base"
     pagecolor="#ffffff"
     bordercolor="#666666"
     borderopacity="1.0"
     inkscape:pageopacity="1"
     inkscape:pageshadow="2"
     inkscape:zoom="1.979899"
     inkscape:cx="147.22973"
     inkscape:cy="175.514"
     inkscape:document-units="mm"
     inkscape:current-layer="layer1"
     showgrid="true"
     inkscape:window-width="1920"
     inkscape:window-height="1031"
     inkscape:window-x="0"
     inkscape:window-y="25"
     inkscape:window-maximized="1"
     inkscape:pagecheckerboard="0"
     fit-margin-top="1"
     fit-margin-left="1"
     fit-margin-right="1"
     fit-margin-bottom="1"
     inkscape:snap-global="false"
     lock-margins="true">
    <inkscape:grid
       type="xygrid"
       id="grid815"
       originx="-24.221754"
       originy="-11.7" />
  </sodipodi:namedview>
  <metadata
     id="metadata5">
    <rdf:RDF>
      <cc:Work
         rdf:about="">
        <dc:format>image/svg+xml</dc:format>
        <dc:type
           rdf:resource="http://purl.org/dc/dcmitype/StillImage" />
      </cc:Work>
    </rdf:RDF>
  </metadata>
  <g
     inkscape:label="Layer 1"
     inkscape:groupmode="layer"
     id="layer1"
     transform="translate(-24.221778,-11.7)">
    <path
       style="fill:#0096ff;fill-opacity:1;stroke:#0096ff;stroke-width:0.264583;stroke-linecap:round;stroke-linejoin:round;stroke-miterlimit:4;stroke-dasharray:none;stroke-opacity:1"
       d="m 38.442319,76.186109 v -1.99928 l 0.08859,0.0147 c 0.04872,0.008 0.160345,0.0148 0.248046,0.0149 l 0.15946,2.6e-4 v 1.73632 1.73633 h 5.551524 5.551524 v 0.24805 0.24805 H 44.24189 38.442319 Z"
       id="path55867-8" />
    <path
       style="opacity:0;fill:none;stroke:#000000;stroke-width:0.396875;stroke-linecap:butt;stroke-linejoin:miter;stroke-miterlimit:4;stroke-dasharray:none;stroke-opacity:1;marker-end:url(#marker2217)"
       d="M 88.635417,51.593749 V 29.104166"
       id="path4749"
       inkscape:connector-curvature="0" />
    <path
       style="opacity:0;fill:none;stroke:#000000;stroke-width:0.396875;stroke-linecap:square;stroke-linejoin:miter;stroke-miterlimit:4;stroke-dasharray:none;stroke-opacity:1;marker-end:url(#marker3369)"
       d="M 88.635415,51.593749 H 124.35416"
       id="path4863"
       inkscape:connector-curvature="0" />
    <path
       style="opacity:0;fill:none;stroke:#ffa100;stroke-width:0.529167;stroke-linecap:butt;stroke-linejoin:miter;stroke-miterlimit:4;stroke-dasharray:none;stroke-opacity:1"
       d="M 88.635416,51.59375 C 91.281251,17.197916 99.218751,38.364583 120.38541,38.364583"
       id="path5199"
       inkscape:connector-curvature="0"
       sodipodi:nodetypes="cc" />
    <path
       style="opacity:0;fill:none;stroke:#009ad1;stroke-width:0.529167;stroke-linecap:butt;stroke-linejoin:miter;stroke-miterlimit:4;stroke-dasharray:none;stroke-opacity:1"
       d="m 88.63542,51.59375 c 10e-7,-14.552084 16.56522,-11.906251 31.75,-11.90625"
       id="path5201"
       inkscape:connector-curvature="0"
       sodipodi:nodetypes="cc" />
    <path
       style="opacity:0;fill:none;stroke:#000000;stroke-width:0.396875;stroke-linecap:butt;stroke-linejoin:miter;stroke-miterlimit:4;stroke-dasharray:none;stroke-opacity:1;marker-end:url(#marker5365)"
       d="M 68.791667,50.270833 H 79.375"
       id="path5355"
       inkscape:connector-curvature="0" />
    <path
       style="opacity:0;fill:none;stroke:#000000;stroke-width:0.396875;stroke-linecap:butt;stroke-linejoin:miter;stroke-miterlimit:4;stroke-dasharray:none;stroke-opacity:1;marker-end:url(#marker2217)"
       d="M 88.635416,71.4375 V 55.5625"
       id="path22588"
       inkscape:connector-curvature="0" />
    <path
       style="opacity:0;fill:none;stroke:#000000;stroke-width:0.396875;stroke-linecap:square;stroke-linejoin:miter;stroke-miterlimit:4;stroke-dasharray:none;stroke-opacity:1;marker-end:url(#marker3369)"
       d="M 88.635415,71.4375 H 124.35416"
       id="path22590"
       inkscape:connector-curvature="0" />
    <text
       xml:space="preserve"
       style="font-size:4.23333px;line-height:1.25;font-family:sans-serif;-inkscape-font-specification:sans-serif;letter-spacing:0px;word-spacing:0px;stroke-width:0.264583"
       x="68.791664"
       y="70.114586"
       id="text30796"><tspan
         sodipodi:role="line"
         id="tspan30794"
         style="stroke-width:0.264583"
         x="68.791664"
         y="70.114586" /></text>
    <path
       style="opacity:0;fill:none;stroke:#009ad1;stroke-width:0.529166;stroke-linecap:butt;stroke-linejoin:miter;stroke-miterlimit:4;stroke-dasharray:none;stroke-opacity:1"
       d="M 88.635413,68.791667 C 94.235315,62.930149 109.10912,63.500001 121.70833,63.5"
       id="path46899"
       sodipodi:nodetypes="cc" />
    <path
       style="opacity:0;fill:none;stroke:#ffa100;stroke-width:0.529166;stroke-linecap:butt;stroke-linejoin:miter;stroke-miterlimit:4;stroke-dasharray:none;stroke-opacity:1"
       d="m 88.635412,60.854166 c 3.149802,-3.968749 6.299603,1.322917 33.072918,1.852083"
       id="path47260"
       sodipodi:nodetypes="cc" />
    <text
       xml:space="preserve"
       style="font-size:4.23333px;line-height:1.25;font-family:sans-serif;-inkscape-font-specification:sans-serif;letter-spacing:0px;word-spacing:0px;stroke-width:0.264583"
       x="82.020836"
       y="78.052086"
       id="text48215"><tspan
         sodipodi:role="line"
         id="tspan48213"
         style="stroke-width:0.264583"
         x="82.020836"
         y="78.052086" /></text>
    <path
       style="fill:none;stroke:#000000;stroke-width:0.529167;stroke-linecap:butt;stroke-linejoin:miter;stroke-miterlimit:4;stroke-dasharray:none;stroke-opacity:1"
       d="M 25.486361,29.023042 V 70.509151"
       id="path821-7"
       inkscape:connector-curvature="0" />
    <path
       style="fill:none;stroke:#000000;stroke-width:0.529167;stroke-linecap:butt;stroke-linejoin:miter;stroke-miterlimit:4;stroke-dasharray:none;stroke-opacity:1"
       d="M 43.656244,28.995528 V 70.405392"
       id="path823-9"
       inkscape:connector-curvature="0" />
    <path
       style="fill:none;stroke:#000000;stroke-width:0.264583;stroke-linecap:butt;stroke-linejoin:miter;stroke-miterlimit:4;stroke-dasharray:none;stroke-opacity:1;marker-end:url(#Arrow1Lend-3)"
       d="m 34.571701,12.7 v 8.46667"
       id="path825-2"
       inkscape:connector-curvature="0" />
    <path
       style="fill:none;stroke:#000000;stroke-width:0.264583px;stroke-linecap:butt;stroke-linejoin:miter;stroke-opacity:1;marker-start:url(#StopL-7);marker-end:url(#marker1135-3)"
       d="m 48.947917,29.104167 v 7.9375"
       id="path1125-0"
       inkscape:connector-curvature="0" />
    <path
       style="fill:none;stroke:#000000;stroke-width:0.264583;stroke-linecap:butt;stroke-linejoin:miter;stroke-miterlimit:4;stroke-dasharray:none;stroke-opacity:1;marker-end:url(#Arrow1Mend-6)"
       d="M 52.916661,48.94792 V 44.97917"
       id="path1203-2"
       inkscape:connector-curvature="0" />
    <path
       inkscape:connector-curvature="0"
       id="path1523-3"
       d="m 52.916661,54.23958 v 3.96875"
       style="fill:none;stroke:#000000;stroke-width:0.264583;stroke-linecap:butt;stroke-linejoin:miter;stroke-miterlimit:4;stroke-dasharray:none;stroke-opacity:1;marker-end:url(#marker1527-9)" />
    <path
       style="fill:none;stroke:#000000;stroke-width:0.264583;stroke-linecap:butt;stroke-linejoin:miter;stroke-miterlimit:4;stroke-dasharray:none;stroke-opacity:1;marker-end:url(#marker1923-2)"
       d="M 50.270827,51.59375 H 46.302083"
       id="path1919-7"
       inkscape:connector-curvature="0" />
    <path
       inkscape:connector-curvature="0"
       id="path2051-5"
       d="m 55.562494,51.59375 h 3.968744"
       style="fill:none;stroke:#000000;stroke-width:0.264583;stroke-linecap:butt;stroke-linejoin:miter;stroke-miterlimit:4;stroke-dasharray:none;stroke-opacity:1;marker-end:url(#marker2055-0)" />
    <path
       style="fill:none;stroke:#000000;stroke-width:0.264583;stroke-linecap:butt;stroke-linejoin:miter;stroke-miterlimit:4;stroke-dasharray:none;stroke-opacity:1;marker-end:url(#marker2217-3)"
       d="M 55.562494,48.94792 58.36882,46.14159"
       id="path2213-9"
       inkscape:connector-curvature="0" />
    <path
       inkscape:connector-curvature="0"
       id="path2615-2"
       d="m 50.270827,54.23958 -2.806326,2.80633"
       style="fill:none;stroke:#000000;stroke-width:0.264583;stroke-linecap:butt;stroke-linejoin:miter;stroke-miterlimit:4;stroke-dasharray:none;stroke-opacity:1;marker-end:url(#marker2619-0)" />
    <path
       style="fill:none;stroke:#000000;stroke-width:0.264583;stroke-linecap:butt;stroke-linejoin:miter;stroke-miterlimit:4;stroke-dasharray:none;stroke-opacity:1;marker-end:url(#marker3075-2)"
       d="m 55.562494,54.23958 2.806326,2.80633"
       id="path3071-2"
       inkscape:connector-curvature="0" />
    <path
       inkscape:connector-curvature="0"
       id="path3365-8"
       d="M 50.270827,48.94792 47.464501,46.14159"
       style="fill:none;stroke:#000000;stroke-width:0.264583;stroke-linecap:butt;stroke-linejoin:miter;stroke-miterlimit:4;stroke-dasharray:none;stroke-opacity:1;marker-end:url(#marker3369-1)" />
    <path
       style="opacity:1;fill:none;fill-opacity:0.117647;stroke:#000000;stroke-width:0.529167;stroke-linecap:round;stroke-miterlimit:4;stroke-dasharray:none;stroke-dashoffset:0;stroke-opacity:1"
       id="path4625-9"
       sodipodi:type="arc"
       sodipodi:cx="34.571301"
       sodipodi:cy="29.184427"
       sodipodi:rx="9.0849409"
       sodipodi:ry="3.8393507"
       sodipodi:start="3.7395075"
       sodipodi:end="3.7389482"
       sodipodi:open="true"
       sodipodi:arc-type="arc"
       d="m 27.062495,27.023179 a 9.0849409,3.8393507 0 0 1 12.621853,-1.01232 9.0849409,3.8393507 0 0 1 2.397188,5.333929 9.0849409,3.8393507 0 0 1 -12.621183,1.013812 9.0849409,3.8393507 0 0 1 -2.400717,-5.333646" />
    <path
       style="fill:none;stroke:#000000;stroke-width:0.264583px;stroke-linecap:butt;stroke-linejoin:miter;stroke-opacity:1"
       d="m 38.288765,74.105609 v 4.23333 h 11.90625"
       id="path5072-7" />
    <path
       style="fill:none;stroke:#000000;stroke-width:0.264583px;stroke-linecap:butt;stroke-linejoin:miter;stroke-opacity:1"
       d="m 39.082516,73.841019 v 3.70417 h 11.1125"
       id="path5187-3" />
    <text
       xml:space="preserve"
       style="font-size:4.23333px;line-height:1.25;font-family:sans-serif;-inkscape-font-specification:sans-serif;letter-spacing:0px;word-spacing:0px;stroke-width:0.264583"
       x="46.680897"
       y="76.536423"
       id="text6019-6"><tspan
         sodipodi:role="line"
         id="tspan6017-1"
         style="stroke-width:0.264583"
         x="46.680897"
         y="76.536423">u</tspan></text>
    <text
       xml:space="preserve"
       style="font-size:4.93889px;line-height:1.25;font-family:sans-serif;-inkscape-font-specification:sans-serif;letter-spacing:0px;word-spacing:0px;stroke-width:0.264583"
       x="51.458023"
       y="33.374874"
       id="text10648-1"><tspan
         sodipodi:role="line"
         id="tspan10646-9"
         style="font-size:4.93889px;stroke-width:0.264583"
         x="51.458023"
         y="33.374874">s</tspan></text>
    <text
       xml:space="preserve"
       style="font-size:4.93889px;line-height:1.25;font-family:sans-serif;-inkscape-font-specification:sans-serif;letter-spacing:0px;word-spacing:0px;stroke-width:0.264583"
       x="37.996555"
       y="18.014566"
       id="text11840-4"><tspan
         sodipodi:role="line"
         id="tspan11838-7"
         style="font-size:4.93889px;stroke-width:0.264583"
         x="37.996555"
         y="18.014566">F</tspan></text>
    <path
       style="opacity:1;fill:none;fill-opacity:0.117647;stroke:#000000;stroke-width:0.529167;stroke-linecap:round;stroke-miterlimit:4;stroke-dasharray:none;stroke-dashoffset:0;stroke-opacity:1"
       id="path4113"
       sodipodi:type="arc"
       sodipodi:cx="34.571301"
       sodipodi:cy="36.034164"
       sodipodi:rx="9.085"
       sodipodi:ry="3.8393507"
       sodipodi:start="6.2790539"
       sodipodi:end="3.136909"
       sodipodi:open="true"
       sodipodi:arc-type="arc"
       d="M 43.656223,36.018303 A 9.085,3.8393507 0 0 1 34.611343,39.873478 9.085,3.8393507 0 0 1 25.4864,36.052147" />
    <path
       style="opacity:1;fill:none;fill-opacity:0.117647;stroke:#000000;stroke-width:0.529167;stroke-linecap:round;stroke-miterlimit:4;stroke-dasharray:none;stroke-dashoffset:0;stroke-opacity:1"
       id="path4315"
       sodipodi:type="arc"
       sodipodi:cx="34.571301"
       sodipodi:cy="63.578644"
       sodipodi:rx="9.0849409"
       sodipodi:ry="3.8393507"
       sodipodi:start="6.2761869"
       sodipodi:end="3.1395097"
       sodipodi:open="true"
       sodipodi:arc-type="arc"
       d="m 43.656019,63.551775 a 9.0849409,3.8393507 0 0 1 -4.500143,3.341507 9.0849409,3.8393507 0 0 1 -9.097735,0.01746 9.0849409,3.8393507 0 0 1 -4.571762,-3.324099" />
    <path
       style="opacity:1;fill:none;fill-opacity:0.117647;stroke:#000000;stroke-width:0.529167;stroke-linecap:round;stroke-miterlimit:4;stroke-dasharray:none;stroke-dashoffset:0;stroke-opacity:1"
       id="path4317"
       sodipodi:type="arc"
       sodipodi:cx="34.571301"
       sodipodi:cy="70.428383"
       sodipodi:rx="9.085"
       sodipodi:ry="3.8393507"
       sodipodi:start="6.2790539"
       sodipodi:end="3.136909"
       sodipodi:open="true"
       sodipodi:arc-type="arc"
       d="M 43.656223,70.412521 A 9.085,3.8393507 0 0 1 34.611343,74.267696 9.085,3.8393507 0 0 1 25.4864,70.446365" />
    <path
       style="fill:#b4b4b4;fill-opacity:1;stroke:none;stroke-width:0.529167;stroke-linecap:square;stroke-linejoin:round;stroke-miterlimit:4;stroke-dasharray:none"
       d="m 33.68278,32.729771 c -4.129201,-0.184846 -7.429359,-1.530046 -7.876851,-3.210737 -0.149522,-0.561576 0.127462,-1.235827 0.720301,-1.753397 0.416358,-0.363495 0.668331,-0.523729 1.347702,-0.857036 1.418631,-0.695989 3.31125,-1.122116 5.576496,-1.255553 0.581179,-0.03424 2.202011,-0.01863 2.723703,0.02625 3.149372,0.270838 5.622031,1.13787 6.697075,2.348312 0.763415,0.859565 0.654629,1.785549 -0.307681,2.61892 -1.262944,1.093722 -3.738613,1.862175 -6.621749,2.0554 -0.553706,0.03711 -1.72853,0.05159 -2.258996,0.02784 z"
       id="path4756" />
    <path
       style="fill:#b4b4b4;fill-opacity:1;stroke:none;stroke-width:0.529167;stroke-linecap:square;stroke-linejoin:round;stroke-miterlimit:4;stroke-dasharray:none"
       d="m 33.479625,39.568805 c -3.835493,-0.198122 -6.97856,-1.44273 -7.617294,-3.016337 l -0.07959,-0.196067 -0.007,-2.86512 -0.007,-2.865122 0.187724,0.193172 c 1.153683,1.187159 3.460375,2.044758 6.345102,2.359028 0.803622,0.08755 1.194747,0.105605 2.271906,0.104894 0.639741,-5.3e-4 1.264076,-0.01418 1.497396,-0.03299 2.54876,-0.20548 4.593767,-0.747911 6.035003,-1.600763 0.418827,-0.247843 0.695618,-0.457401 1.006609,-0.762114 l 0.264626,-0.259278 v 2.787724 c 0,3.075969 0.0083,2.91152 -0.164909,3.276192 -0.381664,0.803659 -1.56313,1.589236 -3.189359,2.120662 -1.828263,0.597445 -4.233717,0.875414 -6.543212,0.756118 z"
       id="path5017" />
    <path
       style="fill:#b4b4b4;fill-opacity:1;stroke:none;stroke-width:0.529167;stroke-linecap:square;stroke-linejoin:round;stroke-miterlimit:4;stroke-dasharray:none"
       d="m 33.514971,73.968649 c -1.064925,-0.06045 -2.194494,-0.210187 -3.099184,-0.410837 -2.271346,-0.503756 -3.967085,-1.431221 -4.475838,-2.448007 -0.178676,-0.3571 -0.17015,-0.191643 -0.169746,-3.294229 l 3.7e-4,-2.802186 0.127574,0.144703 c 0.409603,0.464601 1.201206,0.9837 2.064559,1.353847 1.335356,0.57251 2.871453,0.925719 4.829391,1.110459 0.588939,0.05557 2.272168,0.07822 2.930239,0.03943 3.38047,-0.199271 6.110648,-1.085427 7.427079,-2.410664 l 0.227695,-0.229216 -2.64e-4,2.783972 c -5.29e-4,3.05779 0.005,2.945151 -0.157716,3.268305 -0.422111,0.838232 -1.481505,1.553742 -3.107769,2.098974 -1.159457,0.388726 -2.396778,0.626637 -3.962924,0.761979 -0.31488,0.02721 -2.299284,0.05244 -2.633345,0.03347 z"
       id="path5095" />
    <path
       style="fill:#ffb800;fill-opacity:1;stroke:none;stroke-width:0.529167;stroke-linecap:square;stroke-linejoin:round;stroke-miterlimit:4;stroke-dasharray:none"
       d="m 33.06053,67.07006 c -0.140565,-0.01646 -0.567743,-0.0639 -0.949283,-0.105469 -1.926973,-0.20992 -3.995524,-0.864203 -5.076979,-1.605851 -0.424381,-0.291036 -0.898214,-0.784619 -1.081025,-1.126085 l -0.158382,-0.295833 -0.01923,-13.208889 -0.01923,-13.208889 0.311315,0.286546 c 1.197501,1.102223 3.253384,1.860725 6.043528,2.229715 1.069983,0.141502 4.066728,0.11833 5.20945,-0.04029 2.561844,-0.355589 4.647668,-1.14567 5.718228,-2.165977 l 0.31768,-0.302768 v 13.172681 13.172678 l -0.189069,0.379412 c -0.480015,0.963263 -2.106451,1.876539 -4.22875,2.374527 -1.393553,0.326991 -2.238055,0.422291 -3.979688,0.449096 -0.903645,0.01392 -1.758,0.01183 -1.898568,-0.0046 z"
       id="path5455" />
    <g
       inkscape:label=""
       transform="matrix(0.50951461,0,0,0.50951461,3.586637,10.877896)"
       id="g1282"
       style="stroke-width:1.96266">
      <g
         id="g5249"
         style="stroke-width:1.96266">
        <g
           style="fill:#000000;fill-opacity:1;stroke-width:1.96266"
           id="g6708">
          <use
             xlink:href="#symbol397"
             x="91.925003"
             y="81.962997"
             id="use5582"
             width="100%"
             height="100%"
             style="stroke-width:1.96266" />
        </g>
        <g
           style="fill:#000000;fill-opacity:1;stroke-width:1.96266"
           id="g7331">
          <use
             xlink:href="#symbol3981"
             x="97.617996"
             y="83.457001"
             id="use3309"
             width="100%"
             height="100%"
             style="stroke-width:1.96266" />
        </g>
      </g>
    </g>
    <g
       inkscape:label=""
       transform="matrix(0.7,0,0,0.7,17.596252,-24.084014)"
       id="g1670"
       style="stroke-width:1.42857;opacity:0">
      <g
         id="g1567"
         style="stroke-width:1.42857">
        <g
           style="fill:#000000;fill-opacity:1;stroke-width:1.42857"
           id="g9680">
          <use
             xlink:href="#symbol4647"
             x="91.925003"
             y="81.962997"
             id="use6201"
             width="100%"
             height="100%"
             style="stroke-width:1.42857" />
        </g>
      </g>
    </g>
    <g
       inkscape:label=""
       transform="matrix(0.7,0,0,0.7,55.660697,-0.52647642)"
       id="g1936"
       style="stroke-width:1.42857;opacity:0">
      <g
         id="g3071"
         style="stroke-width:1.42857">
        <g
           style="fill:#000000;fill-opacity:1;stroke-width:1.42857"
           id="g159">
          <use
             xlink:href="#symbol6533"
             x="91.925003"
             y="81.962997"
             id="use9818"
             width="100%"
             height="100%"
             style="stroke-width:1.42857" />
        </g>
      </g>
    </g>
    <g
       inkscape:label=""
       transform="matrix(0.7,0,0,0.7,17.833173,1.9141854)"
       id="g2220"
       style="stroke-width:1.42857;opacity:0">
      <g
         id="g1796"
         style="stroke-width:1.42857">
        <g
           style="fill:#000000;fill-opacity:1;stroke-width:1.42857"
           id="g3871">
          <use
             xlink:href="#symbol8390"
             x="91.925003"
             y="81.962997"
             id="use4668"
             width="100%"
             height="100%"
             style="stroke-width:1.42857" />
        </g>
      </g>
    </g>
    <g
       inkscape:label=""
       transform="matrix(0.7,0,0,0.7,55.660697,18.932569)"
       id="g2498"
       style="stroke-width:1.42857;opacity:0">
      <g
         id="g2496"
         style="stroke-width:1.42857">
        <g
           style="fill:#000000;fill-opacity:1;stroke-width:1.42857"
           id="g2494">
          <use
             xlink:href="#symbol6533"
             x="91.925003"
             y="81.962997"
             id="use2492"
             width="100%"
             height="100%"
             style="stroke-width:1.42857" />
        </g>
      </g>
    </g>
  </g>
</svg>
