<?xml version="1.0" encoding="UTF-8" standalone="no"?>
<!-- Created with Inkscape (http://www.inkscape.org/) -->

<svg
   width="40.477291mm"
   height="64.177986mm"
   viewBox="0 0 40.477291 64.177986"
   version="1.1"
   id="svg3625"
   inkscape:version="1.1.2 (0a00cf5339, 2022-02-04)"
   sodipodi:docname="Triax_stressStrain.svg"
   xmlns:inkscape="http://www.inkscape.org/namespaces/inkscape"
   xmlns:sodipodi="http://sodipodi.sourceforge.net/DTD/sodipodi-0.dtd"
   xmlns:xlink="http://www.w3.org/1999/xlink"
   xmlns="http://www.w3.org/2000/svg"
   xmlns:svg="http://www.w3.org/2000/svg">
  <sodipodi:namedview
     id="namedview3627"
     pagecolor="#ffffff"
     bordercolor="#999999"
     borderopacity="1"
     inkscape:pageshadow="0"
     inkscape:pageopacity="0"
     inkscape:pagecheckerboard="0"
     inkscape:document-units="mm"
     showgrid="true"
     inkscape:zoom="2.5620932"
     inkscape:cx="122.36089"
     inkscape:cy="130.94762"
     inkscape:window-width="1920"
     inkscape:window-height="1031"
     inkscape:window-x="0"
     inkscape:window-y="25"
     inkscape:window-maximized="1"
     inkscape:current-layer="layer1"
     fit-margin-top="0"
     fit-margin-left="0"
     fit-margin-right="0"
     fit-margin-bottom="0">
    <inkscape:grid
       type="xygrid"
       id="grid15667"
       originx="-12.284183"
       originy="-15.34583" />
  </sodipodi:namedview>
  <defs
     id="defs3622">
    <marker
       inkscape:stockid="Arrow1Lend"
       orient="auto"
       refY="0"
       refX="0"
       id="Arrow1Lend"
       style="overflow:visible"
       inkscape:isstock="true"
       inkscape:collect="always">
      <path
         id="path830"
         d="M 0,0 5,-5 -12.5,0 5,5 Z"
         style="fill:#000000;fill-opacity:1;fill-rule:evenodd;stroke:#000000;stroke-width:1pt;stroke-opacity:1"
         transform="matrix(-0.8,0,0,-0.8,-10,0)" />
    </marker>
    <marker
       inkscape:stockid="StopL"
       orient="auto"
       refY="0"
       refX="0"
       id="StopL"
       style="overflow:visible"
       inkscape:isstock="true">
      <path
         id="path996"
         d="M 0,5.65 V -5.65"
         style="fill:none;fill-opacity:0.75;fill-rule:evenodd;stroke:#000000;stroke-width:1pt;stroke-opacity:1"
         transform="scale(0.8)" />
    </marker>
    <marker
       inkscape:isstock="true"
       style="overflow:visible"
       id="marker1135"
       refX="0"
       refY="0"
       orient="auto"
       inkscape:stockid="Arrow1Lend"
       inkscape:collect="always">
      <path
         transform="matrix(-0.8,0,0,-0.8,-10,0)"
         style="fill:#000000;fill-opacity:1;fill-rule:evenodd;stroke:#000000;stroke-width:1pt;stroke-opacity:1"
         d="M 0,0 5,-5 -12.5,0 5,5 Z"
         id="path1133" />
    </marker>
    <marker
       inkscape:stockid="Arrow1Mend"
       orient="auto"
       refY="0"
       refX="0"
       id="marker3075"
       style="overflow:visible"
       inkscape:isstock="true">
      <path
         id="path3073"
         d="M 0,0 5,-5 -12.5,0 5,5 Z"
         style="fill:#000000;fill-opacity:1;fill-rule:evenodd;stroke:#000000;stroke-width:1pt;stroke-opacity:1"
         transform="matrix(-0.4,0,0,-0.4,-4,0)" />
    </marker>
    <g
       id="g6632">
      <symbol
         overflow="visible"
         id="symbol188">
        <path
           style="stroke:none;"
           d=""
           id="path4639" />
      </symbol>
      <symbol
         overflow="visible"
         id="symbol1951">
        <path
           style="stroke:none;"
           d="M 5.15625 -3.71875 C 5.296875 -3.71875 5.65625 -3.71875 5.65625 -4.0625 C 5.65625 -4.296875 5.4375 -4.296875 5.265625 -4.296875 L 2.984375 -4.296875 C 1.484375 -4.296875 0.375 -2.65625 0.375 -1.46875 C 0.375 -0.59375 0.96875 0.109375 1.875 0.109375 C 3.046875 0.109375 4.375 -1.09375 4.375 -2.625 C 4.375 -2.796875 4.375 -3.28125 4.0625 -3.71875 Z M 1.890625 -0.109375 C 1.390625 -0.109375 1 -0.46875 1 -1.1875 C 1 -1.484375 1.109375 -2.296875 1.46875 -2.890625 C 1.890625 -3.578125 2.484375 -3.71875 2.828125 -3.71875 C 3.65625 -3.71875 3.734375 -3.0625 3.734375 -2.75 C 3.734375 -2.28125 3.53125 -1.46875 3.203125 -0.953125 C 2.8125 -0.375 2.265625 -0.109375 1.890625 -0.109375 Z M 1.890625 -0.109375 "
           id="path2489" />
      </symbol>
      <symbol
         overflow="visible"
         id="symbol5225">
        <path
           style="stroke:none;"
           d=""
           id="path1091" />
      </symbol>
      <symbol
         overflow="visible"
         id="symbol7008">
        <path
           style="stroke:none;"
           d="M 1.90625 -2.328125 C 2.453125 -2.328125 2.84375 -1.953125 2.84375 -1.203125 C 2.84375 -0.34375 2.328125 -0.078125 1.9375 -0.078125 C 1.65625 -0.078125 1.03125 -0.15625 0.75 -0.578125 C 1.078125 -0.578125 1.15625 -0.8125 1.15625 -0.96875 C 1.15625 -1.1875 0.984375 -1.34375 0.765625 -1.34375 C 0.578125 -1.34375 0.375 -1.21875 0.375 -0.9375 C 0.375 -0.28125 1.09375 0.140625 1.9375 0.140625 C 2.90625 0.140625 3.578125 -0.515625 3.578125 -1.203125 C 3.578125 -1.75 3.140625 -2.296875 2.375 -2.453125 C 3.09375 -2.71875 3.359375 -3.234375 3.359375 -3.671875 C 3.359375 -4.21875 2.734375 -4.625 1.953125 -4.625 C 1.1875 -4.625 0.59375 -4.25 0.59375 -3.6875 C 0.59375 -3.453125 0.75 -3.328125 0.953125 -3.328125 C 1.171875 -3.328125 1.3125 -3.484375 1.3125 -3.671875 C 1.3125 -3.875 1.171875 -4.03125 0.953125 -4.046875 C 1.203125 -4.34375 1.671875 -4.421875 1.9375 -4.421875 C 2.25 -4.421875 2.6875 -4.265625 2.6875 -3.671875 C 2.6875 -3.375 2.59375 -3.046875 2.40625 -2.84375 C 2.1875 -2.578125 1.984375 -2.5625 1.640625 -2.53125 C 1.46875 -2.515625 1.453125 -2.515625 1.421875 -2.515625 C 1.40625 -2.515625 1.34375 -2.5 1.34375 -2.421875 C 1.34375 -2.328125 1.40625 -2.328125 1.53125 -2.328125 Z M 1.90625 -2.328125 "
           id="path7267" />
      </symbol>
    </g>
    <g
       id="g21">
      <symbol
         overflow="visible"
         id="symbol9717">
        <path
           style="stroke:none;"
           d=""
           id="path6965" />
      </symbol>
      <symbol
         overflow="visible"
         id="symbol1442">
        <path
           style="stroke:none;"
           d="M 5.15625 -3.71875 C 5.296875 -3.71875 5.65625 -3.71875 5.65625 -4.0625 C 5.65625 -4.296875 5.4375 -4.296875 5.265625 -4.296875 L 2.984375 -4.296875 C 1.484375 -4.296875 0.375 -2.65625 0.375 -1.46875 C 0.375 -0.59375 0.96875 0.109375 1.875 0.109375 C 3.046875 0.109375 4.375 -1.09375 4.375 -2.625 C 4.375 -2.796875 4.375 -3.28125 4.0625 -3.71875 Z M 1.890625 -0.109375 C 1.390625 -0.109375 1 -0.46875 1 -1.1875 C 1 -1.484375 1.109375 -2.296875 1.46875 -2.890625 C 1.890625 -3.578125 2.484375 -3.71875 2.828125 -3.71875 C 3.65625 -3.71875 3.734375 -3.0625 3.734375 -2.75 C 3.734375 -2.28125 3.53125 -1.46875 3.203125 -0.953125 C 2.8125 -0.375 2.265625 -0.109375 1.890625 -0.109375 Z M 1.890625 -0.109375 "
           id="path6013" />
      </symbol>
      <symbol
         overflow="visible"
         id="symbol5201">
        <path
           style="stroke:none;"
           d=""
           id="path2980" />
      </symbol>
      <symbol
         overflow="visible"
         id="symbol2346">
        <path
           style="stroke:none;"
           d="M 2.328125 -4.4375 C 2.328125 -4.625 2.328125 -4.625 2.125 -4.625 C 1.671875 -4.1875 1.046875 -4.1875 0.765625 -4.1875 L 0.765625 -3.9375 C 0.921875 -3.9375 1.390625 -3.9375 1.765625 -4.125 L 1.765625 -0.578125 C 1.765625 -0.34375 1.765625 -0.25 1.078125 -0.25 L 0.8125 -0.25 L 0.8125 0 C 0.9375 0 1.796875 -0.03125 2.046875 -0.03125 C 2.265625 -0.03125 3.140625 0 3.296875 0 L 3.296875 -0.25 L 3.03125 -0.25 C 2.328125 -0.25 2.328125 -0.34375 2.328125 -0.578125 Z M 2.328125 -4.4375 "
           id="path8984" />
      </symbol>
    </g>
    <g
       id="g9987">
      <symbol
         overflow="visible"
         id="symbol8864">
        <path
           style="stroke:none;"
           d=""
           id="path2048" />
      </symbol>
      <symbol
         overflow="visible"
         id="symbol9148">
        <path
           style="stroke:none;"
           d="M 1.40625 -2.265625 C 1.734375 -2.125 2.03125 -2.125 2.265625 -2.125 C 2.515625 -2.125 3.078125 -2.125 3.078125 -2.4375 C 3.078125 -2.671875 2.71875 -2.703125 2.34375 -2.703125 C 2.140625 -2.703125 1.78125 -2.6875 1.421875 -2.515625 C 1.1875 -2.625 1.015625 -2.828125 1.015625 -3.09375 C 1.015625 -3.703125 2 -4.0625 2.890625 -4.0625 C 3.046875 -4.0625 3.40625 -4.0625 3.8125 -3.78125 C 3.921875 -3.703125 3.9375 -3.671875 4 -3.671875 C 4.140625 -3.671875 4.28125 -3.8125 4.28125 -3.953125 C 4.28125 -4.140625 3.671875 -4.515625 2.984375 -4.515625 C 1.84375 -4.515625 0.765625 -3.84375 0.765625 -3.09375 C 0.765625 -2.65625 1.125 -2.40625 1.171875 -2.375 C 0.578125 -2.046875 0.265625 -1.5 0.265625 -1.03125 C 0.265625 -0.390625 0.828125 0.21875 1.890625 0.21875 C 3.203125 0.21875 3.765625 -0.65625 3.765625 -0.8125 C 3.765625 -0.875 3.703125 -0.90625 3.65625 -0.90625 C 3.59375 -0.90625 3.5625 -0.875 3.546875 -0.84375 C 3.40625 -0.609375 3.171875 -0.234375 1.96875 -0.234375 C 1.359375 -0.234375 0.515625 -0.390625 0.515625 -1.09375 C 0.515625 -1.4375 0.796875 -1.96875 1.40625 -2.265625 Z M 1.734375 -2.390625 C 1.96875 -2.46875 2.171875 -2.484375 2.34375 -2.484375 C 2.59375 -2.484375 2.625 -2.46875 2.8125 -2.421875 C 2.65625 -2.359375 2.640625 -2.34375 2.265625 -2.34375 C 2.046875 -2.34375 1.921875 -2.34375 1.734375 -2.390625 Z M 1.734375 -2.390625 "
           id="path3184" />
      </symbol>
      <symbol
         overflow="visible"
         id="symbol2940">
        <path
           style="stroke:none;"
           d=""
           id="path8187" />
      </symbol>
      <symbol
         overflow="visible"
         id="symbol3441">
        <path
           style="stroke:none;"
           d="M 2.328125 -4.4375 C 2.328125 -4.625 2.328125 -4.625 2.125 -4.625 C 1.671875 -4.1875 1.046875 -4.1875 0.765625 -4.1875 L 0.765625 -3.9375 C 0.921875 -3.9375 1.390625 -3.9375 1.765625 -4.125 L 1.765625 -0.578125 C 1.765625 -0.34375 1.765625 -0.25 1.078125 -0.25 L 0.8125 -0.25 L 0.8125 0 C 0.9375 0 1.796875 -0.03125 2.046875 -0.03125 C 2.265625 -0.03125 3.140625 0 3.296875 0 L 3.296875 -0.25 L 3.03125 -0.25 C 2.328125 -0.25 2.328125 -0.34375 2.328125 -0.578125 Z M 2.328125 -4.4375 "
           id="path4368" />
      </symbol>
    </g>
  </defs>
  <g
     inkscape:label="Layer 1"
     inkscape:groupmode="layer"
     id="layer1"
     transform="translate(-12.2842, -15.3458)">
    <path
       style="fill:none;stroke:#000000;stroke-width:0.529167;stroke-linecap:butt;stroke-linejoin:miter;stroke-miterlimit:4;stroke-dasharray:none;stroke-opacity:1"
       d="M 22.474303,30.075628 V 71.561737"
       id="path821"
       inkscape:connector-curvature="0" />
    <path
       style="fill:none;stroke:#000000;stroke-width:0.529167;stroke-linecap:butt;stroke-linejoin:miter;stroke-miterlimit:4;stroke-dasharray:none;stroke-opacity:1"
       d="M 40.644186,30.048114 V 71.457978"
       id="path823"
       inkscape:connector-curvature="0" />
    <path
       style="fill:none;stroke:#000000;stroke-width:0.264583;stroke-linecap:butt;stroke-linejoin:miter;stroke-miterlimit:4;stroke-dasharray:none;stroke-opacity:1;marker-end:url(#Arrow1Lend)"
       d="M 31.557906,15.34583 V 23.8125"
       id="path825"
       inkscape:connector-curvature="0" />
    <path
       style="fill:none;stroke:#000000;stroke-width:0.264583px;stroke-linecap:butt;stroke-linejoin:miter;stroke-opacity:1;marker-start:url(#StopL);marker-end:url(#marker1135)"
       d="m 44.185415,30.427083 v 7.9375"
       id="path1125"
       inkscape:connector-curvature="0" />
    <path
       style="opacity:1;fill:none;fill-opacity:0.117647;stroke:#000000;stroke-width:0.529167;stroke-linecap:round;stroke-miterlimit:4;stroke-dasharray:none;stroke-dashoffset:0;stroke-opacity:1"
       id="path4625"
       sodipodi:type="arc"
       sodipodi:cx="31.559242"
       sodipodi:cy="30.237013"
       sodipodi:rx="9.0849409"
       sodipodi:ry="3.8393507"
       sodipodi:start="3.7395075"
       sodipodi:end="3.7389482"
       sodipodi:open="true"
       sodipodi:arc-type="arc"
       d="m 24.050437,28.075764 a 9.0849409,3.8393507 0 0 1 12.621853,-1.01232 9.0849409,3.8393507 0 0 1 2.397187,5.33393 9.0849409,3.8393507 0 0 1 -12.621182,1.013811 9.0849409,3.8393507 0 0 1 -2.400717,-5.333645" />
    <path
       style="fill:none;stroke:#000000;stroke-width:0.264583px;stroke-linecap:butt;stroke-linejoin:miter;stroke-opacity:1"
       d="m 35.276707,75.158195 v 4.23333 h 11.90625"
       id="path5072" />
    <path
       style="fill:none;stroke:#000000;stroke-width:0.264583px;stroke-linecap:butt;stroke-linejoin:miter;stroke-opacity:1"
       d="m 36.070458,74.893605 v 3.70417 h 11.1125"
       id="path5187" />
    <text
       xml:space="preserve"
       style="font-size:4.23333px;line-height:1.25;font-family:sans-serif;-inkscape-font-specification:sans-serif;letter-spacing:0px;word-spacing:0px;stroke-width:0.264583"
       x="43.668842"
       y="77.589005"
       id="text6019"><tspan
         sodipodi:role="line"
         id="tspan6017"
         style="stroke-width:0.264583"
         x="43.668842"
         y="77.589005">u</tspan></text>
    <path
       style="fill:#0096ff;fill-opacity:1;stroke:#0096ff;stroke-width:0.264583;stroke-linecap:round;stroke-linejoin:round;stroke-miterlimit:4;stroke-dasharray:none;stroke-opacity:1"
       d="m 35.430261,77.238695 v -1.99928 l 0.08859,0.0147 c 0.04872,0.008 0.160345,0.0148 0.248046,0.0149 l 0.15946,2.6e-4 v 1.73632 1.73633 h 5.551524 5.551524 v 0.24805 0.24805 h -5.799573 -5.799571 z"
       id="path55867" />
    <path
       style="opacity:1;fill:none;fill-opacity:0.117647;stroke:#000000;stroke-width:0.529167;stroke-linecap:round;stroke-miterlimit:4;stroke-dasharray:none;stroke-dashoffset:0;stroke-opacity:1"
       id="path4113"
       sodipodi:type="arc"
       sodipodi:cx="31.559242"
       sodipodi:cy="37.086754"
       sodipodi:rx="9.085"
       sodipodi:ry="3.8393507"
       sodipodi:start="6.2790539"
       sodipodi:end="3.136909"
       sodipodi:open="true"
       sodipodi:arc-type="arc"
       d="m 40.644165,37.070892 a 9.085,3.8393507 0 0 1 -9.04488,3.855175 9.085,3.8393507 0 0 1 -9.124943,-3.821331" />
    <path
       style="opacity:1;fill:none;fill-opacity:0.117647;stroke:#000000;stroke-width:0.529167;stroke-linecap:round;stroke-miterlimit:4;stroke-dasharray:none;stroke-dashoffset:0;stroke-opacity:1"
       id="path4315"
       sodipodi:type="arc"
       sodipodi:cx="31.559242"
       sodipodi:cy="64.631226"
       sodipodi:rx="9.0849409"
       sodipodi:ry="3.8393507"
       sodipodi:start="6.2761869"
       sodipodi:end="3.1395097"
       sodipodi:open="true"
       sodipodi:arc-type="arc"
       d="m 40.643961,64.604356 a 9.0849409,3.8393507 0 0 1 -4.500143,3.341508 9.0849409,3.8393507 0 0 1 -9.097735,0.01746 9.0849409,3.8393507 0 0 1 -4.571762,-3.324099" />
    <path
       style="opacity:1;fill:none;fill-opacity:0.117647;stroke:#000000;stroke-width:0.529167;stroke-linecap:round;stroke-miterlimit:4;stroke-dasharray:none;stroke-dashoffset:0;stroke-opacity:1"
       id="path4317"
       sodipodi:type="arc"
       sodipodi:cx="31.559242"
       sodipodi:cy="71.480965"
       sodipodi:rx="9.085"
       sodipodi:ry="3.8393507"
       sodipodi:start="6.2790539"
       sodipodi:end="3.136909"
       sodipodi:open="true"
       sodipodi:arc-type="arc"
       d="m 40.644165,71.465103 a 9.085,3.8393507 0 0 1 -9.04488,3.855175 9.085,3.8393507 0 0 1 -9.124943,-3.821331" />
    <path
       style="fill:#b4b4b4;fill-opacity:1;stroke:none;stroke-width:2;stroke-linecap:square;stroke-linejoin:round;stroke-miterlimit:4;stroke-dasharray:none"
       d="m 115.92084,127.68135 c -15.60643,-0.69863 -28.079467,-5.78285 -29.770775,-12.13507 -0.565123,-2.12249 0.481746,-4.67084 2.722396,-6.62701 1.573636,-1.37384 2.525977,-1.97945 5.093678,-3.23919 5.361757,-2.63051 12.514961,-4.24107 21.076521,-4.7454 2.19658,-0.1294 8.32256,-0.0704 10.29431,0.0992 11.90314,1.02364 21.24862,4.30061 25.31178,8.87551 2.88535,3.24875 2.47419,6.74853 -1.16289,9.89828 -4.77333,4.13375 -14.13019,7.03814 -25.02708,7.76844 -2.09275,0.14026 -6.53303,0.19498 -8.53794,0.10523 z"
       id="path4756"
       transform="scale(0.26458333)" />
    <path
       style="fill:#b4b4b4;fill-opacity:1;stroke:none;stroke-width:2;stroke-linecap:square;stroke-linejoin:round;stroke-miterlimit:4;stroke-dasharray:none"
       d="m 115.15301,153.52967 c -14.49635,-0.74881 -26.375659,-5.45284 -28.789773,-11.40033 l -0.300792,-0.74104 -0.02647,-10.8288 -0.02647,-10.82881 0.709507,0.7301 c 4.360375,4.4869 13.078584,7.72822 23.981488,8.91601 3.03731,0.33089 4.51558,0.39914 8.58673,0.39645 2.41792,-0.002 4.77761,-0.0536 5.65945,-0.12468 9.63311,-0.77662 17.36227,-2.82675 22.80946,-6.05013 1.58297,-0.93673 2.62911,-1.72876 3.80451,-2.88043 l 1.00016,-0.97995 v 10.53628 c 0,11.62571 0.0313,11.00417 -0.62328,12.38246 -1.44251,3.03745 -5.90789,6.00656 -12.05427,8.0151 -6.90997,2.25806 -16.00145,3.30865 -24.73025,2.85777 z"
       id="path5017"
       transform="scale(0.26458333)" />
    <path
       style="fill:#b4b4b4;fill-opacity:1;stroke:none;stroke-width:2;stroke-linecap:square;stroke-linejoin:round;stroke-miterlimit:4;stroke-dasharray:none"
       d="m 115.2866,283.54483 c -4.02491,-0.22846 -8.29415,-0.79441 -11.71345,-1.55277 -8.584616,-1.90396 -14.993706,-5.40934 -16.916552,-9.25231 -0.675313,-1.34967 -0.643089,-0.72432 -0.641561,-12.45063 l 0.0014,-10.59094 0.482167,0.54691 c 1.548108,1.75597 4.539992,3.71792 7.803059,5.1169 5.047014,2.16382 10.852737,3.49878 18.252817,4.19701 2.22591,0.21003 8.58772,0.29562 11.07492,0.14901 12.77658,-0.75315 23.09536,-4.1024 28.07085,-9.11117 l 0.86058,-0.86633 -0.001,10.5221 c -0.002,11.557 0.0189,11.13128 -0.59609,12.35265 -1.59538,3.16812 -5.59939,5.87241 -11.7459,7.93313 -4.3822,1.4692 -9.05869,2.36839 -14.97798,2.87992 -1.1901,0.10285 -8.69021,0.19819 -9.9528,0.12652 z"
       id="path5095"
       transform="scale(0.26458333)" />
    <path
       style="fill:#ffb800;fill-opacity:1;stroke:none;stroke-width:2;stroke-linecap:square;stroke-linejoin:round;stroke-miterlimit:4;stroke-dasharray:none"
       d="m 113.56903,257.47142 c -0.53127,-0.0622 -2.1458,-0.24152 -3.58784,-0.39862 -7.28305,-0.7934 -15.101194,-3.26628 -19.188583,-6.06936 -1.603961,-1.09998 -3.394825,-2.96549 -4.085766,-4.25607 l -0.598607,-1.11811 -0.07267,-49.92336 -0.07267,-49.92336 1.176626,1.08301 c 4.525986,4.16588 12.296252,7.03266 22.84168,8.42727 4.04403,0.53481 15.37031,0.44723 19.68926,-0.15226 9.68256,-1.34396 17.56599,-4.33009 21.6122,-8.18637 l 1.20068,-1.14432 v 49.78651 49.7865 l -0.71459,1.434 c -1.81423,3.64068 -7.96139,7.09243 -15.98268,8.97459 -5.26697,1.23587 -8.45879,1.59606 -15.04134,1.69737 -3.41535,0.0526 -6.64441,0.0447 -7.17569,-0.0174 z"
       id="path5455"
       transform="scale(0.26458333)" />
    <path
       style="fill:none;stroke:#000000;stroke-width:0.264583;stroke-linecap:butt;stroke-linejoin:miter;stroke-miterlimit:4;stroke-dasharray:none;stroke-opacity:1;marker-end:url(#Arrow1Lend)"
       d="M 52.12292,51.59375 H 43.65625"
       id="path15669"
       inkscape:connector-curvature="0" />
    <path
       style="fill:none;stroke:#000000;stroke-width:0.264583;stroke-linecap:butt;stroke-linejoin:miter;stroke-miterlimit:4;stroke-dasharray:none;stroke-opacity:1;marker-end:url(#Arrow1Lend)"
       d="M 12.345624,58.171835 19.84375,54.239583"
       id="path15861"
       inkscape:connector-curvature="0" />
    <g
       inkscape:label=""
       transform="matrix(0.7,0,0,0.7,-19.999148,0.48596745)"
       id="g985"
       style="stroke-width:1.42857">
      <g
         id="g5359"
         style="stroke-width:1.42857">
        <g
           style="fill:#000000;fill-opacity:1;stroke-width:1.42857"
           id="g5401">
          <use
             xlink:href="#symbol1951"
             x="91.925003"
             y="81.962997"
             id="use5792"
             width="100%"
             height="100%"
             style="stroke-width:1.42857" />
        </g>
        <g
           style="fill:#000000;fill-opacity:1;stroke-width:1.42857"
           id="g4635">
          <use
             xlink:href="#symbol7008"
             x="97.617996"
             y="83.457001"
             id="use2390"
             width="100%"
             height="100%"
             style="stroke-width:1.42857" />
        </g>
      </g>
    </g>
    <g
       inkscape:label=""
       transform="matrix(0.7,0,0,0.7,-30.274125,-36.093112)"
       id="g1185"
       style="stroke-width:1.42857">
      <g
         id="g4954"
         style="stroke-width:1.42857">
        <g
           style="fill:#000000;fill-opacity:1;stroke-width:1.42857"
           id="g3401">
          <use
             xlink:href="#symbol1442"
             x="91.925003"
             y="81.962997"
             id="use2305"
             width="100%"
             height="100%"
             style="stroke-width:1.42857" />
        </g>
        <g
           style="fill:#000000;fill-opacity:1;stroke-width:1.42857"
           id="g2">
          <use
             xlink:href="#symbol2346"
             x="97.617996"
             y="83.457001"
             id="use9726"
             width="100%"
             height="100%"
             style="stroke-width:1.42857" />
        </g>
      </g>
    </g>
    <g
       inkscape:label=""
       transform="matrix(0.7,0,0,0.7,-18.193894,-22.00713)"
       id="g1383"
       style="stroke-width:1.42857">
      <g
         id="g5785"
         style="stroke-width:1.42857">
        <g
           style="fill:#000000;fill-opacity:1;stroke-width:1.42857"
           id="g6296">
          <use
             xlink:href="#symbol9148"
             x="91.925003"
             y="81.962997"
             id="use7506"
             width="100%"
             height="100%"
             style="stroke-width:1.42857" />
        </g>
        <g
           style="fill:#000000;fill-opacity:1;stroke-width:1.42857"
           id="g4864">
          <use
             xlink:href="#symbol3441"
             x="96.570999"
             y="83.457001"
             id="use2865"
             width="100%"
             height="100%"
             style="stroke-width:1.42857" />
        </g>
      </g>
    </g>
    <g
       inkscape:label=""
       transform="matrix(0.7,0,0,0.7,-50.417748,4.4763934)"
       id="g1431"
       style="stroke-width:1.42857">
      <g
         id="g1429"
         style="stroke-width:1.42857">
        <g
           style="fill:#000000;fill-opacity:1;stroke-width:1.42857"
           id="g1423">
          <use
             xlink:href="#symbol1951"
             x="91.925003"
             y="81.962997"
             id="use1421"
             width="100%"
             height="100%"
             style="stroke-width:1.42857" />
        </g>
        <g
           style="fill:#000000;fill-opacity:1;stroke-width:1.42857"
           id="g1427">
          <use
             xlink:href="#symbol7008"
             x="97.617996"
             y="83.457001"
             id="use1425"
             width="100%"
             height="100%"
             style="stroke-width:1.42857" />
        </g>
      </g>
    </g>
  </g>
</svg>
